<?xml version="1.0" standalone="no"?>
<!DOCTYPE svg PUBLIC "-//W3C//DTD SVG 1.1//EN" "http://www.w3.org/Graphics/SVG/1.1/DTD/svg11.dtd" >
<svg xmlns="http://www.w3.org/2000/svg" xmlns:xlink="http://www.w3.org/1999/xlink" version="1.1">
<metadata></metadata>
<defs>
<font id="knock_knockregular" horiz-adv-x="1026" >
<font-face units-per-em="2048" ascent="1536" descent="-512" />
<missing-glyph horiz-adv-x="380" />
<glyph horiz-adv-x="0" />
<glyph unicode="&#xd;" horiz-adv-x="380" />
<glyph horiz-adv-x="0" />
<glyph horiz-adv-x="0" />
<glyph unicode=" "  horiz-adv-x="380" />
<glyph unicode="&#x09;" horiz-adv-x="380" />
<glyph unicode="&#xa0;" horiz-adv-x="380" />
<glyph unicode="!" horiz-adv-x="370" d="M57 12l45 258h252l-47 -258h-250zM115 362l172 1031h252l-170 -1031h-254z" />
<glyph unicode="," horiz-adv-x="374" d="M55 154l45 260h254l-45 -271l2 2l-92 -133h-80l-33 142h-51z" />
<glyph unicode="." horiz-adv-x="382" d="M63 12l46 260h253l-45 -260h-254z" />
<glyph unicode="0" d="M92 215l10 68q8 55 19.5 118.5t22 127t21.5 126t19 117.5l37 211l10 70l13 67q0 8 1 15.5t3 17.5l6 39v-2q12 39 35.5 77t55.5 65.5t69 45t78 17.5h512q39 0 72.5 -15.5t56 -43t32 -63.5t0.5 -79l-24 -141l-6 -35q-4 -20 -5 -35l-12 -68q-4 -16 -6 -34.5t-4 -34.5 l-14 -74l-88 -557q-6 -43 -29 -80t-55.5 -64.5t-71.5 -43t-82 -15.5h-510q-82 0 -130 58.5t-36 144.5zM354 272h406l12 78l92 565q2 16 4 34t6 34l13 70l16 82h-399l-47 -250l-45 -275q-10 -66 -20.5 -129t-20.5 -129z" />
<glyph unicode="1" horiz-adv-x="606" d="M246 1135l47 260h469q-35 -219 -74 -451.5t-74 -449.5l-82 -482h-253l186 1123h-219zM762 1395l2 4l10 -4h-12z" />
<glyph unicode="2" d="M61 12l35 201q8 51 16.5 103.5t18.5 105.5l35 211q10 37 33.5 73.5t54.5 64.5t68.5 45.5t76.5 17.5h148q303 0 358 299h-598l-18 260h715q82 0 129 -58.5t36 -142.5l-6 -37q-4 -20 -4 -33q-18 -86 -57 -180q-20 -39 -46 -83t-48 -73q-41 -45 -88.5 -80.5t-100.5 -60.5 q-84 -39 -145 -53l-39 -8l-62 -11l-165 -2l-31 -217l-17 -84h660l-47 -258h-912z" />
<glyph unicode="3" d="M61 12l68 258h633l45 267l-92 2q-113 2 -218.5 37.5t-174.5 119.5q53 47 91 93.5t93 93.5q31 -47 110.5 -64.5t233.5 -17.5l53 334h-616l6 258h711q84 0 130 -57.5t33 -143.5l-6 -35q-4 -20 -4 -33q-2 -16 -7 -48t-7 -48q-10 -55 -17.5 -110.5t-23 -102.5t-47 -83 t-92.5 -54q37 -12 62.5 -39t34.5 -79t-2 -136t-50 -211q-10 -43 -32 -79t-53.5 -63.5t-70.5 -43t-82 -15.5h-709z" />
<glyph unicode="4" d="M234 1030q2 49 12 94q0 16 4 33l6 35q10 53 19.5 102t17.5 101h252l-47 -271q-6 -41 -6 -73q0 -217 270 -217h90l47 290l47 271h252q-31 -186 -62.5 -380t-62.5 -380l-104 -623h-256l94 559l-201 11l-55 12q-33 10 -65.5 22.5t-63.5 30.5q-41 25 -76 58.5t-59 80.5h2 q-37 78 -53 154q-4 41 -2 90z" />
<glyph unicode="5" d="M59 12l107 260h596q2 10 5 36t6 55.5t6 56t3 37.5q0 217 -268 217h-348l35 198q25 145 41 235.5t26.5 146t15.5 86t9 55.5h911q-12 -66 -38.5 -130.5t-37.5 -129.5h-626l-35 -201h162l39 -8q12 -2 27.5 -4t25.5 -7q31 -8 65.5 -21t63.5 -34q90 -49 141 -139 q20 -35 30.5 -74t16.5 -80q2 -12 3 -31.5t1 -33.5t-3 -45t-7 -65t-8 -64.5t-6 -44.5q-2 -16 -5 -33t-5 -33q-12 -39 -36 -76t-55.5 -65.5t-69.5 -46t-77 -17.5h-711z" />
<glyph unicode="6" d="M90 209q0 8 1 15t3 18l6 39l152 911q6 43 28.5 79t54.5 63.5t70.5 43t79.5 15.5h666l-100 -258h-555l-37 -234h164q0 -2 2 -2h4q18 -4 39.5 -7t48.5 -13q0 -2 2 -2h4l20 -9q23 -10 46.5 -18t52.5 -25q90 -47 139 -137q37 -72 49 -156q2 -20 1 -53t-4 -69.5t-7 -71.5 t-8 -57l-6 -33q-4 -20 -5 -31q-12 -39 -35.5 -76t-55 -65.5t-69.5 -46t-77 -17.5h-510q-41 0 -74 15.5t-56.5 42t-32.5 62.5t-1 77zM354 270h404q2 10 4 31t5 44.5t5 45t2 31.5q0 217 -270 217h-92z" />
<glyph unicode="7" d="M207 12q25 156 52.5 310.5t51.5 310.5q10 37 34 73.5t55.5 64.5t69.5 45.5t79 17.5q154 0 241 74.5t115 224.5h-653l20 127q4 35 8.5 68.5t10.5 64.5h715q84 0 129 -57.5t32 -143.5l-10 -70q-8 -47 -20.5 -94t-44.5 -104q-14 -39 -36 -72t-48 -66q-39 -43 -89.5 -79.5 t-97.5 -59.5q-35 -16 -75.5 -31.5t-77.5 -23.5q-16 -6 -44 -10t-69 -9l-35 -221l-59 -340h-254z" />
<glyph unicode="8" d="M96 211l47 281q25 143 168 210q-121 61 -98 211l35 209l10 68q12 37 35.5 73.5t55.5 65.5t69 46.5t74 17.5h512q82 0 129 -58.5t36 -142.5l-12 -72q-14 -84 -55 -178h2q-20 -37 -42 -72.5t-44 -70.5q41 -35 54 -73t3 -93l-55 -352l-6 -33q-4 -20 -4 -31q-12 -39 -37 -76 t-56.5 -65.5t-69.5 -46t-77 -17.5h-510q-41 0 -73.5 15.5t-56.5 42t-33 62.5t-1 79zM360 270h404l12 80l35 211q4 31 -20 72q-78 -33 -148 -48.5t-141 -13.5h-94zM455 834h92q303 0 358 299h-401z" />
<glyph unicode="9" d="M100 12l82 260h584l12 78l35 221h-164q-10 0 -22 4q-18 4 -36 7.5t-34 11.5q-2 0 -4 1t-4 1q-27 10 -60.5 22.5t-62.5 28.5q-88 53 -135 137h2q-18 41 -31.5 79t-19.5 77q-4 41 -2 90t10 94q2 16 5 33t5 33q12 37 35.5 73.5t55.5 65.5t70 46.5t75 17.5h510 q84 0 130 -57.5t33 -143.5l-10 -68l-18 -116q-16 -92 -33.5 -191.5t-30.5 -181.5l-67 -422q-12 -39 -35 -76t-54.5 -64.5t-69.5 -44t-79 -16.5h-672zM498 1051q0 -217 268 -217h94l47 301h-403q-6 -41 -6 -84z" />
<glyph unicode=":" horiz-adv-x="374" d="M16 -8l47 301h330l-47 -301h-330zM242 1133q4 27 8 51t8 53q8 39 12 79t13 77h256q-4 -29 -8.5 -52.5t-8.5 -50.5q-6 -41 -11 -80t-13 -77h-256zM539 1393v4l10 -4h-10z" />
<glyph unicode=";" horiz-adv-x="374" d="M53 154l45 260h254l-45 -271l2 2l-92 -133h-80l-33 142h-51zM246 1133q4 27 9 51t9 53q6 39 10.5 79t12.5 77h256l-19 -127q-4 -35 -9 -68t-11 -65h-258z" />
<glyph unicode="?" d="M131 12l49 260h252l-45 -260h-256zM193 362l47 273q6 41 27.5 77t52 63.5t70.5 43t83 15.5h74q303 0 356 301h-618l10 260h711q39 0 71.5 -15.5t54 -43t30.5 -64.5t3 -80l-6 -35q-4 -20 -4 -33q-8 -47 -21.5 -97t-41.5 -99q-14 -39 -36 -72t-50 -68q-37 -45 -86.5 -78.5 t-100.5 -62.5q-39 -18 -73.5 -29.5t-67.5 -21.5l-6 -2q-31 -10 -62 -12l-43 -7l-86 -4l-35 -209h-253z" />
<glyph unicode="A" d="M59 12l35 201l23 139q0 14 4 35l8 35l35 211l82 489l10 68q12 37 35.5 73.5t55.5 65.5t70 46.5t75 17.5h509q39 0 72 -16.5t54.5 -44t31.5 -64.5q7 -26 7 -54q0 -11 -1 -22l-94 -559l-6 -37q-2 -10 -3 -18.5t-1 -16.5q-4 -35 -11.5 -69.5t-11.5 -69.5l-6 -35 q-2 -10 -3 -18.5t-1 -16.5l-22 -139l-37 -201h-254l82 490h-164q-51 4 -106.5 23.5t-120.5 47.5q-23 -139 -47.5 -280t-47.5 -281h-252zM479 979q0 -219 271 -219h90l47 293l16 80h-403q-6 -39 -10.5 -65t-6.5 -42t-3 -27.5t-1 -19.5z" />
<glyph unicode="B" horiz-adv-x="1017" d="M61 12l232 1381h694q81 1 135 -63q42 -50 42 -129q0 -22 -3 -46q-10 -55 -23.5 -107.5t-35.5 -105.5q-12 -35 -33.5 -65.5t-44.5 -54t-43 -37t-31 -13.5q25 -18 49.5 -34.5t43 -38t27.5 -52.5q5 -19 6 -42q0 -16 -3 -34l-65 -358q-12 -39 -35 -76t-54.5 -64.5t-69.5 -44 t-79 -16.5h-709zM360 270h404l12 80l35 211q1 5 1 11q0 28 -17 63q-84 -35 -154 -51q-62 -14 -123 -13h-16h-94zM455 834h92q154 0 243 85t117 234h-401z" />
<glyph unicode="C" horiz-adv-x="913" d="M98 209l11 74q8 55 19 118.5t21.5 127t21.5 126t19 117.5l37 211q0 12 4 33l7 35l12 69q0 8 1 15.5t3 17.5l6 39v-2q10 37 33.5 73.5t55.5 66.5t70 47.5t77 17.5h622l-63 -260h-551l-43 -250l-45 -275q-10 -66 -20.5 -129t-20.5 -129l-17 -80h570l-51 -260h-613 q-41 0 -74.5 15.5t-57.5 42.5q-22 26 -32 62q-5 20 -6 41q0 17 4 36z" />
<glyph unicode="D" d="M63 12l35 201l11 68q8 55 19 118.5t22.5 127t21.5 126t18 117.5l37 211l11 70l12 67q2 18 5 37t5 37l35 201h711q84 1 130 -57q36 -45 36 -107q0 -18 -3 -37l-24 -139l-6 -37q-4 -20 -4 -35l-13 -68q-4 -16 -6 -34.5t-4 -32.5l-12 -76l-90 -557q-12 -39 -35 -76 t-54.5 -64.5t-69.5 -44t-79 -16.5h-709zM358 270h406l12 80l92 563q2 16 4 34t7 34l14 70l14 82h-397l-49 -248l-45 -275q-10 -66 -20.5 -129t-20.5 -129z" />
<glyph unicode="E" horiz-adv-x="884" d="M61 12l187 1110q0 12 4 33l6 37l35 201h778l-35 -201q-2 -10 -3 -23.5t-5 -23.5q0 -2 -2 -6t-2 -6h-520l-49 -299h92q80 0 126 19t91 60l47 -61q25 -31 47.5 -61.5t50.5 -61.5q-63 -55 -129 -82q-76 -39 -145 -53q-41 -12 -66.5 -17.5t-66.5 -5.5h-94l-48 -301h527 l-47 -258h-779z" />
<glyph unicode="F" horiz-adv-x="968" d="M66 12l186 1112q0 12 4 33l8 37l35 201h831l-36 -201q-2 -10 -3 -23.5t-6 -23.5q0 -2 -2 -6t-2 -6h-575l-49 -301h94q78 0 143.5 20t110.5 61l47 -61q25 -31 47.5 -61.5t50.5 -61.5q-59 -47 -129 -84h2q-41 -20 -75.5 -33.5t-71.5 -19.5q-41 -10 -87 -15.5t-83 -5.5h-96 l-37 -247l-11 -43l-45 -271h-251z" />
<glyph unicode="G" d="M92 209l10 74q8 55 19.5 118.5t22 127t21.5 126t19 117.5l37 211q0 12 4 33l6 35l13 69q0 8 1 15.5t3 17.5l6 39v-2q10 37 33.5 73.5t55.5 66.5t70 47.5t76 17.5l705 -2l-109 -258h-589l-144 -863h406l57 344q-45 8 -90 27t-87 44.5t-77 56t-59 63.5l207 184 q14 -20 45.5 -46.5t81 -49.5t117 -39t157.5 -16q-47 -283 -74.5 -439.5t-31.5 -185.5v2q-12 -41 -36 -78t-55.5 -64.5t-69.5 -45t-77 -17.5h-510q-41 0 -73.5 15.5t-56.5 42t-33 62.5q-5 19 -5 40q0 18 4 37z" />
<glyph unicode="H" horiz-adv-x="980" d="M59 12l117 690q29 176 58.5 346.5t58.5 346.5h254l-60 -342q-6 -37 -6 -72q0 -53 9.5 -94t33 -68.5t66.5 -42t110 -14.5h91l108 633h254l-82 -482q-39 -227 -77 -449t-74 -452h-254l82 490h-105q-104 16 -235 73q-23 -141 -47.5 -281t-47.5 -282h-254z" />
<glyph unicode="I" horiz-adv-x="385" d="M70 12q55 348 113.5 690t115.5 691h252q-55 -348 -113.5 -690.5t-118.5 -690.5h-249z" />
<glyph unicode="J" horiz-adv-x="946" d="M98 211l47 270h252l-12 -61q-4 -16 -6 -32.5t-4 -33.5l-17 -82h310l12 78q23 133 44 267.5t42 267.5l43 250h-508l-6 258h815l-199 -1176q-12 -39 -35.5 -76t-55.5 -65.5t-69.5 -46t-76.5 -17.5h-410q-41 0 -74.5 15.5t-57 42t-32.5 62.5q-6 20 -6 41q0 18 4 38z" />
<glyph unicode="K" horiz-adv-x="968" d="M55 12l187 1112q0 16 4 33l6 35q10 53 19.5 102t17.5 101h254l-45 -271l-49 -290h94q76 0 127 18t84.5 55t52 91.5t31.5 125.5q10 66 23 135.5t24 135.5h272q-12 -80 -25.5 -171t-38 -178.5t-67.5 -162t-115 -123.5q18 -16 38 -42t32 -66t13 -99v-6q0 -57 -19 -135 l-33 -199l-37 -201h-254q47 190 65.5 308t19.5 182v13q0 53 -8 75q-9 24 -19 28q-39 -14 -65 -23t-47.5 -14.5t-44 -7.5t-54.5 -2h-97l-47 -288l-45 -271h-254z" />
<glyph unicode="L" horiz-adv-x="681" d="M61 12q55 348 113.5 690t116.5 691h252l-183 -1123h377l-112 -258h-564z" />
<glyph unicode="M" horiz-adv-x="1445" d="M49 12l82 482q39 227 77 449t77 452h262q141 -178 210.5 -327.5t98.5 -262.5q31 51 80 118.5t113.5 143.5t144.5 159t174 169h264q-29 -176 -58.5 -346t-60.5 -347l-114 -690h-254l90 541l37 227l43 240l-58 -55q-16 -16 -30.5 -35t-30.5 -37l-70 -105v3l-10 -21 q-2 -4 -5 -9t-5 -9h2q-8 -12 -18.5 -31t-20.5 -36t-18.5 -30.5t-10.5 -17.5q-16 -31 -36.5 -64.5t-38.5 -68.5l-230 -447l-110 580q-20 80 -35 127t-24 72.5t-14 37t-7 17.5l2 -2q-2 4 -7 15t-16 30l-12 27q-4 12 -12 24l-13.5 22.5t-11.5 22.5q-10 -55 -21.5 -125.5 t-19.5 -124.5l-37 -227l-90 -541h-258z" />
<glyph unicode="N" d="M57 12l117 690q29 176 58.5 346.5t58.5 346.5l190 -2q53 -49 107.5 -130t102.5 -177.5t86 -203t57 -206.5l120 719h244q-49 -293 -85 -503t-61.5 -367.5t-46 -278.5t-38.5 -234h-244q-14 174 -32.5 309.5t-47.5 248t-68.5 211t-95.5 200.5l-80 -455l-90 -514h-252z" />
<glyph unicode="O" horiz-adv-x="1001" d="M94 215l10 68q8 55 19.5 118.5t22 127t21.5 126t19 117.5l37 211l10 70l13 67q0 8 1 15.5t3 17.5l6 39v-2q12 39 35.5 77t55.5 65.5t69 45t78 17.5h489q39 0 73 -15.5t56.5 -43t31.5 -63.5q5 -19 5 -40q0 -19 -4 -39l-25 -141l-6 -35q-4 -20 -4 -35l-12 -68 q-4 -16 -6 -34.5t-5 -34.5l-14 -74l-88 -557q-6 -43 -28.5 -80t-55.5 -64.5t-71.5 -43t-81.5 -15.5h-488q-82 0 -130 58q-38 47 -38 112q0 16 2 33zM356 272h383l13 78l92 565q2 16 4 34t6 34l14 70l15 82h-377l-47 -250l-45 -275q-10 -66 -20.5 -129t-20.5 -129z" />
<glyph unicode="P" d="M63 12q4 27 8.5 48.5t8.5 48.5l18 104l72 422l127 760h711q39 0 71.5 -15.5t54.5 -43.5q22 -27 32 -64q5 -21 6 -45q0 -17 -3 -35l-6 -35q-4 -20 -4 -33q-10 -45 -22.5 -89t-32.5 -91q-20 -41 -45 -83t-51 -75q-39 -39 -89.5 -77.5t-97.5 -61.5q-35 -16 -64.5 -25.5 t-58.5 -19.5l-24 -8q-16 -6 -32.5 -8t-33.5 -4l-39 -7h2l-161 -4l-33 -217l-15 -71l-45 -271h-254zM457 834h92q309 0 358 301h-401z" />
<glyph unicode="Q" d="M94 209q0 8 1 15t3 18l6 39q8 55 19.5 118.5l23 127t21.5 126t18 117.5l37 213q0 12 4 33l6 35l13 69q0 8 1 15.5t3 17.5l6 39v-2q10 39 33.5 74.5t55.5 64.5t70 46.5t74 17.5h512q84 0 131 -57q36 -45 36 -108q0 -17 -3 -36l-24 -139l-6 -35q-4 -20 -5 -35l-12 -68 q-4 -16 -6 -35.5t-4 -33.5l-14 -76l-88 -557q-12 -39 -35 -76t-54.5 -64.5t-69.5 -44t-79 -16.5h-510q-41 0 -73.5 15.5t-56.5 42t-33 62.5q-5 19 -5 40q0 18 4 37zM168 -102q27 20 50.5 35.5t51.5 27.5q23 10 46.5 18.5t45.5 14.5l19 6h-2q63 14 135 14q33 0 65.5 -3 t65.5 -11q2 -2 4 -2l25 -10q16 -4 31.5 -10.5t35.5 -16.5q41 -25 76 -61l-162 -142q-51 63 -176 64q-63 0 -113.5 -17.5t-84.5 -46.5zM356 270h406l12 80l92 563q2 16 4 34t7 34l14 70l14 84h-403l-43 -250l-45 -275q-10 -66 -20.5 -129t-20.5 -129z" />
<glyph unicode="R" d="M61 12l187 1112q0 16 4 33l6 35q10 53 19.5 102t17.5 101h713q39 0 71.5 -15.5t54.5 -43.5q22 -27 32 -64q5 -21 6 -45q0 -17 -3 -35l-6 -35q-4 -20 -4 -33q-2 -55 -21.5 -106t-49 -97.5t-67.5 -87t-77 -71.5q18 -16 42 -34.5t42 -44.5q19 -27 29 -63q5 -18 5 -40.5 t-5 -49.5l-84 -518h-254l45 267l12 67q10 76 15.5 122t5.5 72.5t-4.5 39t-12.5 20.5q-72 -29 -140.5 -29h-137.5h-94l-48 -288l-45 -271h-254zM455 834h92q309 0 358 301h-401z" />
<glyph unicode="S" horiz-adv-x="858" d="M59 12l45 260h502l39 246h-4l-41 8l-55 13q-25 6 -60.5 21t-68.5 32h2q-88 51 -137 139q-20 35 -30.5 74t-17.5 80q-2 14 -3 33.5t-1 33.5q0 66 11.5 142.5t41 142.5t81 111t133.5 47h551q-6 -33 -21.5 -66t-34 -64.5t-35 -64.5t-22.5 -65h-432q-10 -73 -16 -137 q-1 -16 -1 -31q1 -45 13 -81q16 -48 62 -77t136 -31h49q41 0 74 -16.5t55 -43.5q24 -28 34 -64q7 -24 7 -50q0 -12 -2 -24l-63 -365q-6 -43 -28.5 -80t-54.5 -64.5t-72 -43t-81 -15.5h-555z" />
<glyph unicode="T" horiz-adv-x="790" d="M233 1135v260h789l-96 -260h-219l-187 -1123h-254l185 1123h-218z" />
<glyph unicode="U" d="M98 209q0 8 1 15t3 18l7 39q8 55 19 118.5t21.5 127t21.5 126t19 117.5l37 213q0 14 4 35l7 35l12 73q4 16 6 33t4 33l35 201h254l-86 -508q0 -4 -1 -8.5t-1 -8.5q-2 -4 -2 -8v-8l-82 -500l-17 -82h406l12 80l90 563q2 16 5.5 34t7.5 34l14 70l12 71l8 52h-219v219h510 l-37 -201q-4 -35 -11 -70t-11 -69l-6 -35q-4 -20 -4 -35l-13 -68q-4 -16 -6 -35.5t-4 -33.5l-12 -76l-90 -557q-12 -39 -35 -76t-54.5 -64.5t-69.5 -44t-79 -16.5h-508q-41 0 -74.5 15.5t-57.5 42.5q-24 26 -34 62q-6 20 -5 42q0 17 3 35z" />
<glyph unicode="V" d="M166 561q0 100 18 209l35 209q0 2 2 15.5t4 21.5l6 37l13 73q4 16 6 33t4 33l35 201h254l-92 -541l-15 -82q-6 -47 -11 -94q-4 -34 -4 -68q0 -14 1 -28q2 -41 7 -80t15 -72q10 -23 26.5 -54.5t35.5 -60.5q8 -12 20.5 -26.5t32.5 -30.5l64 57q33 31 49 52.5t33 44.5l12 16 q27 35 44 76t30 73q37 92 49 195l22 143q2 16 4 34t6 34l13 70l16 69l21 137l8 70t10 66h256l-35 -201q-4 -35 -11 -70t-11 -69l-6 -37q-2 -10 -3.5 -18.5t-1.5 -16.5q-4 -23 -8 -47.5t-8 -50.5l-20 -113q-20 -121 -64.5 -232.5t-108 -209t-142.5 -177t-167 -139.5h-200 q-111 94 -177.5 236.5t-66.5 312.5z" />
<glyph unicode="W" horiz-adv-x="1665" d="M156 561q0 51 5 103.5t15 105.5l35 213q0 14 4 35l6 35l12 73q4 16 6.5 33t4.5 33l35 201h251l-88 -541l-14 -82q-8 -45 -11 -94q-2 -29 -2 -58q0 -19 1 -38q2 -88 22 -150v2l4 -12q10 -25 21.5 -51.5t32.5 -53.5q4 -4 10 -13t10 -13l27 -33q29 20 45 34.5t26 24.5 q29 27 51.5 55.5t43.5 57.5q23 37 41 76t30 71q35 88 51 195q2 16 4.5 33.5t6.5 36.5l12 71l12 66q0 2 2 14.5t4 20.5l7 39l14 69q0 14 4 35l6 37l33 201h252l-33 -201q-4 -35 -11 -70t-11 -69l-7 -35q-2 -10 -3 -18.5t-1 -16.5l-20 -131l-19 -82q-6 -47 -10 -94 q-3 -31 -3 -64q0 -16 1 -32q0 -80 23 -148l10 -12h-2q10 -25 21.5 -51.5t29.5 -53.5q4 -6 10 -14t11 -12l26 -29q27 16 44.5 31.5t25.5 23.5q20 23 49 54.5t45 58.5q23 35 43 76t33 71q18 49 29.5 97.5t17.5 97.5l22 143q2 16 5.5 34t7.5 34l12 70l12 71l8 52h-237v219h530 l-37 -201q-4 -35 -11 -70t-11 -69l-6 -35q-6 -18 -6 -35q-4 -23 -8.5 -48.5t-8.5 -51.5l-18 -113q-23 -121 -67 -232.5t-106.5 -209t-141 -177t-169.5 -139.5h-200q-53 41 -99.5 100.5t-87.5 137.5q-57 -72 -127.5 -133.5t-142.5 -104.5h-197q-111 94 -179 236.5t-68 312.5z " />
<glyph unicode="X" d="M57 12l82 471q10 74 67.5 132.5t129.5 91.5q-59 33 -98 77q-31 35 -31 86q0 13 2 27q20 129 34.5 214t23.5 139.5t14.5 87t9.5 57.5h254l-90 -506l39 -58q25 -9 54 -9q28 0 58 8q64 16 125.5 58t109.5 103.5t60 132.5q10 66 23.5 135.5t23.5 135.5h250l-47 -273 q-10 -55 -25.5 -100t-38 -84t-52 -75t-66.5 -75q20 -16 38.5 -38.5t27.5 -74.5q6 -36 6 -91q0 -26 -1 -54q-4 -92 -26 -247l-10 -70l-37 -201h-252l45 271q18 111 27.5 174t10.5 97t-2 47t-10 24q-37 -14 -74.5 -25.5t-82.5 -22t-97.5 -23.5t-117.5 -32l-103 -510h-254z" />
<glyph unicode="Y" horiz-adv-x="1021" d="M163 554q-4 17 -4 35q0 20 5 42l10 74l80 489l37 201h254q-4 -23 -8.5 -44.5t-8.5 -43.5l-92 -535l-10 -78h403q2 16 5.5 39t5.5 39q10 70 21 139.5t24 141.5l49 282l10 60h256l-12 -60l-12 -69l-13 -72l-90 -559q-10 -39 -33.5 -75t-54.5 -63.5t-69.5 -45t-79.5 -17.5 h-125l-70 -422h-254l66 422h-125q-41 0 -76 15.5t-57.5 42t-31.5 62.5z" />
<glyph unicode="Z" d="M68 12q4 27 8 49.5t8 49.5l18 104l72 420q6 41 27.5 77t53.5 63.5t71 44t80 16.5h147q301 0 356 299h-598l-10 260h909l-36 -201q-2 -12 -3.5 -25.5t-5.5 -25.5q0 -4 -2 -9.5t-2 -9.5q-8 -47 -20.5 -94t-44.5 -104q-12 -37 -36 -72t-48 -66q-84 -90 -187 -141 q-41 -20 -75.5 -33.5t-71.5 -19.5q-31 -10 -62 -12l-43 -7l-161 -2l-33 -217l-17 -84h615v-260h-909z" />
<glyph unicode="a" d="M59 12l35 201l23 139q0 14 4 35l8 35l35 211l82 489l10 68q12 37 35.5 73.5t55.5 65.5t70 46.5t75 17.5h509q39 0 72 -16.5t54.5 -44t31.5 -64.5q7 -26 7 -54q0 -11 -1 -22l-94 -559l-6 -37q-2 -10 -3 -18.5t-1 -16.5q-4 -35 -11.5 -69.5t-11.5 -69.5l-6 -35 q-2 -10 -3 -18.5t-1 -16.5l-22 -139l-37 -201h-254l82 490h-164q-51 4 -106.5 23.5t-120.5 47.5q-23 -139 -47.5 -280t-47.5 -281h-252zM479 979q0 -219 271 -219h90l47 293l16 80h-403q-6 -39 -10.5 -65t-6.5 -42t-3 -27.5t-1 -19.5z" />
<glyph unicode="b" horiz-adv-x="1017" d="M61 12l232 1381h694q81 1 135 -63q42 -50 42 -129q0 -22 -3 -46q-10 -55 -23.5 -107.5t-35.5 -105.5q-12 -35 -33.5 -65.5t-44.5 -54t-43 -37t-31 -13.5q25 -18 49.5 -34.5t43 -38t27.5 -52.5q5 -19 6 -42q0 -16 -3 -34l-65 -358q-12 -39 -35 -76t-54.5 -64.5t-69.5 -44 t-79 -16.5h-709zM360 270h404l12 80l35 211q1 5 1 11q0 28 -17 63q-84 -35 -154 -51q-62 -14 -123 -13h-16h-94zM455 834h92q154 0 243 85t117 234h-401z" />
<glyph unicode="c" horiz-adv-x="913" d="M98 209l11 74q8 55 19 118.5t21.5 127t21.5 126t19 117.5l37 211q0 12 4 33l7 35l12 69q0 8 1 15.5t3 17.5l6 39v-2q10 37 33.5 73.5t55.5 66.5t70 47.5t77 17.5h622l-63 -260h-551l-43 -250l-45 -275q-10 -66 -20.5 -129t-20.5 -129l-17 -80h570l-51 -260h-613 q-41 0 -74.5 15.5t-57.5 42.5q-22 26 -32 62q-5 20 -6 41q0 17 4 36z" />
<glyph unicode="d" d="M63 12l35 201l11 68q8 55 19 118.5t22.5 127t21.5 126t18 117.5l37 211l11 70l12 67q2 18 5 37t5 37l35 201h711q84 1 130 -57q36 -45 36 -107q0 -18 -3 -37l-24 -139l-6 -37q-4 -20 -4 -35l-13 -68q-4 -16 -6 -34.5t-4 -32.5l-12 -76l-90 -557q-12 -39 -35 -76 t-54.5 -64.5t-69.5 -44t-79 -16.5h-709zM358 270h406l12 80l92 563q2 16 4 34t7 34l14 70l14 82h-397l-49 -248l-45 -275q-10 -66 -20.5 -129t-20.5 -129z" />
<glyph unicode="e" horiz-adv-x="884" d="M61 12l187 1110q0 12 4 33l6 37l35 201h778l-35 -201q-2 -10 -3 -23.5t-5 -23.5q0 -2 -2 -6t-2 -6h-520l-49 -299h92q80 0 126 19t91 60l47 -61q25 -31 47.5 -61.5t50.5 -61.5q-63 -55 -129 -82q-76 -39 -145 -53q-41 -12 -66.5 -17.5t-66.5 -5.5h-94l-48 -301h527 l-47 -258h-779z" />
<glyph unicode="f" horiz-adv-x="968" d="M66 12l186 1112q0 12 4 33l8 37l35 201h831l-36 -201q-2 -10 -3 -23.5t-6 -23.5q0 -2 -2 -6t-2 -6h-575l-49 -301h94q78 0 143.5 20t110.5 61l47 -61q25 -31 47.5 -61.5t50.5 -61.5q-59 -47 -129 -84h2q-41 -20 -75.5 -33.5t-71.5 -19.5q-41 -10 -87 -15.5t-83 -5.5h-96 l-37 -247l-11 -43l-45 -271h-251z" />
<glyph unicode="g" d="M92 209l10 74q8 55 19.5 118.5t22 127t21.5 126t19 117.5l37 211q0 12 4 33l6 35l13 69q0 8 1 15.5t3 17.5l6 39v-2q10 37 33.5 73.5t55.5 66.5t70 47.5t76 17.5l705 -2l-109 -258h-589l-144 -863h406l57 344q-45 8 -90 27t-87 44.5t-77 56t-59 63.5l207 184 q14 -20 45.5 -46.5t81 -49.5t117 -39t157.5 -16q-47 -283 -74.5 -439.5t-31.5 -185.5v2q-12 -41 -36 -78t-55.5 -64.5t-69.5 -45t-77 -17.5h-510q-41 0 -73.5 15.5t-56.5 42t-33 62.5q-5 19 -5 40q0 18 4 37z" />
<glyph unicode="h" horiz-adv-x="980" d="M59 12l117 690q29 176 58.5 346.5t58.5 346.5h254l-60 -342q-6 -37 -6 -72q0 -53 9.5 -94t33 -68.5t66.5 -42t110 -14.5h91l108 633h254l-82 -482q-39 -227 -77 -449t-74 -452h-254l82 490h-105q-104 16 -235 73q-23 -141 -47.5 -281t-47.5 -282h-254z" />
<glyph unicode="i" horiz-adv-x="385" d="M70 12q55 348 113.5 690t115.5 691h252q-55 -348 -113.5 -690.5t-118.5 -690.5h-249z" />
<glyph unicode="j" horiz-adv-x="946" d="M98 211l47 270h252l-12 -61q-4 -16 -6 -32.5t-4 -33.5l-17 -82h310l12 78q23 133 44 267.5t42 267.5l43 250h-508l-6 258h815l-199 -1176q-12 -39 -35.5 -76t-55.5 -65.5t-69.5 -46t-76.5 -17.5h-410q-41 0 -74.5 15.5t-57 42t-32.5 62.5q-6 20 -6 41q0 18 4 38z" />
<glyph unicode="k" horiz-adv-x="968" d="M55 12l187 1112q0 16 4 33l6 35q10 53 19.5 102t17.5 101h254l-45 -271l-49 -290h94q76 0 127 18t84.5 55t52 91.5t31.5 125.5q10 66 23 135.5t24 135.5h272q-12 -80 -25.5 -171t-38 -178.5t-67.5 -162t-115 -123.5q18 -16 38 -42t32 -66t13 -99v-6q0 -57 -19 -135 l-33 -199l-37 -201h-254q47 190 65.5 308t19.5 182v13q0 53 -8 75q-9 24 -19 28q-39 -14 -65 -23t-47.5 -14.5t-44 -7.5t-54.5 -2h-97l-47 -288l-45 -271h-254z" />
<glyph unicode="l" horiz-adv-x="681" d="M61 12q55 348 113.5 690t116.5 691h252l-183 -1123h377l-112 -258h-564z" />
<glyph unicode="m" horiz-adv-x="1445" d="M49 12l82 482q39 227 77 449t77 452h262q141 -178 210.5 -327.5t98.5 -262.5q31 51 80 118.5t113.5 143.5t144.5 159t174 169h264q-29 -176 -58.5 -346t-60.5 -347l-114 -690h-254l90 541l37 227l43 240l-58 -55q-16 -16 -30.5 -35t-30.5 -37l-70 -105v3l-10 -21 q-2 -4 -5 -9t-5 -9h2q-8 -12 -18.5 -31t-20.5 -36t-18.5 -30.5t-10.5 -17.5q-16 -31 -36.5 -64.5t-38.5 -68.5l-230 -447l-110 580q-20 80 -35 127t-24 72.5t-14 37t-7 17.5l2 -2q-2 4 -7 15t-16 30l-12 27q-4 12 -12 24l-13.5 22.5t-11.5 22.5q-10 -55 -21.5 -125.5 t-19.5 -124.5l-37 -227l-90 -541h-258z" />
<glyph unicode="n" d="M57 12l117 690q29 176 58.5 346.5t58.5 346.5l190 -2q53 -49 107.5 -130t102.5 -177.5t86 -203t57 -206.5l120 719h244q-49 -293 -85 -503t-61.5 -367.5t-46 -278.5t-38.5 -234h-244q-14 174 -32.5 309.5t-47.5 248t-68.5 211t-95.5 200.5l-80 -455l-90 -514h-252z" />
<glyph unicode="o" horiz-adv-x="1001" d="M94 215l10 68q8 55 19.5 118.5t22 127t21.5 126t19 117.5l37 211l10 70l13 67q0 8 1 15.5t3 17.5l6 39v-2q12 39 35.5 77t55.5 65.5t69 45t78 17.5h489q39 0 73 -15.5t56.5 -43t31.5 -63.5q5 -19 5 -40q0 -19 -4 -39l-25 -141l-6 -35q-4 -20 -4 -35l-12 -68 q-4 -16 -6 -34.5t-5 -34.5l-14 -74l-88 -557q-6 -43 -28.5 -80t-55.5 -64.5t-71.5 -43t-81.5 -15.5h-488q-82 0 -130 58q-38 47 -38 112q0 16 2 33zM356 272h383l13 78l92 565q2 16 4 34t6 34l14 70l15 82h-377l-47 -250l-45 -275q-10 -66 -20.5 -129t-20.5 -129z" />
<glyph unicode="p" d="M63 12q4 27 8.5 48.5t8.5 48.5l18 104l72 422l127 760h711q39 0 71.5 -15.5t55 -43t31.5 -64.5q6 -21 6 -45q0 -17 -3 -35l-6 -35q-4 -20 -4 -33q-10 -45 -22.5 -89t-32.5 -91q-20 -41 -45 -83t-51 -75q-39 -39 -89.5 -77.5t-97.5 -61.5q-35 -16 -64.5 -25.5t-58.5 -19.5 l-24 -8q-16 -6 -32.5 -8t-33.5 -4l-39 -7h2l-161 -4l-33 -217l-15 -71l-45 -271h-254zM457 834h92q309 0 358 301h-401z" />
<glyph unicode="q" d="M94 209q0 8 1 15t3 18l6 39q8 55 19.5 118.5l23 127t21.5 126t18 117.5l37 213q0 12 4 33l6 35l13 69q0 8 1 15.5t3 17.5l6 39v-2q10 39 33.5 74.5t55.5 64.5t70 46.5t74 17.5h512q84 0 131 -57q36 -45 36 -108q0 -17 -3 -36l-24 -139l-6 -35q-4 -20 -5 -35l-12 -68 q-4 -16 -6 -35.5t-4 -33.5l-14 -76l-88 -557q-12 -39 -35 -76t-54.5 -64.5t-69.5 -44t-79 -16.5h-510q-41 0 -73.5 15.5t-56.5 42t-33 62.5q-5 19 -5 40q0 18 4 37zM168 -102q27 20 50.5 35.5t51.5 27.5q23 10 46.5 18.5t45.5 14.5l19 6h-2q63 14 135 14q33 0 65.5 -3 t65.5 -11q2 -2 4 -2l25 -10q16 -4 31.5 -10.5t35.5 -16.5q41 -25 76 -61l-162 -142q-51 63 -176 64q-63 0 -113.5 -17.5t-84.5 -46.5zM356 270h406l12 80l92 563q2 16 4 34t7 34l14 70l14 84h-403l-43 -250l-45 -275q-10 -66 -20.5 -129t-20.5 -129z" />
<glyph unicode="r" d="M61 12l187 1112q0 16 4 33l6 35q10 53 19.5 102t17.5 101h713q39 0 71.5 -15.5t54.5 -43.5q22 -27 32 -64q5 -21 6 -45q0 -17 -3 -35l-6 -35q-4 -20 -4 -33q-2 -55 -21.5 -106t-49 -97.5t-67.5 -87t-77 -71.5q18 -16 42 -34.5t42 -44.5q19 -27 29 -63q5 -18 5 -40.5 t-5 -49.5l-84 -518h-254l45 267l12 67q10 76 15.5 122t5.5 72.5t-4.5 39t-12.5 20.5q-72 -29 -140.5 -29h-137.5h-94l-48 -288l-45 -271h-254zM455 834h92q309 0 358 301h-401z" />
<glyph unicode="s" horiz-adv-x="858" d="M59 12l45 260h502l39 246h-4l-41 8l-55 13q-25 6 -60.5 21t-68.5 32h2q-88 51 -137 139q-20 35 -30.5 74t-17.5 80q-2 14 -3 33.5t-1 33.5q0 66 11.5 142.5t41 142.5t81 111t133.5 47h551q-6 -33 -21.5 -66t-34 -64.5t-35 -64.5t-22.5 -65h-432q-10 -73 -16 -137 q-1 -16 -1 -31q1 -45 13 -81q16 -48 62 -77t136 -31h49q41 0 74 -16.5t55 -43.5q24 -28 34 -64q7 -24 7 -50q0 -12 -2 -24l-63 -365q-6 -43 -28.5 -80t-54.5 -64.5t-72 -43t-81 -15.5h-555z" />
<glyph unicode="t" horiz-adv-x="790" d="M233 1135v260h789l-96 -260h-219l-187 -1123h-254l185 1123h-218z" />
<glyph unicode="u" d="M98 209q0 8 1 15t3 18l7 39q8 55 19 118.5t21.5 127t21.5 126t19 117.5l37 213q0 14 4 35l7 35l12 73q4 16 6 33t4 33l35 201h254l-86 -508q0 -4 -1 -8.5t-1 -8.5q-2 -4 -2 -8v-8l-82 -500l-17 -82h406l12 80l90 563q2 16 5.5 34t7.5 34l14 70l12 71l8 52h-219v219h510 l-37 -201q-4 -35 -11 -70t-11 -69l-6 -35q-4 -20 -4 -35l-13 -68q-4 -16 -6 -35.5t-4 -33.5l-12 -76l-90 -557q-12 -39 -35 -76t-54.5 -64.5t-69.5 -44t-79 -16.5h-508q-41 0 -74.5 15.5t-57.5 42.5q-24 26 -34 62q-6 20 -5 42q0 17 3 35z" />
<glyph unicode="v" d="M166 561q0 100 18 209l35 209q0 2 2 15.5t4 21.5l6 37l13 73q4 16 6 33t4 33l35 201h254l-92 -541l-15 -82q-6 -47 -11 -94q-4 -34 -4 -68q0 -14 1 -28q2 -41 7 -80t15 -72q10 -23 26.5 -54.5t35.5 -60.5q8 -12 20.5 -26.5t32.5 -30.5l64 57q33 31 49 52.5t33 44.5l12 16 q27 35 44 76t30 73q37 92 49 195l22 143q2 16 4 34t6 34l13 70l16 69l21 137l8 70t10 66h256l-35 -201q-4 -35 -11 -70t-11 -69l-6 -37q-2 -10 -3.5 -18.5t-1.5 -16.5q-4 -23 -8 -47.5t-8 -50.5l-20 -113q-20 -121 -64.5 -232.5t-108 -209t-142.5 -177t-167 -139.5h-200 q-111 94 -177.5 236.5t-66.5 312.5z" />
<glyph unicode="w" horiz-adv-x="1665" d="M156 561q0 51 5 103.5t15 105.5l35 213q0 14 4 35l6 35l12 73q4 16 6.5 33t4.5 33l35 201h251l-88 -541l-14 -82q-8 -45 -11 -94q-2 -29 -2 -58q0 -19 1 -38q2 -88 22 -150v2l4 -12q10 -25 21.5 -51.5t32.5 -53.5q4 -4 10 -13t10 -13l27 -33q29 20 45 34.5t26 24.5 q29 27 51.5 55.5t43.5 57.5q23 37 41 76t30 71q35 88 51 195q2 16 4.5 33.5t6.5 36.5l12 71l12 66q0 2 2 14.5t4 20.5l7 39l14 69q0 14 4 35l6 37l33 201h252l-33 -201q-4 -35 -11 -70t-11 -69l-7 -35q-2 -10 -3 -18.5t-1 -16.5l-20 -131l-19 -82q-6 -47 -10 -94 q-3 -31 -3 -64q0 -16 1 -32q0 -80 23 -148l10 -12h-2q10 -25 21.5 -51.5t29.5 -53.5q4 -6 10 -14t11 -12l26 -29q27 16 44.5 31.5t25.5 23.5q20 23 49 54.5t45 58.5q23 35 43 76t33 71q18 49 29.5 97.5t17.5 97.5l22 143q2 16 5.5 34t7.5 34l12 70l12 71l8 52h-237v219h530 l-37 -201q-4 -35 -11 -70t-11 -69l-6 -35q-6 -18 -6 -35q-4 -23 -8.5 -48.5t-8.5 -51.5l-18 -113q-23 -121 -67 -232.5t-106.5 -209t-141 -177t-169.5 -139.5h-200q-53 41 -99.5 100.5t-87.5 137.5q-57 -72 -127.5 -133.5t-142.5 -104.5h-197q-111 94 -179 236.5t-68 312.5z " />
<glyph unicode="x" d="M57 12l82 471q10 74 67.5 132.5t129.5 91.5q-59 33 -98 77q-31 35 -31 86q0 13 2 27q20 129 34.5 214t23.5 139.5t14.5 87t9.5 57.5h254l-90 -506l39 -58q25 -9 54 -9q28 0 58 8q64 16 125.5 58t109.5 103.5t60 132.5q10 66 23.5 135.5t23.5 135.5h250l-47 -273 q-10 -55 -25.5 -100t-38 -84t-52 -75t-66.5 -75q20 -16 38.5 -38.5t27.5 -74.5q6 -36 6 -91q0 -26 -1 -54q-4 -92 -26 -247l-10 -70l-37 -201h-252l45 271q18 111 27.5 174t10.5 97t-2 47t-10 24q-37 -14 -74.5 -25.5t-82.5 -22t-97.5 -23.5t-117.5 -32l-103 -510h-254z" />
<glyph unicode="y" horiz-adv-x="1021" d="M163 554q-4 17 -4 35q0 20 5 42l10 74l80 489l37 201h254q-4 -23 -8.5 -44.5t-8.5 -43.5l-92 -535l-10 -78h403q2 16 5.5 39t5.5 39q10 70 21 139.5t24 141.5l49 282l10 60h256l-12 -60l-12 -69l-13 -72l-90 -559q-10 -39 -33.5 -75t-54.5 -63.5t-69.5 -45t-79.5 -17.5 h-125l-70 -422h-254l66 422h-125q-41 0 -76 15.5t-57.5 42t-31.5 62.5z" />
<glyph unicode="z" d="M68 12q4 27 8 49.5t8 49.5l18 104l72 420q6 41 27.5 77t53.5 63.5t71 44t80 16.5h147q301 0 356 299h-598l-10 260h909l-36 -201q-2 -12 -3.5 -25.5t-5.5 -25.5q0 -4 -2 -9.5t-2 -9.5q-8 -47 -20.5 -94t-44.5 -104q-12 -37 -36 -72t-48 -66q-84 -90 -187 -141 q-41 -20 -75.5 -33.5t-71.5 -19.5q-31 -10 -62 -12l-43 -7l-161 -2l-33 -217l-17 -84h615v-260h-909z" />
<glyph unicode="&#x2000;" horiz-adv-x="699" />
<glyph unicode="&#x2001;" horiz-adv-x="1399" />
<glyph unicode="&#x2002;" horiz-adv-x="699" />
<glyph unicode="&#x2003;" horiz-adv-x="1399" />
<glyph unicode="&#x2004;" horiz-adv-x="466" />
<glyph unicode="&#x2005;" horiz-adv-x="349" />
<glyph unicode="&#x2006;" horiz-adv-x="233" />
<glyph unicode="&#x2007;" horiz-adv-x="233" />
<glyph unicode="&#x2008;" horiz-adv-x="174" />
<glyph unicode="&#x2009;" horiz-adv-x="279" />
<glyph unicode="&#x200a;" horiz-adv-x="77" />
<glyph unicode="&#x202f;" horiz-adv-x="279" />
<glyph unicode="&#x205f;" horiz-adv-x="349" />
<glyph unicode="&#x20ac;" horiz-adv-x="1105" d="M145 547v110h115l12 80h-114v113h135l22 133q0 12 4 33l7 35l12 69q0 8 1 15.5t3 17.5l8 39v-2q10 37 33 73.5t54.5 66.5t69.5 47.5t79 17.5h510q39 0 71.5 -15.5t55 -43t32 -64.5t2.5 -80l-47 -266h-254q0 8 1 18t6.5 30.5t12.5 58.5t19 102h-403l-43 -250 q-4 -20 -4 -35h411v-113h-432l-6 -41l-6 -39h432v-110h-450q-18 -96 -31 -195l-17 -80h406l12 78l25 131h254l-45 -268q-12 -39 -35 -76t-54.5 -64.5t-69.5 -44t-79 -16.5h-508q-41 0 -74.5 15.5t-56 42t-33 62.5t-2.5 77q2 18 5.5 36.5t5.5 37.5l43 264h-95z" />
<glyph unicode="&#x25fc;" horiz-adv-x="1392" d="M0 0v1393h1393v-1393h-1393z" />
</font>
</defs>
</svg>
