<?xml version="1.0" standalone="no"?>
<!DOCTYPE svg PUBLIC "-//W3C//DTD SVG 1.1//EN" "http://www.w3.org/Graphics/SVG/1.1/DTD/svg11.dtd" >
<svg xmlns="http://www.w3.org/2000/svg" xmlns:xlink="http://www.w3.org/1999/xlink" version="1.1">
<metadata></metadata>
<defs>
<font id="saccoSBdXCnOb" horiz-adv-x="614" >
<font-face units-per-em="2048" ascent="1638" descent="-410" />
<missing-glyph horiz-adv-x="286" />
<glyph horiz-adv-x="0" />
<glyph horiz-adv-x="0" />
<glyph unicode="&#xd;" horiz-adv-x="512" />
<glyph unicode=" "  horiz-adv-x="286" />
<glyph unicode="&#x09;" horiz-adv-x="286" />
<glyph unicode="&#xa0;" horiz-adv-x="286" />
<glyph unicode="!" horiz-adv-x="319" d="M8 0h187l10 186h-187zM29 295l75 1548h189l-86 -1548h-178z" />
<glyph unicode="&#x22;" horiz-adv-x="518" d="M96 1700l8 143h187l-8 -143q0 -8 -1 -19.5t-3.5 -31t-7.5 -50t-15 -79.5h-113q23 92 25 135t-31 45h-41zM317 1700l9 143h186l-8 -143q0 -8 -1 -19.5t-3 -31t-8.5 -50t-16.5 -79.5h-113q23 92 26 134t-30 46h-41z" />
<glyph unicode="#" horiz-adv-x="819" d="M55 0l78 733h-67l20 189h68l16 180h-64l21 188h63l58 553h180l-57 -553h94l57 551h178l-57 -551h80l-21 -188h-79l-17 -180h76l-20 -189h-76l-78 -733h-178l78 733h-93l-77 -733h-183zM334 922h94l16 180h-94z" />
<glyph unicode="&#x26;" horiz-adv-x="634" d="M27 150l26 534l13 242q0 10 2 17t4 15q6 12 32 33q14 10 34 18.5t46 16.5q-4 4 -12 7t-20 9q-23 8 -39 19q-10 6 -25 24q-12 18 -10 43l28 568q6 92 58.5 119.5t161.5 27.5q125 0 173 -31.5t44 -109.5l-17 -352h-170l15 309h-97l-26 -522h98l4 80h168l-4 -78h68l-11 -203 h-67q-6 -119 -13.5 -255t-14.5 -254t-11 -199t-4 -91q-4 -59 -38 -97t-91 -38l-99 -2q-119 -4 -166 24.5t-40 125.5zM199 174h96l41 762h-96z" />
<glyph unicode="'" horiz-adv-x="337" d="M98 1720l6 123h187l-6 -123q0 -8 -1 -19t-4.5 -30.5t-8.5 -50.5t-15 -80h-113q10 41 15.5 65.5t7.5 38t2 18.5v9q-2 18 -4 32.5t-25 16.5h-41z" />
<glyph unicode="(" horiz-adv-x="458" d="M20 -33q4 115 10.5 227.5t12.5 229.5l61 1188q4 70 8.5 139.5t8.5 138.5q6 88 48 128t130 40h113l-11 -194h-84l-14 -252l-16 -314l-33 -641l-12 -233l-23 -424h84l-10 -195h-119q-162 2 -154 162z" />
<glyph unicode=")" horiz-adv-x="432" d="M-2 -195l10 195h86l12 254l17 311l35 641l12 236l23 422h-87l11 194h119q162 -2 153 -162q-6 -115 -12 -227.5t-12 -226.5l-64 -1188l-14 -281q-4 -88 -46 -128t-130 -40h-113z" />
<glyph unicode="*" horiz-adv-x="380" d="M53 1778l99 47l-93 55l45 70l84 -58l5 111h81l-6 -111l92 58l35 -70l-96 -55l90 -47l-41 -72l-86 57l-6 -108h-82l8 108l-90 -57z" />
<glyph unicode="," horiz-adv-x="290" d="M6 0l8 143h187l-8 -143q0 -8 -1.5 -19.5t-4.5 -31t-8 -50t-15 -79.5h-113q23 92 26 135t-30 45h-41z" />
<glyph unicode="-" horiz-adv-x="509" d="M59 1004l9 172h360l-8 -172h-361z" />
<glyph unicode="." horiz-adv-x="325" d="M8 0l10 178h183l-11 -178h-182z" />
<glyph unicode="/" horiz-adv-x="577" d="M8 0q86 416 170 826.5t168 830.5l39 186h186q-84 -416 -170 -828.5t-172 -830.5l-39 -184h-182z" />
<glyph unicode="0" horiz-adv-x="774" d="M57 922l4 102h86q8 166 16.5 329t18.5 328q4 86 45 124t125 38h146q152 0 145 -153l-35 -666h107l-4 -102h-107l-41 -762q-8 -160 -168 -160h-145q-156 2 -148 156q8 193 19.5 383t21.5 383h-86zM293 188h82l39 734h-82zM336 1024h82l33 635h-82z" />
<glyph unicode="1" horiz-adv-x="518" d="M106 1659l9 145l315 39l-96 -1843h-187l86 1659h-127z" />
<glyph unicode="2" horiz-adv-x="583" d="M12 0q14 266 21.5 439t13.5 282.5t16.5 170t29 100.5t51 73t85.5 90q47 51 73 80t38 50.5t15 43t3 57.5l13 273h-88l-15 -307h-182l18 366q2 53 46.5 89t99.5 36h170q70 0 107.5 -40t33.5 -111l-20 -402q-2 -35 -6.5 -57.5t-25 -53t-64.5 -77.5t-123 -131 q-29 -29 -43.5 -46.5t-20.5 -37t-8 -48t-6 -77.5l-31 -574h270l-10 -188h-461z" />
<glyph unicode="3" horiz-adv-x="589" d="M18 137q0 86 5.5 165t9.5 171h168l-17 -299h97l41 760h-154l10 199l156 2l26 524h-90l-16 -311h-174l20 348q4 35 12.5 61.5t31 45t61.5 28.5t102 10q72 0 116 -7t69.5 -25.5t34 -47t5.5 -71.5l-28 -564q-2 -27 -14.5 -42t-31 -26t-38 -18.5t-35.5 -15.5 q41 -14 63.5 -27.5t33 -26t12.5 -24.5t2 -22l-15 -242l-4 -51l-24 -481q-2 -45 -13.5 -75t-36 -47.5t-66.5 -23.5t-108 -4l-98 2q-61 2 -88 42t-25 93z" />
<glyph unicode="4" horiz-adv-x="772" d="M33 483q94 299 185 589t185 593v2l56 176h180l-66 -1196h119l-8 -162h-121l-24 -485h-168l22 483h-360zM264 645h142l30 588z" />
<glyph unicode="5" horiz-adv-x="577" d="M18 150q2 92 6.5 164.5t8.5 168.5h182l-14 -293h96l39 762h-148q-86 0 -105.5 40t-14.5 110l18 332l18 409h457l-10 -184h-270v-27l-29 -491h143q63 -2 92 -47t27 -101l-20 -389l-21 -448q-4 -96 -63.5 -126t-194.5 -28q-68 2 -106.5 12.5t-59 28.5t-27 45t-4.5 62z" />
<glyph unicode="6" d="M18 156q37 768 80 1536q4 72 46 111.5t112 39.5q88 6 170 0q55 0 94 -41t37 -106l-10 -205h-182l8 168h-88l-21 -393h156q61 0 86.5 -48.5t21.5 -109.5l-49 -950q-6 -74 -47 -114t-115 -44h-157q-72 4 -109 44t-33 112zM209 190h84l51 887h-88z" />
<glyph unicode="7" horiz-adv-x="618" d="M8 0q86 416 170 827.5t170 833.5h-248l9 182h462q-86 -418 -171 -829.5t-173 -831.5l-37 -182h-182z" />
<glyph unicode="8" horiz-adv-x="587" d="M18 139l17 314l10 231l12 244q0 20 17.5 46.5t95.5 53.5q-14 8 -32.5 16.5t-34 19.5t-25.5 27.5t-8 41.5l28 567q4 41 10.5 68.5t30 44t66.5 23.5t117 7q72 0 114.5 -7t64 -24.5t28 -45t3.5 -70.5l-28 -563q-2 -27 -14.5 -43.5t-31 -26.5t-39 -18.5t-36.5 -16.5 q41 -14 63.5 -27.5t32.5 -25.5t12.5 -24.5t2.5 -22.5l-41 -776q-2 -45 -13.5 -75t-36 -46.5t-67.5 -22.5t-109 -8l-98 2q-61 2 -87 43t-24 94zM195 178h88l39 760h-91zM242 1141h90l26 518h-90z" />
<glyph unicode="9" d="M16 125q4 63 6.5 118.5t6.5 108.5h182l-8 -164h88l20 390h-155q-61 0 -87 48t-22 109l49 953q6 76 48 115.5t114 41.5h158q72 -2 108.5 -42.5t32.5 -112.5q-37 -768 -80 -1538q-4 -72 -46 -112t-112 -40q-86 -4 -169 0q-55 0 -94.5 36t-39.5 89zM236 766h83l46 893h-84z " />
<glyph unicode=":" horiz-adv-x="335" d="M43 668h184l11 176h-185zM61 1004l9 178h182l-8 -178h-183z" />
<glyph unicode=";" horiz-adv-x="290" d="M41 700l8 144h187l-9 -144q0 -8 -1 -19t-4 -30.5t-8 -50.5t-15 -80h-113q23 92 26 135t-30 45h-41zM57 1004l9 178h182l-8 -178h-183z" />
<glyph unicode="?" horiz-adv-x="616" d="M29 0l10 188h192l-10 -188h-192zM45 293l25 495q4 72 9 113t21.5 76t49 74t96.5 104q47 51 72.5 80t38 50.5t15.5 43t3 57.5l12 273h-88l-14 -307h-183l19 366q2 53 46 89t99 36h170q70 0 108 -40t34 -111l-21 -402q-2 -35 -6 -57.5t-24.5 -53t-64.5 -77.5t-124 -131 q-29 -29 -44 -54.5t-24.5 -89t-16.5 -186.5t-17 -348h-191z" />
<glyph unicode="A" d="M8 0l4 72l84 1603q4 86 46 127t130 41h295l-84 -1601l-12 -242h-184l53 1001h-92l-53 -1001h-187zM260 1184h82l25 475h-82z" />
<glyph unicode="B" horiz-adv-x="608" d="M8 0l96 1843h338q45 -2 77 -41t34 -84h2l-25 -475q-4 -57 -36.5 -91t-81.5 -50q20 -14 41.5 -28.5t35.5 -35.5q12 -23 18.5 -50t4.5 -54q-2 -53 -6 -140t-9 -192.5t-11.5 -220.5t-12.5 -223q-4 -72 -47 -115t-115 -43h-303zM201 193h86l43 811h-84l-15 -242zM256 1192h82 l22 467h-81l-17 -311z" />
<glyph unicode="C" d="M18 156q37 770 80 1540q4 72 46 110.5t112 38.5h170q55 -1 95 -35q38 -33 38 -83v-5l-18 -366h-183l15 303h-88l-76 -1469h86l29 572h186l-31 -604q-6 -74 -48 -116t-114 -42h-157q-72 0 -109 42q-33 38 -33 100v14z" />
<glyph unicode="D" horiz-adv-x="608" d="M8 0l96 1843h340q61 0 87 -48q23 -42 23 -93q0 -8 -1 -16l-72 -1379q-2 -43 -4 -85t-4 -85q-6 -49 -42 -93t-83 -44h-340zM205 190h82l75 1467h-81z" />
<glyph unicode="E" horiz-adv-x="468" d="M8 0l96 1843h316l-10 -184h-127l-25 -473h129l-8 -182h-133l-8 -179l-33 -647h131l-10 -178h-318z" />
<glyph unicode="F" horiz-adv-x="585" d="M8 0l96 1843h435l-11 -184h-245l-25 -477h203l-8 -178h-207l-53 -1004h-185z" />
<glyph unicode="G" d="M16 158l37 721l43 807q4 78 47 117.5t119 39.5h170q55 -2 91 -39t36 -86q-4 -94 -9 -179t-9 -187h-185l15 307h-86l-76 -1475h86l35 656h-41l10 164h221l-53 -1004h-309q-92 0 -118 43q-24 40 -24 105v10z" />
<glyph unicode="H" horiz-adv-x="604" d="M8 0l96 1843h181l-35 -661h90l35 661h182l-96 -1843h-178l53 1004h-92l-54 -1004h-182z" />
<glyph unicode="I" horiz-adv-x="317" d="M8 0l96 1843h187l-96 -1843h-187z" />
<glyph unicode="J" horiz-adv-x="464" d="M8 0l8 174q12 0 24.5 1t27.5 3q78 4 82 82l81 1583h183l-19 -350q-16 -305 -31.5 -606t-27.5 -606q-6 -160 -95 -231q-69 -54 -172 -54q-29 0 -61 4z" />
<glyph unicode="K" horiz-adv-x="628" d="M8 0l101 1843h182l-29 -561q16 76 28.5 125t20.5 85t14.5 64.5t14.5 66.5t19.5 89t27.5 131h184q-37 -168 -71.5 -335t-71.5 -332l-6 -60v-61q4 -57 7 -141.5t8 -183.5t9.5 -204.5t9.5 -204t8 -182.5t7 -139h-182q-4 111 -8.5 231.5t-10.5 243.5t-13 243t-13 228 q-2 -45 -6.5 -120.5t-9.5 -165t-11 -185.5t-11 -186t-9 -166t-7 -123h-182z" />
<glyph unicode="L" horiz-adv-x="464" d="M8 0l96 1843h179l-86 -1665h135l-10 -178h-314z" />
<glyph unicode="M" horiz-adv-x="890" d="M10 0l96 1843h590q80 -2 112 -41q28 -35 28 -106v-19q-20 -401 -43 -812.5t-48 -864.5h-186l86 1659h-90l-86 -1659h-186l86 1659h-93l-86 -1659h-180z" />
<glyph unicode="N" d="M8 0l96 1843h295q88 0 126 -41q34 -37 34 -111v-16l-88 -1675h-186l86 1659h-92l-86 -1659h-185z" />
<glyph unicode="O" horiz-adv-x="612" d="M16 158q8 195 19.5 386t21.5 386q10 188 18.5 374.5t20.5 378.5q4 86 45 124t125 38h146q145 0 145 -142v-13l-45 -863l-35 -665q-8 -162 -168 -162h-145q-148 2 -148 143v15zM207 190h82l76 1469h-82z" />
<glyph unicode="P" horiz-adv-x="610" d="M8 0l96 1843h340q51 -2 82 -40q29 -36 29 -85v-6q-16 -377 -39 -749q-4 -55 -47 -94.5t-98 -41.5q-22 -1 -44 -1h-22q-33 1 -74 1l-43 -827h-180zM248 1004h82l32 655h-81z" />
<glyph unicode="Q" horiz-adv-x="653" d="M16 154l80 1527q4 86 44 124t124 38h146q147 0 147 -135v-16l-45 -869l-35 -676l70 -63l-113 -125l-57 49q-29 -8 -87.5 -8h-115.5q-92 0 -127 36q-31 32 -31 102v16zM207 184h82l76 1475h-82z" />
<glyph unicode="R" horiz-adv-x="612" d="M8 0l31 588l65 1255h181h133q78 1 110 -35q31 -33 31 -91v-7l-29 -500q-2 -29 -12 -46t-26.5 -29.5t-35 -20.5t-36.5 -18q97 -50 97 -161q0 -10 -1 -22l-2 -34l-41 -809l-4 -70h-184l45 879l8 125h-92l-53 -1004h-185zM260 1194h82l23 465h-82z" />
<glyph unicode="S" horiz-adv-x="577" d="M20 123l3 33h-3l31 604h187l-29 -572h86l27 574q4 49 5 77.5t-4.5 48t-17.5 37t-37 46.5q-72 84 -110.5 131t-56 77.5t-19.5 53t0 57.5l20 402q4 72 46 111.5t112 39.5h170q55 1 95 -35q38 -34 38 -85v-5l-18 -366h-183l15 307h-88l-17 -273v-58t10.5 -42.5t33 -50.5 t65.5 -80q53 -66 83 -104.5t43 -73.5t13 -76t-4 -113l-31 -536l-4 -102q-4 -72 -46 -111t-111 -39h-170q-55 0 -95.5 35t-38.5 88z" />
<glyph unicode="T" horiz-adv-x="563" d="M94 1659l10 184h453l-10 -184h-131l-86 -1659h-187l86 1659h-135z" />
<glyph unicode="U" horiz-adv-x="606" d="M18 139l91 1704h178l-86 -1653h88l86 1653h182l-88 -1681q-4 -82 -43 -121t-119 -39q-40 -2 -80 -2l-80 2q-61 2 -97 39q-32 33 -32 86v12z" />
<glyph unicode="V" horiz-adv-x="724" d="M104 1843h183l49 -1007l119 753l41 254h182l-299 -1843h-178z" />
<glyph unicode="W" horiz-adv-x="890" d="M16 166l88 1677h189l-86 -1653h90l86 1653h184l-86 -1655h94l87 1655h182l-2 -28q-20 -412 -42 -818.5t-44 -818.5l-11 -178h-589q-78 6 -111 43q-29 33 -29 105v18z" />
<glyph unicode="X" horiz-adv-x="608" d="M8 0q18 84 34.5 165t35.5 163q16 72 33.5 158.5t36 179t37 180.5t32.5 158l-37 253q-35 291 -76 586h179l47 -422l94 422h178q-4 -23 -18.5 -81t-31.5 -135t-38.5 -165t-41 -174t-37 -160.5t-27.5 -123.5l96 -1004h-174q-16 119 -27.5 225.5t-23.5 198.5 q-23 -98 -46.5 -210t-46.5 -214h-178z" />
<glyph unicode="Y" d="M8 0q18 84 35.5 166t34.5 164l147 674l-119 839h179l51 -413l86 413h186q-4 -23 -12 -56.5t-16.5 -68.5t-15.5 -67.5t-13 -55.5l-137 -573l-138 -625l-88 -397h-180z" />
<glyph unicode="Z" horiz-adv-x="618" d="M8 0l338 1659h-248l11 184h462l-342 -1659h246l-10 -184h-457z" />
<glyph unicode="[" horiz-adv-x="446" d="M51 -195l119 2253h283l-11 -194h-84l-14 -252l-16 -314l-33 -641l-12 -233l-23 -424h84l-10 -195h-283z" />
<glyph unicode="\" horiz-adv-x="577" d="M104 1843h187l18 -186q43 -420 84 -830.5t82 -826.5h-182l-19 184q-43 418 -86 830.5t-84 828.5z" />
<glyph unicode="]" horiz-adv-x="473" d="M51 -195l10 195h84l23 424l12 233l33 641l16 314l15 252h-84l10 194h283l-119 -2253h-283z" />
<glyph unicode="_" horiz-adv-x="755" d="M0 -143l8 143h606l-8 -143h-606z" />
<glyph unicode="`" horiz-adv-x="391" d="M164 2324h186l33 -364h-182z" />
<glyph unicode="a" d="M8 0l4 72l84 1603q4 86 46 127t130 41h295l-84 -1601l-12 -242h-184l53 1001h-92l-53 -1001h-187zM260 1184h82l25 475h-82z" />
<glyph unicode="b" horiz-adv-x="608" d="M8 0l96 1843h338q45 -2 77 -41t34 -84h2l-25 -475q-4 -57 -36.5 -91t-81.5 -50q20 -16 41.5 -29.5t35.5 -34.5q12 -23 18.5 -50t4.5 -54q-2 -53 -6 -140t-9 -192.5t-11.5 -220.5t-12.5 -223q-4 -72 -47 -115t-115 -43h-303zM201 193h86l43 811h-84l-15 -242zM256 1192h82 l22 467h-81l-17 -311z" />
<glyph unicode="c" d="M18 156q37 770 80 1540q4 72 46 110.5t112 38.5h170q55 -1 95 -35q38 -33 38 -83v-5l-18 -366h-183l15 303h-88l-76 -1469h86l29 572h186l-31 -604q-6 -74 -48 -116t-114 -42h-157q-72 0 -109 42q-33 38 -33 100v14z" />
<glyph unicode="d" horiz-adv-x="608" d="M8 0l96 1843h340q61 0 87 -48q23 -42 23 -93q0 -8 -1 -16l-72 -1379q-2 -43 -4 -85t-4 -85q-6 -49 -42 -93t-83 -44h-340zM205 190h82l75 1467h-81z" />
<glyph unicode="e" horiz-adv-x="428" d="M8 0l96 1843h316l-10 -184h-127l-25 -473h129l-8 -182h-133l-8 -179l-33 -647h131l-10 -178h-318z" />
<glyph unicode="f" horiz-adv-x="544" d="M8 0l96 1843h435l-11 -184h-245l-25 -477h203l-8 -178h-207l-53 -1004h-185z" />
<glyph unicode="g" d="M16 158l37 721l43 807q4 78 47 117.5t119 39.5h170q55 -2 91 -39t36 -86q-4 -94 -9 -179t-9 -187h-185l15 307h-86l-76 -1475h86l35 656h-41l10 164h221l-53 -1004h-309q-92 0 -118 43q-24 40 -24 105v10z" />
<glyph unicode="h" horiz-adv-x="583" d="M8 0l96 1843h181l-35 -661h90l35 661h182l-96 -1843h-178l53 1004h-92l-54 -1004h-182z" />
<glyph unicode="i" horiz-adv-x="286" d="M8 0l96 1843h187l-96 -1843h-187z" />
<glyph unicode="j" horiz-adv-x="444" d="M8 0l8 174q12 0 24.5 1t27.5 3q78 4 82 82l81 1583h183l-19 -350q-16 -305 -31.5 -606t-27.5 -606q-6 -160 -95 -231q-69 -54 -172 -54q-29 0 -61 4z" />
<glyph unicode="k" horiz-adv-x="618" d="M8 0q4 61 8 150.5t10.5 192.5t12.5 215t12 215.5t11.5 192.5t9.5 150l37 727h182l-29 -561q16 76 28.5 125t20.5 85t14.5 64.5t14.5 66.5t19.5 89t27.5 131h184q-37 -168 -71.5 -335t-71.5 -332l-6 -60v-61q4 -57 7 -141.5t8 -183.5t9.5 -204.5t9.5 -204t8 -182.5t7 -139 h-182q-4 111 -8.5 231.5t-10.5 243.5t-13 243t-13 228q-2 -45 -6.5 -120.5t-9.5 -165t-11 -185.5t-11 -186t-9 -166t-7 -123h-182z" />
<glyph unicode="l" horiz-adv-x="403" d="M8 0l96 1843h179l-86 -1665h135l-10 -178h-314z" />
<glyph unicode="m" horiz-adv-x="890" d="M10 0l96 1843h590q80 -2 112 -41q28 -35 28 -106v-19q-20 -401 -43 -812.5t-48 -864.5h-186l86 1659h-90l-86 -1659h-186l86 1659h-93l-86 -1659h-180z" />
<glyph unicode="n" d="M8 0l96 1843h295q88 0 126 -41q34 -37 34 -111v-16l-88 -1675h-186l86 1659h-92l-86 -1659h-185z" />
<glyph unicode="o" horiz-adv-x="612" d="M16 158q8 195 19.5 386t21.5 386q10 188 18.5 374.5t20.5 378.5q4 86 45 124t125 38h146q145 0 145 -142v-13l-45 -863l-35 -665q-8 -162 -168 -162h-145q-148 2 -148 143v15zM207 190h82l76 1469h-82z" />
<glyph unicode="p" horiz-adv-x="589" d="M8 0l96 1843h340q51 -2 82 -40q29 -36 29 -85v-6q-16 -377 -39 -749q-4 -55 -47 -94.5t-98 -41.5q-22 -1 -44 -1h-22q-33 1 -74 1l-43 -827h-180zM248 1004h82l32 655h-81z" />
<glyph unicode="q" horiz-adv-x="626" d="M16 154l80 1527q4 86 44 124t124 38h146q147 0 147 -135v-16l-45 -869l-35 -676l70 -63l-113 -125l-57 49q-29 -8 -87.5 -8h-115.5q-92 0 -127 36q-31 32 -31 102v16zM207 184h82l76 1475h-82z" />
<glyph unicode="r" horiz-adv-x="612" d="M8 0l31 588l65 1255h181h133q78 1 110 -35q31 -33 31 -91v-7l-29 -500q-2 -29 -12 -46t-26.5 -29.5t-35 -20.5t-36.5 -18q97 -50 97 -161q0 -10 -1 -22l-2 -34l-41 -809l-4 -70h-184l45 879l8 125h-92l-53 -1004h-185zM260 1194h82l23 465h-82z" />
<glyph unicode="s" horiz-adv-x="577" d="M20 123l3 33h-3l31 604h187l-29 -572h86l27 574q4 49 5 77.5t-4.5 48t-17.5 37t-37 46.5q-72 84 -110.5 131t-56 77.5t-19.5 53t0 57.5l20 402q4 72 46 111.5t112 39.5h170q55 1 95 -35q38 -34 38 -85v-5l-18 -366h-183l15 307h-88l-17 -273v-58t10.5 -42.5t33 -50.5 t65.5 -80q53 -66 83 -104.5t43 -73.5t13 -76t-4 -113l-31 -536l-4 -102q-4 -72 -46 -111t-111 -39h-170q-55 0 -95.5 35t-38.5 88z" />
<glyph unicode="t" horiz-adv-x="563" d="M94 1659l10 184h453l-10 -184h-131l-86 -1659h-187l86 1659h-135z" />
<glyph unicode="u" horiz-adv-x="604" d="M18 139l91 1704h178l-86 -1653h88l86 1653h182l-88 -1681q-4 -82 -43 -121t-119 -39q-40 -2 -80 -2l-80 2q-61 2 -97 39q-32 33 -32 86v12z" />
<glyph unicode="v" horiz-adv-x="704" d="M104 1843h183q14 -250 25.5 -501.5t23.5 -505.5l119 753l41 254h182l-299 -1843h-178q-23 465 -47.5 922.5t-49.5 920.5z" />
<glyph unicode="w" horiz-adv-x="890" d="M16 166l88 1677h189l-86 -1653h90l86 1653h184l-86 -1655h94l87 1655h182l-2 -28q-20 -412 -42 -818.5t-44 -818.5l-11 -178h-589q-78 0 -111 40q-29 36 -29 108v18z" />
<glyph unicode="x" horiz-adv-x="608" d="M8 0q18 84 34.5 165t35.5 163q16 72 33.5 158.5t36 179t37 180.5t32.5 158l-37 253q-35 291 -76 586h179l47 -422l94 422h178q-4 -23 -18.5 -81t-31.5 -135t-38.5 -165t-41 -174t-37 -160.5t-27.5 -123.5l96 -1004h-174q-16 119 -27.5 225.5t-23.5 198.5 q-23 -98 -46.5 -210t-46.5 -214h-178z" />
<glyph unicode="y" d="M8 0q18 84 35.5 166t34.5 164l147 674l-119 839h179l51 -413l86 413h186q-4 -23 -12 -56.5t-16.5 -68.5t-15.5 -67.5t-13 -55.5l-137 -573l-138 -625l-88 -397h-180z" />
<glyph unicode="z" horiz-adv-x="618" d="M8 0l338 1659h-248l11 184h462l-342 -1659h246l-10 -184h-457z" />
<glyph unicode="{" horiz-adv-x="612" d="M78 930l10 209h160l24 469l15 280q6 88 48 128t130 40h113l-11 -194h-98l-35 -584l-8 -148q-2 -27 -15.5 -44t-32 -28t-39 -18.5t-38.5 -17.5q43 -14 65.5 -27.5t34 -27t13.5 -25.5t2 -22l-49 -922h102l-10 -195h-119q-162 2 -154 160l25 457l20 387l5 123h-158z" />
<glyph unicode="}" horiz-adv-x="591" d="M-2 -195l10 195h103l39 788l8 136q0 10 3 22t15 25.5t37 27t68 27.5q-16 10 -37 17.5t-38.5 18.5t-28.5 28.5t-9 44.5l8 147l27 584h-97l11 194h112q86 0 124 -40t32 -128q-2 -72 -5 -140.5t-7 -139.5l-21 -357l-6 -110h162l-10 -211h-160l-27 -510q-6 -115 -12 -228.5 t-14 -230.5q-8 -158 -168 -160h-119z" />
<glyph unicode="&#xa1;" horiz-adv-x="339" d="M8 0l88 1548h178l-77 -1548h-189zM96 1657h187l10 186h-187z" />
<glyph unicode="&#xad;" horiz-adv-x="509" d="M59 1004l9 172h360l-8 -172h-361z" />
<glyph unicode="&#xaf;" horiz-adv-x="1228" />
<glyph unicode="&#xb4;" horiz-adv-x="391" d="M195 1960l69 364h187l-74 -364h-182z" />
<glyph unicode="&#xbf;" horiz-adv-x="632" d="M37 152l20 401q2 35 6.5 57.5t25 53t64.5 77.5t123 131q29 29 44.5 54.5t24.5 89t16.5 187.5t17.5 347h190l-24 -495q-4 -72 -8.5 -113t-20.5 -76t-50 -73.5t-95 -104.5q-47 -51 -73 -79.5t-38 -50t-15 -43t-5 -58.5l-13 -273h88l17 308h182l-20 -367q-2 -53 -46.5 -89 t-99.5 -36h-170q-70 0 -107.5 40t-33.5 112zM383 1655l10 188h193l-11 -188h-192z" />
<glyph unicode="&#xc0;" d="M8 0l4 72l84 1603q4 86 46 127t130 41h295l-84 -1601l-12 -242h-184l53 1001h-92l-53 -1001h-187zM260 1184h82l25 475h-82zM350 2300h187l32 -365h-182z" />
<glyph unicode="&#xc1;" horiz-adv-x="686" d="M8 0l4 72l84 1603q4 86 46 127t130 41h295l-84 -1601l-12 -242h-184l53 1001h-92l-53 -1001h-187zM260 1184h82l25 475h-82zM389 1960l70 364h186l-74 -364h-182z" />
<glyph unicode="&#xc2;" horiz-adv-x="667" d="M8 0l4 72l84 1603q4 86 46 127t130 41h295l-84 -1601l-12 -242h-184l53 1001h-92l-53 -1001h-187zM117 1960h143l92 104l82 -104h139l-213 276zM260 1184h82l25 475h-82z" />
<glyph unicode="&#xc4;" d="M8 0l4 72l84 1603q4 86 46 127t130 41h295l-84 -1601l-12 -242h-184l53 1001h-92l-53 -1001h-187zM213 2048q0 -29 20.5 -49.5t51.5 -20.5t53 20.5t22 49.5q2 29 -18 50.5t-51 21.5t-53.5 -21.5t-24.5 -50.5zM260 1184h82l25 475h-82zM422 2048q0 -29 20.5 -49.5 t51.5 -20.5t53 20.5t22 49.5q2 29 -18.5 50.5t-50.5 21.5q-31 0 -53.5 -21.5t-24.5 -50.5z" />
<glyph unicode="&#xc6;" horiz-adv-x="825" d="M8 0l4 72l84 1603q4 86 46 127t130 41h525l-11 -184h-127l-24 -473h129l-8 -182h-133l-9 -179l-32 -647h131l-11 -178h-415l53 1001h-92l-53 -1001h-187zM260 1184h82l25 475h-82z" />
<glyph unicode="&#xc8;" horiz-adv-x="468" d="M8 0l96 1843h316l-10 -184h-127l-25 -473h129l-8 -182h-133l-8 -179l-33 -647h131l-10 -178h-318zM205 2300h186l33 -365h-182z" />
<glyph unicode="&#xc9;" horiz-adv-x="501" d="M8 0l96 1843h316l-10 -184h-127l-25 -473h129l-8 -182h-133l-8 -179l-33 -647h131l-10 -178h-318zM244 1966l71 365h187l-76 -365h-182z" />
<glyph unicode="&#xca;" horiz-adv-x="583" d="M98 0l97 1843h315l-10 -184h-127l-25 -473h129l-8 -182h-133l-8 -179l-33 -647h131l-10 -178h-318zM127 1960h143l92 104l82 -104h140l-213 276z" />
<glyph unicode="&#xcb;" horiz-adv-x="491" d="M8 0l96 1843h316l-10 -184h-127l-25 -473h129l-8 -182h-133l-8 -179l-33 -647h131l-10 -178h-318zM98 2048q0 -29 20.5 -49.5t51.5 -20.5t53.5 20.5t22.5 49.5q2 29 -18.5 50.5t-51.5 21.5t-53.5 -21.5t-24.5 -50.5zM307 2048q0 -29 20.5 -49.5t51.5 -20.5t53.5 20.5 t22.5 49.5q2 29 -18.5 50.5t-51.5 21.5t-53.5 -21.5t-24.5 -50.5z" />
<glyph unicode="&#xcc;" horiz-adv-x="428" d="M119 0l96 1843h186l-96 -1843h-186zM182 2324h187l32 -364h-182z" />
<glyph unicode="&#xcd;" horiz-adv-x="374" d="M8 0l96 1843h187l-96 -1843h-187zM117 1960l69 364h187l-74 -364h-182z" />
<glyph unicode="&#xce;" horiz-adv-x="563" d="M127 1960h143l92 104l82 -104h140l-213 276zM164 0l96 1843h186l-96 -1843h-186z" />
<glyph unicode="&#xcf;" horiz-adv-x="520" d="M78 0l96 1843h186l-96 -1843h-186zM96 2048q0 -29 20.5 -49.5t51.5 -20.5t53.5 20.5t22.5 49.5q2 29 -18.5 50.5t-51.5 21.5t-53.5 -21.5t-24.5 -50.5zM305 2048q0 -29 20.5 -49.5t51.5 -20.5t53.5 20.5t22.5 49.5q2 29 -18.5 50.5t-51.5 21.5t-53.5 -21.5t-24.5 -50.5z " />
<glyph unicode="&#xd0;" horiz-adv-x="608" d="M8 0l96 1843h340q61 0 87 -48t22 -109l-72 -1379q-2 -43 -4 -85t-4 -85q-6 -49 -42 -93t-83 -44h-340zM59 1004h361l8 172h-360zM205 190h82l75 1467h-81z" />
<glyph unicode="&#xd2;" horiz-adv-x="612" d="M16 158q8 195 19.5 386t21.5 386q10 188 18.5 374.5t20.5 378.5q4 86 45 124t125 38h146q152 0 145 -155l-45 -863l-35 -665q-8 -162 -168 -162h-145q-156 2 -148 158zM207 190h82l76 1469h-82zM209 2324h186l33 -364h-182z" />
<glyph unicode="&#xd3;" horiz-adv-x="612" d="M16 158q8 195 19.5 386t21.5 386q10 188 18.5 374.5t20.5 378.5q4 86 45 124t125 38h146q152 0 145 -155l-45 -863l-35 -665q-8 -162 -168 -162h-145q-156 2 -148 158zM207 190h82l76 1469h-82zM254 1960l70 364h186l-74 -364h-182z" />
<glyph unicode="&#xd4;" horiz-adv-x="612" d="M16 158q8 195 19.5 386t21.5 386q10 188 18.5 374.5t20.5 378.5q4 86 45 124t125 38h146q152 0 145 -155l-45 -863l-35 -665q-8 -162 -168 -162h-145q-156 2 -148 158zM113 1960h143l92 104l82 -104h139l-213 276zM207 190h82l76 1469h-82z" />
<glyph unicode="&#xd6;" horiz-adv-x="612" d="M16 158q8 195 19.5 386t21.5 386q10 188 18.5 374.5t20.5 378.5q4 86 45 124t125 38h146q152 0 145 -155l-45 -863l-35 -665q-8 -162 -168 -162h-145q-156 2 -148 158zM160 2048q0 -29 20 -49.5t51 -20.5t53.5 20.5t22.5 49.5q2 29 -18.5 50.5t-50.5 21.5 q-31 0 -53.5 -21.5t-24.5 -50.5zM207 190h82l76 1469h-82zM369 2048q0 -29 20 -49.5t51 -20.5t53.5 20.5t22.5 49.5q2 29 -18.5 50.5t-51.5 21.5t-53 -21.5t-24 -50.5z" />
<glyph unicode="&#xd8;" horiz-adv-x="612" d="M8 0l17 82q-10 31 -9 76q8 195 19.5 386t21.5 386q10 188 18.5 374.5t20.5 378.5q4 86 45 124t125 38h146q23 0 32 -2h127l-18 -94q2 -14 4 -28.5t0 -30.5l-45 -863l-35 -665q-8 -162 -168 -162h-301zM229 190h60l20 377q-20 -94 -39.5 -188t-40.5 -189zM262 1237 q20 104 42 208.5t42 211.5v2h-63z" />
<glyph unicode="&#xd9;" horiz-adv-x="604" d="M18 139l91 1704h178l-86 -1653h88l86 1653h182l-88 -1681q-4 -82 -43 -121t-119 -39q-80 -4 -160 0q-61 2 -97 39t-32 98zM207 2324h186l33 -364h-182z" />
<glyph unicode="&#xda;" horiz-adv-x="604" d="M18 139l91 1704h178l-86 -1653h88l86 1653h182l-88 -1681q-4 -82 -43 -121t-119 -39q-80 -4 -160 0q-61 2 -97 39t-32 98zM250 1960l69 364h187l-74 -364h-182z" />
<glyph unicode="&#xdb;" horiz-adv-x="604" d="M18 139l91 1704h178l-86 -1653h88l86 1653h182l-88 -1681q-4 -82 -43 -121t-119 -39q-80 -4 -160 0q-61 2 -97 39t-32 98zM104 1960h144l92 104l82 -104h139l-213 276z" />
<glyph unicode="&#xdc;" horiz-adv-x="606" d="M18 139l91 1704h178l-86 -1653h88l86 1653h182l-88 -1681q-4 -82 -43 -121t-119 -39q-80 -4 -160 0q-61 2 -97 39t-32 98zM156 2048q0 -29 20 -49.5t51 -20.5t53.5 20.5t22.5 49.5q2 29 -18.5 50.5t-51.5 21.5t-53 -21.5t-24 -50.5zM365 2048q0 -29 20 -49.5t51 -20.5 t53.5 20.5t22.5 49.5q2 29 -18.5 50.5t-51.5 21.5t-53 -21.5t-24 -50.5z" />
<glyph unicode="&#xdd;" d="M8 0q18 84 35.5 166t34.5 164l147 674l-119 839h179l51 -413l86 413h186q-4 -23 -12 -56.5t-16.5 -68.5t-15.5 -67.5t-13 -55.5l-137 -573l-138 -625l-88 -397h-180zM270 1960l70 364h186l-73 -364h-183z" />
<glyph unicode="&#xe0;" d="M8 0l4 72l84 1603q4 86 46 127t130 41h295l-84 -1601l-12 -242h-184l53 1001h-92l-53 -1001h-187zM260 1184h82l25 475h-82zM350 2300h187l32 -365h-182z" />
<glyph unicode="&#xe1;" horiz-adv-x="667" d="M8 0l4 72l84 1603q4 86 46 127t130 41h295l-84 -1601l-12 -242h-184l53 1001h-92l-53 -1001h-187zM260 1184h82l25 475h-82zM389 1960l70 364h186l-74 -364h-182z" />
<glyph unicode="&#xe2;" d="M8 0l4 72l84 1603q4 86 46 127t130 41h295l-84 -1601l-12 -242h-184l53 1001h-92l-53 -1001h-187zM117 1960h143l92 104l82 -104h139l-213 276zM260 1184h82l25 475h-82z" />
<glyph unicode="&#xe4;" horiz-adv-x="507" d="M25 0l96 1843h315l-10 -184h-127l-25 -473h129l-8 -182h-133l-8 -179l-33 -647h131l-10 -178h-317zM115 2048q0 -29 20 -49.5t51 -20.5t53.5 20.5t22.5 49.5q2 29 -18.5 50.5t-50.5 21.5q-31 0 -53.5 -21.5t-24.5 -50.5zM324 2048q0 -29 20 -49.5t51 -20.5t53.5 20.5 t22.5 49.5q2 29 -18.5 50.5t-51.5 21.5t-53 -21.5t-24 -50.5z" />
<glyph unicode="&#xe6;" horiz-adv-x="825" d="M8 0l4 72l84 1603q4 86 46 127t130 41h525l-11 -184h-127l-24 -473h129l-8 -182h-133l-9 -179l-32 -647h131l-11 -178h-415l53 1001h-92l-53 -1001h-187zM260 1184h82l25 475h-82z" />
<glyph unicode="&#xe8;" horiz-adv-x="468" d="M8 0l96 1843h316l-10 -184h-127l-25 -473h129l-8 -182h-133l-8 -179l-33 -647h131l-10 -178h-318zM205 2300h186l33 -365h-182z" />
<glyph unicode="&#xe9;" horiz-adv-x="481" d="M8 0l96 1843h316l-10 -184h-127l-25 -473h129l-8 -182h-133l-8 -179l-33 -647h131l-10 -178h-318zM244 1966l71 365h187l-76 -365h-182z" />
<glyph unicode="&#xea;" horiz-adv-x="624" d="M139 0l97 1843h315l-10 -184h-127l-25 -473h129l-8 -182h-133l-8 -179l-33 -647h131l-10 -178h-318zM168 1960h143l92 104l82 -104h140l-213 276z" />
<glyph unicode="&#xeb;" horiz-adv-x="471" d="M8 0l96 1843h316l-10 -184h-127l-25 -473h129l-8 -182h-133l-8 -179l-33 -647h131l-10 -178h-318zM98 2048q0 -29 20.5 -49.5t51.5 -20.5t53.5 20.5t22.5 49.5q2 29 -18.5 50.5t-51.5 21.5t-53.5 -21.5t-24.5 -50.5zM307 2048q0 -29 20.5 -49.5t51.5 -20.5t53.5 20.5 t22.5 49.5q2 29 -18.5 50.5t-51.5 21.5t-53.5 -21.5t-24.5 -50.5z" />
<glyph unicode="&#xec;" horiz-adv-x="428" d="M119 0l96 1843h186l-96 -1843h-186zM182 2324h187l32 -364h-182z" />
<glyph unicode="&#xed;" horiz-adv-x="348" d="M10 0l96 1843h187l-96 -1843h-187zM111 1960l69 364h187l-74 -364h-182z" />
<glyph unicode="&#xee;" horiz-adv-x="563" d="M127 1960h143l92 104l82 -104h140l-213 276zM164 0l96 1843h186l-96 -1843h-186z" />
<glyph unicode="&#xef;" horiz-adv-x="468" d="M78 0l96 1843h186l-96 -1843h-186zM96 2048q0 -29 20.5 -49.5t51.5 -20.5t53.5 20.5t22.5 49.5q2 29 -18.5 50.5t-51.5 21.5t-53.5 -21.5t-24.5 -50.5zM305 2048q0 -29 20.5 -49.5t51.5 -20.5t53.5 20.5t22.5 49.5q2 29 -18.5 50.5t-51.5 21.5t-53.5 -21.5t-24.5 -50.5z " />
<glyph unicode="&#xf2;" horiz-adv-x="612" d="M16 158q8 195 19.5 386t21.5 386q10 188 18.5 374.5t20.5 378.5q4 86 45 124t125 38h146q152 0 145 -155l-45 -863l-35 -665q-8 -162 -168 -162h-145q-156 2 -148 158zM207 190h82l76 1469h-82zM209 2324h186l33 -364h-182z" />
<glyph unicode="&#xf3;" horiz-adv-x="667" d="M16 158q8 195 19.5 386t21.5 386q10 188 18.5 374.5t20.5 378.5q4 86 45 124t125 38h146q152 0 145 -155l-45 -863l-35 -665q-8 -162 -168 -162h-145q-156 2 -148 158zM207 190h82l76 1469h-82zM254 1960l70 364h186l-74 -364h-182z" />
<glyph unicode="&#xf4;" horiz-adv-x="612" d="M16 158q8 195 19.5 386t21.5 386q10 188 18.5 374.5t20.5 378.5q4 86 45 124t125 38h146q152 0 145 -155l-45 -863l-35 -665q-8 -162 -168 -162h-145q-156 2 -148 158zM113 1960h143l92 104l82 -104h139l-213 276zM207 190h82l76 1469h-82z" />
<glyph unicode="&#xf6;" horiz-adv-x="612" d="M16 158q8 195 19.5 386t21.5 386q10 188 18.5 374.5t20.5 378.5q4 86 45 124t125 38h146q152 0 145 -155l-45 -863l-35 -665q-8 -162 -168 -162h-145q-156 2 -148 158zM160 2048q0 -29 20 -49.5t51 -20.5t53.5 20.5t22.5 49.5q2 29 -18.5 50.5t-50.5 21.5 q-31 0 -53.5 -21.5t-24.5 -50.5zM207 190h82l76 1469h-82zM369 2048q0 -29 20 -49.5t51 -20.5t53.5 20.5t22.5 49.5q2 29 -18.5 50.5t-51.5 21.5t-53 -21.5t-24 -50.5z" />
<glyph unicode="&#xf8;" horiz-adv-x="612" d="M8 0l17 82q-10 31 -9 76q8 195 19.5 386t21.5 386q10 188 18.5 374.5t20.5 378.5q4 86 45 124t125 38h146q23 0 32 -2h127l-18 -94q2 -14 4 -28.5t0 -30.5l-45 -863l-35 -665q-8 -162 -168 -162h-301zM229 190h60l20 377q-20 -94 -39.5 -188t-40.5 -189zM262 1237 q20 104 42 208.5t42 211.5v2h-63z" />
<glyph unicode="&#xf9;" horiz-adv-x="604" d="M18 139l91 1704h178l-86 -1653h88l86 1653h182l-88 -1681q-4 -82 -43 -121t-119 -39q-80 -4 -160 0q-61 2 -97 39t-32 98zM207 2324h186l33 -364h-182z" />
<glyph unicode="&#xfa;" horiz-adv-x="604" d="M18 139l91 1704h178l-86 -1653h88l86 1653h182l-88 -1681q-4 -82 -43 -121t-119 -39q-80 -4 -160 0q-61 2 -97 39t-32 98zM250 1960l69 364h187l-74 -364h-182z" />
<glyph unicode="&#xfb;" horiz-adv-x="612" d="M16 158q8 195 19.5 386t21.5 386q10 188 18.5 374.5t20.5 378.5q4 86 45 124t125 38h146q152 0 145 -155l-45 -863l-35 -665q-8 -162 -168 -162h-145q-156 2 -148 158zM113 1960h143l92 104l82 -104h139l-213 276zM207 190h82l76 1469h-82z" />
<glyph unicode="&#xfc;" horiz-adv-x="606" d="M18 139l91 1704h178l-86 -1653h88l86 1653h182l-88 -1681q-4 -82 -43 -121t-119 -39q-80 -4 -160 0q-61 2 -97 39t-32 98zM156 2048q0 -29 20 -49.5t51 -20.5t53.5 20.5t22.5 49.5q2 29 -18.5 50.5t-51.5 21.5t-53 -21.5t-24 -50.5zM365 2048q0 -29 20 -49.5t51 -20.5 t53.5 20.5t22.5 49.5q2 29 -18.5 50.5t-51.5 21.5t-53 -21.5t-24 -50.5z" />
<glyph unicode="&#xfd;" d="M8 0q18 84 35.5 166t34.5 164l147 674l-119 839h179l51 -413l86 413h186q-4 -23 -12 -56.5t-16.5 -68.5t-15.5 -67.5t-13 -55.5l-137 -573l-138 -625l-88 -397h-180zM270 1960l70 364h186l-73 -364h-183z" />
<glyph unicode="&#xff;" d="M8 0q18 84 35.5 166t34.5 164l147 674l-119 839h179l51 -413l86 413h186q-4 -23 -12 -56.5t-16.5 -68.5t-15.5 -67.5t-13 -55.5l-137 -573l-138 -625l-88 -397h-180zM190 2048q0 -29 20.5 -49.5t51.5 -20.5t53.5 20.5t22.5 49.5q2 29 -18.5 50.5t-51.5 21.5t-53 -21.5 t-25 -50.5zM399 2048q0 -29 20.5 -49.5t51.5 -20.5t53.5 20.5t22.5 49.5q2 29 -18.5 50.5t-51.5 21.5t-53.5 -21.5t-24.5 -50.5z" />
<glyph unicode="&#x152;" horiz-adv-x="1081" d="M16 158q8 195 19.5 386t21.5 386q10 188 18.5 374.5t20.5 378.5q4 86 45 124t125 38h146q152 0 145 -155l-45 -863l-35 -665q-8 -162 -168 -162h-145q-156 2 -148 158zM207 190h82l76 1469h-82zM621 0l96 1843h315l-10 -184h-127l-25 -473h129l-8 -182h-133l-8 -179 l-33 -647h131l-10 -178h-317z" />
<glyph unicode="&#x153;" horiz-adv-x="1040" d="M16 158q8 195 19.5 386t21.5 386q10 188 18.5 374.5t20.5 378.5q4 86 45 124t125 38h146q152 0 145 -155l-45 -863l-35 -665q-8 -162 -168 -162h-145q-156 2 -148 158zM207 190h82l76 1469h-82zM621 0l96 1843h315l-10 -184h-127l-25 -473h129l-8 -182h-133l-8 -179 l-33 -647h131l-10 -178h-317z" />
<glyph unicode="&#x178;" d="M8 0q18 84 35.5 166t34.5 164l147 674l-119 839h179l51 -413l86 413h186q-4 -23 -12 -56.5t-16.5 -68.5t-15.5 -67.5t-13 -55.5l-137 -573l-138 -625l-88 -397h-180zM190 2048q0 -29 20.5 -49.5t51.5 -20.5t53.5 20.5t22.5 49.5q2 29 -18.5 50.5t-51.5 21.5t-53 -21.5 t-25 -50.5zM399 2048q0 -29 20.5 -49.5t51.5 -20.5t53.5 20.5t22.5 49.5q2 29 -18.5 50.5t-51.5 21.5t-53.5 -21.5t-24.5 -50.5z" />
<glyph unicode="&#x2c6;" d="M117 1960l243 276l213 -276h-139l-82 104l-92 -104h-143z" />
<glyph unicode="&#x2000;" horiz-adv-x="1165" />
<glyph unicode="&#x2001;" horiz-adv-x="2331" />
<glyph unicode="&#x2002;" horiz-adv-x="1165" />
<glyph unicode="&#x2003;" horiz-adv-x="2331" />
<glyph unicode="&#x2004;" horiz-adv-x="777" />
<glyph unicode="&#x2005;" horiz-adv-x="582" />
<glyph unicode="&#x2006;" horiz-adv-x="388" />
<glyph unicode="&#x2007;" horiz-adv-x="388" />
<glyph unicode="&#x2008;" horiz-adv-x="291" />
<glyph unicode="&#x2009;" horiz-adv-x="466" />
<glyph unicode="&#x200a;" horiz-adv-x="129" />
<glyph unicode="&#x2010;" horiz-adv-x="509" d="M59 1004l9 172h360l-8 -172h-361z" />
<glyph unicode="&#x2011;" horiz-adv-x="509" d="M59 1004l9 172h360l-8 -172h-361z" />
<glyph unicode="&#x2012;" horiz-adv-x="509" d="M59 1004l9 172h360l-8 -172h-361z" />
<glyph unicode="&#x2013;" horiz-adv-x="575" d="M59 1004l9 172h426l-9 -172h-426z" />
<glyph unicode="&#x2014;" horiz-adv-x="653" d="M59 1004l9 172h503l-8 -172h-504z" />
<glyph unicode="&#x2018;" horiz-adv-x="337" d="M90 1518l6 145q0 8 1 19.5t4 31t8.5 50t15.5 79.5h113q-23 -92 -25 -134t29 -46l41 -2l-9 -143h-184z" />
<glyph unicode="&#x2019;" horiz-adv-x="337" d="M98 1702l6 141h187l-6 -141q-2 -8 -2 -19.5t-3.5 -31t-8.5 -50t-15 -79.5h-113q23 92 25 135t-29 45h-41z" />
<glyph unicode="&#x201a;" horiz-adv-x="1228" d="M6 0l8 143h187l-8 -143q0 -8 -1.5 -19.5t-4.5 -31t-8 -50t-15 -79.5h-113q23 92 26 135t-30 45h-41z" />
<glyph unicode="&#x201c;" horiz-adv-x="559" d="M88 1520l8 143q0 8 1 19.5t4 31t8.5 50t15.5 79.5h113q-23 -92 -25 -134t29 -46h41l-9 -143h-186zM309 1520l8 143q0 8 1 19.5t3.5 31t8.5 50t14 79.5h113q-23 -92 -25 -135t31 -45h41l-8 -143h-187z" />
<glyph unicode="&#x201d;" horiz-adv-x="538" d="M96 1700l8 143h187l-8 -143q0 -8 -1 -19.5t-3.5 -31t-7.5 -50t-15 -79.5h-113v2q20 88 25 129q0 47 -31 49h-41zM317 1700l9 143h186l-8 -143q0 -8 -1 -19.5t-3 -31t-8.5 -50t-16.5 -79.5h-113q23 92 26 134t-30 46h-41z" />
<glyph unicode="&#x201e;" horiz-adv-x="335" d="M6 0l8 143h187l-8 -143q0 -8 -1.5 -19.5t-4.5 -31t-8 -50t-15 -79.5h-113q23 92 26 135t-30 45h-41z" />
<glyph unicode="&#x2026;" horiz-adv-x="905" d="M10 0l8 174h175l-9 -174h-174zM307 0l8 174h179l-9 -174h-178zM616 0l9 174h166l-9 -174h-166z" />
<glyph unicode="&#x202f;" horiz-adv-x="466" />
<glyph unicode="&#x205f;" horiz-adv-x="582" />
<glyph unicode="&#x25fc;" horiz-adv-x="1843" d="M0 0v1843h1843v-1843h-1843z" />
</font>
</defs>
</svg>
