<?xml version="1.0" standalone="no"?>
<!DOCTYPE svg PUBLIC "-//W3C//DTD SVG 1.1//EN" "http://www.w3.org/Graphics/SVG/1.1/DTD/svg11.dtd" >
<svg xmlns="http://www.w3.org/2000/svg" xmlns:xlink="http://www.w3.org/1999/xlink" version="1.1">
<metadata></metadata>
<defs>
<font id="saccosemibold_condensed" horiz-adv-x="663" >
<font-face units-per-em="2048" ascent="1638" descent="-410" />
<missing-glyph horiz-adv-x="309" />
<glyph horiz-adv-x="0" />
<glyph horiz-adv-x="0" />
<glyph unicode="&#xd;" horiz-adv-x="512" />
<glyph unicode=" "  horiz-adv-x="309" />
<glyph unicode="&#x09;" horiz-adv-x="309" />
<glyph unicode="&#xa0;" horiz-adv-x="309" />
<glyph unicode="!" horiz-adv-x="344" d="M8 0h203v186h-203v-186zM8 1843h205l-8 -1548h-193z" />
<glyph unicode="&#x22;" horiz-adv-x="559" d="M8 1700v143h203v-143q0 -8 -1 -19.5t-3 -31t-5 -50t-12 -79.5h-122q18 92 19 135t-34 45h-45zM248 1700v143h201v-143v-19.5t-2.5 -31t-7.5 -50t-13 -79.5h-121q18 92 19.5 134t-31.5 46h-45z" />
<glyph unicode="#" horiz-adv-x="884" d="M29 733l10 189h74l8 180h-68l10 188h70l31 553h194l-30 -553h102l31 551h192l-32 -551h88l-13 -188h-86l-8 -180h82l-12 -189h-82l-41 -733h-193l41 733h-98l-43 -733h-197l43 733h-73zM307 922h103l8 180h-103z" />
<glyph unicode="&#x26;" horiz-adv-x="686" d="M18 684v242q0 10 1 17t4 15q6 12 34 33q14 10 35 18.5t49 16.5q-4 4 -13 7t-24 9q-25 8 -43 19q-10 6 -28 24q-12 18 -13 43v568q0 92 54.5 119.5t173.5 27.5q135 0 188 -31.5t53 -109.5l3 -352h-185v309h-104v-522h106v80h183v-78h71v-203h-71q0 -119 -1.5 -255 t-1.5 -254v-199v-91q0 -59 -34.5 -97t-96.5 -38l-106 -2q-127 -4 -179.5 24.5t-52.5 125.5zM205 174h104v762h-104v-762z" />
<glyph unicode="'" horiz-adv-x="364" d="M8 1720v123h203v-123q0 -8 -1 -19t-3 -30.5t-5 -50.5t-12 -80h-122q10 41 14 65.5t5 38t1 18.5t-2 9q-2 18 -6 32.5t-27 16.5h-45z" />
<glyph unicode="(" horiz-adv-x="495" d="M23 194.5v229.5v1188v139.5t2 138.5q0 88 43 128t137 40h123v-194h-90v-252v-314v-641v-233v-424h90v-195h-129q-174 2 -174 162q-2 115 -2 227.5z" />
<glyph unicode=")" horiz-adv-x="466" d="M8 0h94v254v311v641v236v422h-94v194h129q174 -2 174 -162q2 -115 1 -227.5t-1 -226.5v-1188v-281q0 -88 -43 -128t-137 -40h-123v195z" />
<glyph unicode="*" horiz-adv-x="411" d="M-43 1778l102 47l-102 55l45 70l96 -58l-4 111h90v-111l95 58l43 -70l-103 -55l103 -47l-43 -72l-95 57v-108h-90l4 108l-96 -57z" />
<glyph unicode="," horiz-adv-x="313" d="M6 0v143h203v-143q0 -8 -1 -19.5t-3 -31t-6 -50t-11 -79.5h-122q18 92 19 135t-34 45h-45z" />
<glyph unicode="-" horiz-adv-x="550" d="M6 1004v172h389v-172h-389z" />
<glyph unicode="." horiz-adv-x="352" d="M8 0v178h197v-178h-197z" />
<glyph unicode="/" horiz-adv-x="624" d="M8 0q70 416 137.5 826.5t135.5 830.5l30 186h203q-70 -416 -138.5 -828.5t-137.5 -830.5l-33 -184h-197z" />
<glyph unicode="0" horiz-adv-x="835" d="M8 922v102h94q0 166 -1 329t1 328q0 86 41 124t133 38h158q162 0 166 -153v-666h115v-102h-115v-762q0 -160 -174 -160h-156q-168 2 -168 156q-2 193 -1 383t1 383h-94zM305 188h88v734h-88v-734zM305 1024h88v635h-88v-635z" />
<glyph unicode="1" horiz-adv-x="559" d="M23 1659v145l337 39v-1843h-200v1659h-137z" />
<glyph unicode="2" horiz-adv-x="630" d="M9 721.5q1 109.5 8.5 170t25.5 100.5t52 73t87 90q47 51 73 80t38 50.5t14 43t2 57.5l-2 273h-94v-307h-197v366q0 53 45 89t105 36h184q74 0 117 -40t43 -111v-402q0 -35 -3 -57.5t-23.5 -53t-64.5 -77.5t-126 -131q-29 -29 -43 -46.5t-21.5 -37t-7.5 -48v-77.5l-2 -574 h291v-188h-498q0 266 -2 439t-1 282.5z" />
<glyph unicode="3" horiz-adv-x="636" d="M8 302v171h182v-299h105v760h-166v199l168 2v524h-98v-311h-189l2 348q2 35 10.5 61.5t31 45t64.5 28.5t109 10q78 0 126 -7t76 -25.5t39 -47t11 -71.5v-564q0 -27 -12 -42t-30.5 -26t-40 -18.5t-38.5 -15.5q43 -14 69 -27.5t38 -26t14 -24.5t2 -22v-242l-2 -51v-481 q0 -45 -9 -75t-35.5 -47.5t-72 -23.5t-114.5 -4l-107 2q-66 2 -97.5 42t-33.5 93q-2 86 -2 165z" />
<glyph unicode="4" horiz-adv-x="833" d="M8 483q84 299 167 589t165 593v2l51 176h195l-4 -1196h129l2 -162h-131v-485h-183l-2 483h-389zM248 645h151v588z" />
<glyph unicode="5" horiz-adv-x="624" d="M8 314.5v168.5h197v-293h104v762h-159q-45 0 -73 10.5t-42.5 30t-19.5 47t-5 62.5v332l-2 409h494v-184h-291v-27l-2 -491h153q70 -2 103 -47t35 -101v-389l2 -448q2 -96 -60.5 -126t-210.5 -28q-72 2 -114.5 12.5t-66 28.5t-31 45t-9.5 62q-2 92 -2 164.5z" />
<glyph unicode="6" d="M10 156q-2 768 0 1536q0 72 44 111.5t118 39.5q94 6 184 0q59 0 104.5 -41t45.5 -106v-205h-197v168h-94v-393h168q66 0 95.5 -48.5t29.5 -109.5v-950q0 -74 -43 -114t-123 -44h-170q-76 4 -119 44t-43 112zM215 190h90l4 887h-94v-887z" />
<glyph unicode="7" horiz-adv-x="667" d="M8 0q70 416 137.5 827.5t135.5 833.5h-269v182h502q-72 -418 -139.5 -829.5t-141.5 -831.5l-28 -182h-197z" />
<glyph unicode="8" horiz-adv-x="634" d="M8 684v244q0 10 3 21.5t14.5 24.5t35 26.5t66.5 27.5q-18 8 -38.5 16.5t-37 19.5t-29 27.5t-12.5 41.5v567q0 41 6.5 68.5t30 44t70.5 23.5t127 7q76 0 123 -7t71.5 -24.5t32.5 -45t8 -70.5v-563q0 -27 -12 -43.5t-31.5 -26.5t-41 -18.5t-38.5 -16.5q45 -14 70 -27.5 t37 -25.5t14 -24.5t2 -22.5v-776q0 -45 -9 -75t-35.5 -46.5t-72 -22.5t-116.5 -8l-107 2q-68 2 -97.5 43t-31.5 94v314zM197 938l2 -760h96v760h-98zM197 1141h98v518h-98v-518z" />
<glyph unicode="9" d="M8 735v953q2 76 45 115.5t121 41.5h170q78 -2 120 -42.5t42 -112.5q4 -768 0 -1538q0 -72 -43 -112t-119 -40q-92 -4 -182 0q-59 0 -104.5 36t-47.5 89v118.5v108.5h199v-164h94v390h-168q-66 0 -96.5 48t-30.5 109zM211 766h90v893h-90v-893z" />
<glyph unicode=":" horiz-adv-x="362" d="M8 668h201v176h-201v-176zM8 1004v178h197v-178h-197z" />
<glyph unicode=";" horiz-adv-x="313" d="M4 700v144h201v-144v-19t-2 -30.5t-6 -50.5t-11 -80h-123q18 92 19.5 135t-33.5 45h-45zM4 1004v178h197v-178h-197z" />
<glyph unicode="?" horiz-adv-x="665" d="M31 0v188h209v-188h-209zM31 788q0 72 3 113t18.5 76t49 74t97.5 104q49 51 74.5 80t38 50.5t14.5 43t2 57.5l-2 273h-97v-307h-196v366q0 53 45 89t106 36h183q76 0 118.5 -40t42.5 -111v-402q0 -35 -3 -57.5t-23.5 -53t-65.5 -77.5t-127 -131q-29 -29 -43 -54.5 t-21 -89t-7 -186.5t2 -348h-207z" />
<glyph unicode="A" d="M8 0v72v1603q0 86 43 127t139 41h318v-1601v-242h-199v1001h-98v-1001h-203zM215 1184h88v475h-88v-475z" />
<glyph unicode="B" horiz-adv-x="657" d="M8 0v1843h367q47 -2 84 -41t41 -84h2v-475q0 -57 -34 -91t-85 -50q20 -14 46 -28.5t40 -35.5q14 -23 22.5 -50t8.5 -54q0 -53 1 -140t1 -192.5v-220.5v-223q0 -72 -44 -115t-122 -43h-328zM205 193h94v811h-90v-242zM209 1192h88v467h-88v-311v-156z" />
<glyph unicode="C" d="M10 156q-1 385 -1 770t1 770q0 72 44 110.5t118 38.5h184q59 0 104.5 -34.5t45.5 -88.5v-366h-197v303h-94v-1469h92v572h201v-604q0 -74 -43 -116t-123 -42h-170q-76 0 -119 42t-43 114z" />
<glyph unicode="D" horiz-adv-x="657" d="M8 0v1843h369q63 0 94 -48t31 -109v-1379q0 -43 1 -85v-28q0 -28 -1 -57q-2 -49 -38 -93t-87 -44h-369zM211 190h88v1467h-88v-1467z" />
<glyph unicode="E" horiz-adv-x="505" d="M8 0v1843h342v-184h-137v-473h139v-182h-143l2 -179v-647h141v-178h-344z" />
<glyph unicode="F" horiz-adv-x="632" d="M8 0v1843h469v-184h-264v-477h219v-178h-223v-1004h-201z" />
<glyph unicode="G" d="M8 158v721v807q0 78 45 117.5t125 39.5h184q59 -2 101.5 -39t42.5 -86q1 -63 1 -121v-58q-1 -85 -1 -187h-199v307h-92v-1475h92l2 656h-43v164h238v-1004h-334q-98 0 -129 44t-33 114z" />
<glyph unicode="H" horiz-adv-x="653" d="M8 0v1843h195v-661h98v661h197v-1843h-193v1004h-100v-1004h-197z" />
<glyph unicode="I" horiz-adv-x="342" d="M8 0v1843h203v-1843h-203z" />
<glyph unicode="J" horiz-adv-x="501" d="M8 0v174q12 0 25.5 1t27.5 3q84 4 84 82v1583h197v-350v-606t6 -606q0 -160 -91 -231q-71 -54 -182 -54q-32 0 -67 4z" />
<glyph unicode="K" horiz-adv-x="679" d="M8 0l4 1843h199v-561q14 76 23.5 125t16.5 85t12 64.5t12.5 66.5t16.5 89t21 131h201q-31 -168 -59.5 -335t-59.5 -332l-4 -60l4 -61q8 -57 16.5 -141.5t19.5 -183.5t21.5 -204.5t20.5 -204t19.5 -182.5t15.5 -139h-197q-10 111 -21 231.5t-24.5 243.5t-28 243t-26.5 228 q0 -45 -1 -120.5t-1 -165t-1 -185.5t-1 -186t-1 -166t-1 -123h-197z" />
<glyph unicode="L" horiz-adv-x="501" d="M8 0v1843h193v-1665h147v-178h-340z" />
<glyph unicode="M" horiz-adv-x="962" d="M10 0v1843h637q86 -2 123 -41t37 -125v-812.5t-2 -864.5h-201v1659h-98v-1659h-201v1659h-100v-1659h-195z" />
<glyph unicode="N" d="M8 0v1843h320q94 0 137 -41t43 -127v-1675h-201v1659h-98v-1659h-201z" />
<glyph unicode="O" horiz-adv-x="661" d="M8 158v386v386v374.5v378.5q0 86 42 124t134 38h156q164 0 166 -155v-863v-665q0 -162 -172 -162h-158q-168 2 -168 158zM213 190h88v1469h-88v-1469z" />
<glyph unicode="P" horiz-adv-x="659" d="M8 0v1843h369q53 -2 89 -40t36 -91q2 -188 2 -375.5t-2 -373.5q0 -55 -44 -94.5t-104 -41.5q-23 -1 -47 -1h-23q-36 1 -81 1v-827h-195zM211 1004h88v655h-88v-655z" />
<glyph unicode="Q" horiz-adv-x="706" d="M8 154v1527q0 86 41 124t133 38h156q168 0 168 -151v-869v-676l80 -63l-115 -125l-63 49q-31 -8 -94.5 -8h-125.5q-98 0 -139 36t-41 118zM213 184h88v1475h-88v-1475z" />
<glyph unicode="R" horiz-adv-x="661" d="M8 0v588v1255h195h145q82 0 120 -35.5t38 -97.5l-2 -500q0 -29 -10.5 -46t-26.5 -29.5t-36.5 -20.5t-39.5 -18q115 -53 115 -175v-8v-34v-809v-70h-199v879v125h-98v-1004h-201zM213 1194h88v465h-88v-465z" />
<glyph unicode="S" horiz-adv-x="624" d="M12 156v604h203v-572h92l-2 574v77.5t-7 48t-21.5 37t-43.5 46.5q-82 84 -126 131t-64 77.5t-23.5 53t-3.5 57.5v402q0 72 43 111.5t117 39.5h184q59 0 104.5 -35.5t45.5 -89.5v-366h-197v307h-94l-2 -273q0 -37 2 -58t14.5 -42.5t38 -50.5t72.5 -80q63 -66 98 -104.5 t50.5 -73.5t18.5 -76t3 -113l-4 -536v-102q0 -72 -43 -111t-117 -39h-184q-59 0 -104.5 35t-45.5 88v33h-4z" />
<glyph unicode="T" horiz-adv-x="608" d="M8 1659v184h490v-184h-142v-1659h-200v1659h-148z" />
<glyph unicode="U" horiz-adv-x="655" d="M10 139l2 1704h193v-1653h96v1653h197v-1681q0 -82 -40 -121t-126 -39q-43 -2 -86 -2l-86 2q-68 2 -109 39t-41 98z" />
<glyph unicode="V" horiz-adv-x="782" d="M8 1843h197l110 -1007l84 753l33 254h197l-219 -1843h-193z" />
<glyph unicode="W" horiz-adv-x="962" d="M8 166v1677h205v-1653h96v1653h199v-1655h102v1655h197v-28v-818.5t-2 -818.5v-178h-637q-84 6 -122 43t-38 123z" />
<glyph unicode="X" horiz-adv-x="657" d="M8 0q16 84 29.5 165t28.5 163q12 72 27.5 158.5t29.5 179t28.5 180.5t24.5 158l-53 253q-53 291 -115 586h193l75 -422l78 422h193q-4 -23 -16.5 -81t-27 -135t-32.5 -165t-34.5 -174t-31 -160.5t-22.5 -123.5l162 -1004h-189q-25 119 -43 225.5t-37 198.5 q-18 -98 -37.5 -210t-37.5 -214h-193z" />
<glyph unicode="Y" d="M8 0q16 84 29.5 166t28.5 164l120 674l-176 839h193l78 -413l71 413h201q-4 -23 -10 -56.5t-13.5 -68.5t-13.5 -67.5t-12 -55.5l-115 -573l-113 -625l-73 -397h-195z" />
<glyph unicode="Z" horiz-adv-x="667" d="M8 0l273 1659h-269v184h502l-276 -1659h264v-184h-494z" />
<glyph unicode="[" horiz-adv-x="481" d="M66 -195v2253h305v-194h-90v-252v-314v-641v-233v-424h90v-195h-305z" />
<glyph unicode="\" horiz-adv-x="624" d="M8 1843h203l31 -186q68 -420 135 -830.5t137 -826.5h-199l-30 184q-70 418 -138.5 830.5t-138.5 828.5z" />
<glyph unicode="]" horiz-adv-x="509" d="M66 0h92v424v233v641v314v252h-92v194h305v-2253h-305v195z" />
<glyph unicode="_" horiz-adv-x="817" d="M8 0h656v-143h-656v143z" />
<glyph unicode="`" horiz-adv-x="421" d="M47 2324h201l55 -364h-197z" />
<glyph unicode="a" d="M8 0v72v1603q0 86 43 127t139 41h318v-1601v-242h-199v1001h-98v-1001h-203zM215 1184h88v475h-88v-475z" />
<glyph unicode="b" horiz-adv-x="657" d="M8 0v1843h367q47 -2 84 -41t41 -84h2v-475q0 -57 -34 -91t-85 -50q20 -16 46 -29.5t40 -34.5q14 -23 22.5 -50t8.5 -54q0 -53 1 -140t1 -192.5v-220.5v-223q0 -72 -44 -115t-122 -43h-328zM205 193h94v811h-90v-242zM209 1192h88v467h-88v-311v-156z" />
<glyph unicode="c" d="M10 156q-1 385 -1 770t1 770q0 72 44 110.5t118 38.5h184q59 0 104.5 -34.5t45.5 -88.5v-366h-197v303h-94v-1469h92v572h201v-604q0 -74 -43 -116t-123 -42h-170q-76 0 -119 42t-43 114z" />
<glyph unicode="d" horiz-adv-x="657" d="M8 0v1843h369q63 0 94 -48t31 -109v-1379q0 -43 1 -85v-28q0 -28 -1 -57q-2 -49 -38 -93t-87 -44h-369zM211 190h88v1467h-88v-1467z" />
<glyph unicode="e" horiz-adv-x="462" d="M8 0v1843h342v-184h-137v-473h139v-182h-143l2 -179v-647h141v-178h-344z" />
<glyph unicode="f" horiz-adv-x="587" d="M8 0v1843h469v-184h-264v-477h219v-178h-223v-1004h-201z" />
<glyph unicode="g" d="M8 158v721v807q0 78 45 117.5t125 39.5h184q59 -2 101.5 -39t42.5 -86q1 -63 1 -121v-58q-1 -85 -1 -187h-199v307h-92v-1475h92l2 656h-43v164h238v-1004h-334q-98 0 -129 44t-33 114z" />
<glyph unicode="h" horiz-adv-x="630" d="M8 0v1843h195v-661h98v661h197v-1843h-193v1004h-100v-1004h-197z" />
<glyph unicode="i" horiz-adv-x="309" d="M8 0v1843h203v-1843h-203z" />
<glyph unicode="j" horiz-adv-x="479" d="M8 0v174q12 0 25.5 1t27.5 3q84 4 84 82v1583h197v-350v-606t6 -606q0 -160 -91 -231q-71 -54 -182 -54q-32 0 -67 4z" />
<glyph unicode="k" horiz-adv-x="667" d="M8 0q0 61 1 150.5t1 192.5t1 215t1 215.5v192.5v150v727h199v-561q14 76 23.5 125t16.5 85t12 64.5t12.5 66.5t16.5 89t21 131h201q-31 -168 -59.5 -335t-59.5 -332l-4 -60l4 -61q8 -57 16.5 -141.5t19.5 -183.5t21.5 -204.5t20.5 -204t19.5 -182.5t15.5 -139h-197 q-10 111 -21 231.5t-24.5 243.5t-28 243t-26.5 228q0 -45 -1 -120.5t-1 -165t-1 -185.5t-1 -186t-1 -166t-1 -123h-197z" />
<glyph unicode="l" horiz-adv-x="436" d="M8 0v1843h193v-1665h147v-178h-340z" />
<glyph unicode="m" horiz-adv-x="962" d="M10 0v1843h637q86 -2 123 -41t37 -125v-812.5t-2 -864.5h-201v1659h-98v-1659h-201v1659h-100v-1659h-195z" />
<glyph unicode="n" d="M8 0v1843h320q94 0 137 -41t43 -127v-1675h-201v1659h-98v-1659h-201z" />
<glyph unicode="o" horiz-adv-x="661" d="M8 158v386v386v374.5v378.5q0 86 42 124t134 38h156q164 0 166 -155v-863v-665q0 -162 -172 -162h-158q-168 2 -168 158zM213 190h88v1469h-88v-1469z" />
<glyph unicode="p" horiz-adv-x="636" d="M8 0v1843h369q53 -2 89 -40t36 -91q2 -188 2 -375.5t-2 -373.5q0 -55 -44 -94.5t-104 -41.5q-23 -1 -47 -1h-23q-36 1 -81 1v-827h-195zM211 1004h88v655h-88v-655z" />
<glyph unicode="q" horiz-adv-x="675" d="M8 154v1527q0 86 41 124t133 38h156q168 0 168 -151v-869v-676l80 -63l-115 -125l-63 49q-31 -8 -94.5 -8h-125.5q-98 0 -139 36t-41 118zM213 184h88v1475h-88v-1475z" />
<glyph unicode="r" horiz-adv-x="661" d="M8 0v588v1255h195h145q82 0 120 -35.5t38 -97.5l-2 -500q0 -29 -10.5 -46t-26.5 -29.5t-36.5 -20.5t-39.5 -18q115 -53 115 -175v-8v-34v-809v-70h-199v879v125h-98v-1004h-201zM213 1194h88v465h-88v-465z" />
<glyph unicode="s" horiz-adv-x="624" d="M12 156v604h203v-572h92l-2 574v77.5t-7 48t-21.5 37t-43.5 46.5q-82 84 -126 131t-64 77.5t-23.5 53t-3.5 57.5v402q0 72 43 111.5t117 39.5h184q59 0 104.5 -35.5t45.5 -89.5v-366h-197v307h-94l-2 -273q0 -37 2 -58t14.5 -42.5t38 -50.5t72.5 -80q63 -66 98 -104.5 t50.5 -73.5t18.5 -76t3 -113l-4 -536v-102q0 -72 -43 -111t-117 -39h-184q-59 0 -104.5 35t-45.5 88v33h-4z" />
<glyph unicode="t" horiz-adv-x="608" d="M8 1659v184h490v-184h-142v-1659h-200v1659h-148z" />
<glyph unicode="u" horiz-adv-x="653" d="M10 139l2 1704h193v-1653h96v1653h197v-1681q0 -82 -40 -121t-126 -39q-43 -2 -86 -2l-86 2q-68 2 -109 39t-41 98z" />
<glyph unicode="v" horiz-adv-x="761" d="M8 1843h197q29 -250 56.5 -501.5t53.5 -505.5l84 753l33 254h197l-219 -1843h-193q-51 465 -103.5 922.5t-105.5 920.5z" />
<glyph unicode="w" horiz-adv-x="962" d="M8 166v1677h205v-1653h96v1653h199v-1655h102v1655h197v-28v-818.5t-2 -818.5v-178h-637q-84 0 -122 40t-38 126z" />
<glyph unicode="x" horiz-adv-x="657" d="M8 0q16 84 29.5 165t28.5 163q12 72 27.5 158.5t29.5 179t28.5 180.5t24.5 158l-53 253q-53 291 -115 586h193l75 -422l78 422h193q-4 -23 -16.5 -81t-27 -135t-32.5 -165t-34.5 -174t-31 -160.5t-22.5 -123.5l162 -1004h-189q-25 119 -43 225.5t-37 198.5 q-18 -98 -37.5 -210t-37.5 -214h-193z" />
<glyph unicode="y" d="M8 0q16 84 29.5 166t28.5 164l120 674l-176 839h193l78 -413l71 413h201q-4 -23 -10 -56.5t-13.5 -68.5t-13.5 -67.5t-12 -55.5l-115 -573l-113 -625l-73 -397h-195z" />
<glyph unicode="z" horiz-adv-x="667" d="M8 0l273 1659h-269v184h502l-276 -1659h264v-184h-494z" />
<glyph unicode="{" horiz-adv-x="661" d="M31 930v209h172v469v280q0 88 43 128t139 40h121v-194h-107l-4 -584v-148q0 -27 -13 -44t-32.5 -28t-41 -18.5t-40.5 -17.5q45 -14 72 -27.5t39 -27t14 -25.5t2 -22v-922h111v-195h-127q-176 2 -176 160v457v387l-2 123h-170z" />
<glyph unicode="}" horiz-adv-x="638" d="M8 0h111l-2 788v136q0 10 3 22t15 25.5t38 27t73 27.5q-18 10 -41 17.5t-42.5 18.5t-32.5 28.5t-13 44.5v147l-4 584h-105v194h123q92 0 135 -40t43 -128q2 -72 2 -140.5v-139.5l-2 -357v-110h176v-211h-174v-510v-228.5t-2 -230.5q0 -158 -172 -160h-129v195z" />
<glyph unicode="&#xa1;" horiz-adv-x="366" d="M8 0l8 1548h193l4 -1548h-205zM10 1657h203v186h-203v-186z" />
<glyph unicode="&#xad;" horiz-adv-x="550" d="M6 1004v172h389v-172h-389z" />
<glyph unicode="&#xaf;" horiz-adv-x="1327" />
<glyph unicode="&#xb4;" horiz-adv-x="421" d="M100 1960l56 364h200l-59 -364h-197z" />
<glyph unicode="&#xbf;" horiz-adv-x="684" d="M31 152v401q0 35 3 57.5t24.5 53t65.5 77.5t126 131q29 29 44 54.5t21.5 89t6.5 187.5v347h204l2 -495q0 -72 -2 -113t-18 -76t-50 -73.5t-98 -104.5q-47 -51 -73.5 -79.5t-38.5 -50t-14.5 -43t-2.5 -58.5l2 -273h97v308h196v-367q0 -53 -45 -89t-104 -36h-184 q-76 0 -119 40t-43 112zM322 1655v188h206v-188h-206z" />
<glyph unicode="&#xc0;" d="M8 0v72v1603q0 86 43 127t139 41h318v-1601v-242h-199v1001h-98v-1001h-203zM215 1184h88v475h-88v-475zM248 2300h201l55 -365h-197z" />
<glyph unicode="&#xc1;" horiz-adv-x="741" d="M8 0v72v1603q0 86 43 127t139 41h318v-1601v-242h-199v1001h-98v-1001h-203zM215 1184h88v475h-88v-475zM309 1960l56 364h200l-59 -364h-197z" />
<glyph unicode="&#xc2;" horiz-adv-x="720" d="M8 0v72v1603q0 86 43 127t139 41h318v-1601v-242h-199v1001h-98v-1001h-203zM16 1960h154l94 104l94 -104h150l-244 276zM215 1184h88v475h-88v-475z" />
<glyph unicode="&#xc4;" d="M8 0v72v1603q0 86 43 127t139 41h318v-1601v-242h-199v1001h-98v-1001h-203zM115 2048q0 -29 23.5 -49.5t56.5 -20.5t56 20.5t23 49.5t-23.5 50.5t-55.5 21.5q-33 0 -56.5 -21.5t-23.5 -50.5zM215 1184h88v475h-88v-475zM340 2048q0 -29 23.5 -49.5t56.5 -20.5t56.5 20.5 t23.5 49.5t-23.5 50.5t-56.5 21.5t-56.5 -21.5t-23.5 -50.5z" />
<glyph unicode="&#xc6;" horiz-adv-x="890" d="M8 0v72v1603q0 86 43 127t139 41h566v-184h-138v-473h140v-182h-144l2 -179v-647h142v-178h-449v1001h-98v-1001h-203zM215 1184h88v475h-88v-475z" />
<glyph unicode="&#xc8;" horiz-adv-x="505" d="M8 0v1843h342v-184h-137v-473h139v-182h-143l2 -179v-647h141v-178h-344zM90 2300h203l55 -365h-198z" />
<glyph unicode="&#xc9;" horiz-adv-x="542" d="M8 0v1843h342v-184h-137v-473h139v-182h-143l2 -179v-647h141v-178h-344zM154 1966l55 365h201l-60 -365h-196z" />
<glyph unicode="&#xca;" horiz-adv-x="630" d="M27 1960h155l92 104l95 -104h151l-246 276zM106 0v1843h340v-184h-137v-473h140v-182h-144l2 -179v-647h142v-178h-343z" />
<glyph unicode="&#xcb;" horiz-adv-x="530" d="M-8 2048q0 -29 22.5 -49.5t57.5 -20.5q33 0 55.5 20.5t22.5 49.5t-23 50.5t-55 21.5q-35 0 -57.5 -21.5t-22.5 -50.5zM8 0v1843h342v-184h-137v-473h139v-182h-143l2 -179v-647h141v-178h-344zM217 2048q0 -29 22.5 -49.5t57.5 -20.5q33 0 56.5 20.5t23.5 49.5 t-23.5 50.5t-56.5 21.5q-35 0 -57.5 -21.5t-22.5 -50.5z" />
<glyph unicode="&#xcc;" horiz-adv-x="462" d="M66 2324h202l56 -364h-197zM129 0v1843h201v-1843h-201z" />
<glyph unicode="&#xcd;" horiz-adv-x="405" d="M8 0v1843h203v-1843h-203zM16 1960l56 364h200l-59 -364h-197z" />
<glyph unicode="&#xce;" horiz-adv-x="608" d="M27 1960h155l92 104l95 -104h151l-246 276zM176 0v1843h203v-1843h-203z" />
<glyph unicode="&#xcf;" horiz-adv-x="561" d="M-10 2048q0 -29 22.5 -49.5t55.5 -20.5q35 0 57 20.5t22 49.5t-22.5 50.5t-56.5 21.5q-33 0 -55.5 -21.5t-22.5 -50.5zM84 0v1843h201v-1843h-201zM215 2048q0 -29 22.5 -49.5t57.5 -20.5q33 0 56.5 20.5t23.5 49.5t-23.5 50.5t-56.5 21.5q-35 0 -57.5 -21.5t-22.5 -50.5 z" />
<glyph unicode="&#xd0;" horiz-adv-x="657" d="M6 1004h389v172h-389v-172zM8 0v1843h369q63 0 94 -48t31 -109v-1379q0 -43 1 -85t-1 -85q-2 -49 -38 -93t-87 -44h-369zM211 190h88v1467h-88v-1467z" />
<glyph unicode="&#xd2;" horiz-adv-x="661" d="M8 158v386v386v374.5v378.5q0 86 42 124t134 38h156q164 0 166 -155v-863v-665q0 -162 -172 -162h-158q-168 2 -168 158zM94 2324h203l55 -364h-196zM213 190h88v1469h-88v-1469z" />
<glyph unicode="&#xd3;" horiz-adv-x="661" d="M8 158v386v386v374.5v378.5q0 86 42 124t134 38h156q164 0 166 -155v-863v-665q0 -162 -172 -162h-158q-168 2 -168 158zM164 1960l55 364h201l-60 -364h-196zM213 190h88v1469h-88v-1469z" />
<glyph unicode="&#xd4;" horiz-adv-x="661" d="M8 158v386v386v374.5v378.5q0 86 42 124t134 38h156q164 0 166 -155v-863v-665q0 -162 -172 -162h-158q-168 2 -168 158zM10 1960h156l92 104l96 -104h150l-246 276zM213 190h88v1469h-88v-1469z" />
<glyph unicode="&#xd6;" horiz-adv-x="661" d="M8 158v386v386v374.5v378.5q0 86 42 124t134 38h156q164 0 166 -155v-863v-665q0 -162 -172 -162h-158q-168 2 -168 158zM57 2048q0 -29 23.5 -49.5t56.5 -20.5t56.5 20.5t23.5 49.5t-23.5 50.5t-56.5 21.5t-56.5 -21.5t-23.5 -50.5zM213 190h88v1469h-88v-1469z M283 2048q0 -29 23 -49.5t56 -20.5t56.5 20.5t23.5 49.5t-23.5 50.5t-56.5 21.5t-56 -21.5t-23 -50.5z" />
<glyph unicode="&#xd8;" horiz-adv-x="661" d="M8 0l15 82q-14 31 -15 76v386v386v374.5v378.5q0 86 42 124t134 38h156q25 0 37 -2h137l-16 -94q4 -14 6 -28.5t2 -30.5v-863v-665q0 -162 -172 -162h-326zM213 1237q16 104 33.5 208.5t34.5 211.5v2h-68v-422zM238 190h63v377q-16 -94 -31.5 -188t-31.5 -189z" />
<glyph unicode="&#xd9;" horiz-adv-x="653" d="M10 139l2 1704h193v-1653h96v1653h197v-1681q0 -82 -40 -121t-126 -39q-86 -4 -172 0q-68 2 -109 39t-41 98zM92 2324h203l55 -364h-196z" />
<glyph unicode="&#xda;" horiz-adv-x="653" d="M10 139l2 1704h193v-1653h96v1653h197v-1681q0 -82 -40 -121t-126 -39q-86 -4 -172 0q-68 2 -109 39t-41 98zM160 1960l55 364h201l-60 -364h-196z" />
<glyph unicode="&#xdb;" horiz-adv-x="653" d="M2 1960h156l92 104l94 -104h152l-246 276zM10 139l2 1704h193v-1653h96v1653h197v-1681q0 -82 -40 -121t-126 -39q-86 -4 -172 0q-68 2 -109 39t-41 98z" />
<glyph unicode="&#xdc;" horiz-adv-x="655" d="M10 139l2 1704h193v-1653h96v1653h197v-1681q0 -82 -40 -121t-126 -39q-86 -4 -172 0q-68 2 -109 39t-41 98zM53 2048q0 -29 23.5 -49.5t56.5 -20.5t56.5 20.5t23.5 49.5t-23.5 50.5t-56.5 21.5t-56.5 -21.5t-23.5 -50.5zM279 2048q0 -29 23 -49.5t56 -20.5t56.5 20.5 t23.5 49.5t-23.5 50.5t-56.5 21.5t-56 -21.5t-23 -50.5z" />
<glyph unicode="&#xdd;" d="M8 0q16 84 29.5 166t28.5 164l120 674l-176 839h193l78 -413l71 413h201q-4 -23 -10 -56.5t-13.5 -68.5t-13.5 -67.5t-12 -55.5l-115 -573l-113 -625l-73 -397h-195zM182 1960l56 364h200l-59 -364h-197z" />
<glyph unicode="&#xe0;" d="M8 0v72v1603q0 86 43 127t139 41h318v-1601v-242h-199v1001h-98v-1001h-203zM215 1184h88v475h-88v-475zM248 2300h201l55 -365h-197z" />
<glyph unicode="&#xe1;" horiz-adv-x="720" d="M8 0v72v1603q0 86 43 127t139 41h318v-1601v-242h-199v1001h-98v-1001h-203zM215 1184h88v475h-88v-475zM309 1960l56 364h200l-59 -364h-197z" />
<glyph unicode="&#xe2;" d="M8 0v72v1603q0 86 43 127t139 41h318v-1601v-242h-199v1001h-98v-1001h-203zM16 1960h154l94 104l94 -104h150l-244 276zM215 1184h88v475h-88v-475z" />
<glyph unicode="&#xe4;" horiz-adv-x="548" d="M8 2048q0 -29 23.5 -49.5t56.5 -20.5t56.5 20.5t23.5 49.5t-23.5 50.5t-56.5 21.5t-56.5 -21.5t-23.5 -50.5zM27 0v1843h340v-184h-138v-473h140v-182h-144l2 -179v-647h142v-178h-342zM233 2048q0 -29 23.5 -49.5t56.5 -20.5q35 0 57.5 20.5t22.5 49.5t-22.5 50.5 t-57.5 21.5q-33 0 -56.5 -21.5t-23.5 -50.5z" />
<glyph unicode="&#xe6;" horiz-adv-x="890" d="M8 0v72v1603q0 86 43 127t139 41h566v-184h-138v-473h140v-182h-144l2 -179v-647h142v-178h-449v1001h-98v-1001h-203zM215 1184h88v475h-88v-475z" />
<glyph unicode="&#xe8;" horiz-adv-x="505" d="M8 0v1843h342v-184h-137v-473h139v-182h-143l2 -179v-647h141v-178h-344zM90 2300h203l55 -365h-198z" />
<glyph unicode="&#xe9;" horiz-adv-x="520" d="M8 0v1843h342v-184h-137v-473h139v-182h-143l2 -179v-647h141v-178h-344zM154 1966l55 365h201l-60 -365h-196z" />
<glyph unicode="&#xea;" horiz-adv-x="673" d="M72 1960h153l94 104l95 -104h149l-244 276zM150 0v1843h342v-184h-138v-473h140v-182h-144l2 -179v-647h142v-178h-344z" />
<glyph unicode="&#xeb;" horiz-adv-x="507" d="M-8 2048q0 -29 22.5 -49.5t57.5 -20.5q33 0 55.5 20.5t22.5 49.5t-23 50.5t-55 21.5q-35 0 -57.5 -21.5t-22.5 -50.5zM8 0v1843h342v-184h-137v-473h139v-182h-143l2 -179v-647h141v-178h-344zM217 2048q0 -29 22.5 -49.5t57.5 -20.5q33 0 56.5 20.5t23.5 49.5 t-23.5 50.5t-56.5 21.5q-35 0 -57.5 -21.5t-22.5 -50.5z" />
<glyph unicode="&#xec;" horiz-adv-x="462" d="M66 2324h202l56 -364h-197zM129 0v1843h201v-1843h-201z" />
<glyph unicode="&#xed;" horiz-adv-x="376" d="M8 1960l55 364h203l-61 -364h-197zM10 0v1843h203v-1843h-203z" />
<glyph unicode="&#xee;" horiz-adv-x="608" d="M27 1960h155l92 104l95 -104h151l-246 276zM176 0v1843h203v-1843h-203z" />
<glyph unicode="&#xef;" horiz-adv-x="505" d="M-10 2048q0 -29 22.5 -49.5t55.5 -20.5q35 0 57 20.5t22 49.5t-22.5 50.5t-56.5 21.5q-33 0 -55.5 -21.5t-22.5 -50.5zM84 0v1843h201v-1843h-201zM215 2048q0 -29 22.5 -49.5t57.5 -20.5q33 0 56.5 20.5t23.5 49.5t-23.5 50.5t-56.5 21.5q-35 0 -57.5 -21.5t-22.5 -50.5 z" />
<glyph unicode="&#xf2;" horiz-adv-x="661" d="M8 158v386v386v374.5v378.5q0 86 42 124t134 38h156q164 0 166 -155v-863v-665q0 -162 -172 -162h-158q-168 2 -168 158zM94 2324h203l55 -364h-196zM213 190h88v1469h-88v-1469z" />
<glyph unicode="&#xf3;" horiz-adv-x="720" d="M8 158v386v386v374.5v378.5q0 86 42 124t134 38h156q164 0 166 -155v-863v-665q0 -162 -172 -162h-158q-168 2 -168 158zM164 1960l55 364h201l-60 -364h-196zM213 190h88v1469h-88v-1469z" />
<glyph unicode="&#xf4;" horiz-adv-x="661" d="M8 158v386v386v374.5v378.5q0 86 42 124t134 38h156q164 0 166 -155v-863v-665q0 -162 -172 -162h-158q-168 2 -168 158zM10 1960h156l92 104l96 -104h150l-246 276zM213 190h88v1469h-88v-1469z" />
<glyph unicode="&#xf6;" horiz-adv-x="661" d="M8 158v386v386v374.5v378.5q0 86 42 124t134 38h156q164 0 166 -155v-863v-665q0 -162 -172 -162h-158q-168 2 -168 158zM57 2048q0 -29 23.5 -49.5t56.5 -20.5t56.5 20.5t23.5 49.5t-23.5 50.5t-56.5 21.5t-56.5 -21.5t-23.5 -50.5zM213 190h88v1469h-88v-1469z M283 2048q0 -29 23 -49.5t56 -20.5t56.5 20.5t23.5 49.5t-23.5 50.5t-56.5 21.5t-56 -21.5t-23 -50.5z" />
<glyph unicode="&#xf8;" horiz-adv-x="661" d="M8 0l15 82q-14 31 -15 76v386v386v374.5v378.5q0 86 42 124t134 38h156q25 0 37 -2h137l-16 -94q4 -14 6 -28.5t2 -30.5v-863v-665q0 -162 -172 -162h-326zM213 1237q16 104 33.5 208.5t34.5 211.5v2h-68v-422zM238 190h63v377q-16 -94 -31.5 -188t-31.5 -189z" />
<glyph unicode="&#xf9;" horiz-adv-x="653" d="M10 139l2 1704h193v-1653h96v1653h197v-1681q0 -82 -40 -121t-126 -39q-86 -4 -172 0q-68 2 -109 39t-41 98zM92 2324h203l55 -364h-196z" />
<glyph unicode="&#xfa;" horiz-adv-x="653" d="M10 139l2 1704h193v-1653h96v1653h197v-1681q0 -82 -40 -121t-126 -39q-86 -4 -172 0q-68 2 -109 39t-41 98zM160 1960l55 364h201l-60 -364h-196z" />
<glyph unicode="&#xfb;" horiz-adv-x="661" d="M8 158v386v386v374.5v378.5q0 86 42 124t134 38h156q164 0 166 -155v-863v-665q0 -162 -172 -162h-158q-168 2 -168 158zM10 1960h156l92 104l96 -104h150l-246 276zM213 190h88v1469h-88v-1469z" />
<glyph unicode="&#xfc;" horiz-adv-x="655" d="M10 139l2 1704h193v-1653h96v1653h197v-1681q0 -82 -40 -121t-126 -39q-86 -4 -172 0q-68 2 -109 39t-41 98zM53 2048q0 -29 23.5 -49.5t56.5 -20.5t56.5 20.5t23.5 49.5t-23.5 50.5t-56.5 21.5t-56.5 -21.5t-23.5 -50.5zM279 2048q0 -29 23 -49.5t56 -20.5t56.5 20.5 t23.5 49.5t-23.5 50.5t-56.5 21.5t-56 -21.5t-23 -50.5z" />
<glyph unicode="&#xfd;" d="M8 0q16 84 29.5 166t28.5 164l120 674l-176 839h193l78 -413l71 413h201q-4 -23 -10 -56.5t-13.5 -68.5t-13.5 -67.5t-12 -55.5l-115 -573l-113 -625l-73 -397h-195zM182 1960l56 364h200l-59 -364h-197z" />
<glyph unicode="&#xff;" d="M8 0q16 84 29.5 166t28.5 164l120 674l-176 839h193l78 -413l71 413h201q-4 -23 -10 -56.5t-13.5 -68.5t-13.5 -67.5t-12 -55.5l-115 -573l-113 -625l-73 -397h-195zM90 2048q0 -29 23.5 -49.5t56.5 -20.5t56.5 20.5t23.5 49.5t-23.5 50.5t-56.5 21.5t-56.5 -21.5 t-23.5 -50.5zM315 2048q0 -29 23.5 -49.5t56.5 -20.5q35 0 57.5 20.5t22.5 49.5t-22.5 50.5t-57.5 21.5q-33 0 -56.5 -21.5t-23.5 -50.5z" />
<glyph unicode="&#x152;" horiz-adv-x="1167" d="M8 158v386v386v374.5v378.5q0 86 42 124t134 38h156q164 0 166 -155v-863v-665q0 -162 -172 -162h-158q-168 2 -168 158zM213 190h88v1469h-88v-1469zM670 0v1843h342v-184h-138v-473h140v-182h-146l4 -179v-647h142v-178h-344z" />
<glyph unicode="&#x153;" horiz-adv-x="1124" d="M8 158v386v386v374.5v378.5q0 86 42 124t134 38h156q164 0 166 -155v-863v-665q0 -162 -172 -162h-158q-168 2 -168 158zM213 190h88v1469h-88v-1469zM670 0v1843h342v-184h-138v-473h140v-182h-146l4 -179v-647h142v-178h-344z" />
<glyph unicode="&#x178;" d="M8 0q16 84 29.5 166t28.5 164l120 674l-176 839h193l78 -413l71 413h201q-4 -23 -10 -56.5t-13.5 -68.5t-13.5 -67.5t-12 -55.5l-115 -573l-113 -625l-73 -397h-195zM90 2048q0 -29 23.5 -49.5t56.5 -20.5t56.5 20.5t23.5 49.5t-23.5 50.5t-56.5 21.5t-56.5 -21.5 t-23.5 -50.5zM315 2048q0 -29 23.5 -49.5t56.5 -20.5q35 0 57.5 20.5t22.5 49.5t-22.5 50.5t-57.5 21.5q-33 0 -56.5 -21.5t-23.5 -50.5z" />
<glyph unicode="&#x2c6;" d="M16 1960l248 276l244 -276h-150l-94 104l-94 -104h-154z" />
<glyph unicode="&#x2000;" horiz-adv-x="1165" />
<glyph unicode="&#x2001;" horiz-adv-x="2331" />
<glyph unicode="&#x2002;" horiz-adv-x="1165" />
<glyph unicode="&#x2003;" horiz-adv-x="2331" />
<glyph unicode="&#x2004;" horiz-adv-x="777" />
<glyph unicode="&#x2005;" horiz-adv-x="582" />
<glyph unicode="&#x2006;" horiz-adv-x="388" />
<glyph unicode="&#x2007;" horiz-adv-x="388" />
<glyph unicode="&#x2008;" horiz-adv-x="291" />
<glyph unicode="&#x2009;" horiz-adv-x="466" />
<glyph unicode="&#x200a;" horiz-adv-x="129" />
<glyph unicode="&#x2010;" horiz-adv-x="550" d="M6 1004v172h389v-172h-389z" />
<glyph unicode="&#x2011;" horiz-adv-x="550" d="M6 1004v172h389v-172h-389z" />
<glyph unicode="&#x2012;" horiz-adv-x="550" d="M6 1004v172h389v-172h-389z" />
<glyph unicode="&#x2013;" horiz-adv-x="620" d="M6 1004v172h461v-172h-461z" />
<glyph unicode="&#x2014;" horiz-adv-x="706" d="M6 1004v172h545v-172h-545z" />
<glyph unicode="&#x2018;" horiz-adv-x="364" d="M8 1663q0 8 1 19.5t3 31t6.5 50t12.5 79.5h123q-18 -92 -19.5 -134t31.5 -46l45 -2v-143h-201z" />
<glyph unicode="&#x2019;" horiz-adv-x="364" d="M8 1702v141h203v-141q0 -8 -1 -19.5t-3 -31t-5 -50t-12 -79.5h-122q18 92 19 135t-34 45h-45z" />
<glyph unicode="&#x201a;" horiz-adv-x="1327" d="M6 0v143h203v-143q0 -8 -1 -19.5t-3 -31t-6 -50t-11 -79.5h-122q18 92 19 135t-34 45h-45z" />
<glyph unicode="&#x201c;" horiz-adv-x="604" d="M8 1520v143q0 8 1 19.5t3 31t6.5 50t12.5 79.5h123q-18 -92 -19.5 -134t31.5 -46h45v-143h-203zM248 1520v143v19.5t2 31t6 50t12 79.5h121q-18 -92 -18 -135t35 -45h43v-143h-201z" />
<glyph unicode="&#x201d;" horiz-adv-x="581" d="M8 1700v143h203v-143q0 -8 -1 -19.5t-3 -31t-5 -50t-12 -79.5h-122v2q18 88 20 129q-2 47 -35 49h-45zM248 1700v143h201v-143v-19.5t-2.5 -31t-7.5 -50t-13 -79.5h-121q18 92 19.5 134t-31.5 46h-45z" />
<glyph unicode="&#x201e;" horiz-adv-x="362" d="M6 0v143h203v-143q0 -8 -1 -19.5t-3 -31t-6 -50t-11 -79.5h-122q18 92 19 135t-34 45h-45z" />
<glyph unicode="&#x2026;" horiz-adv-x="976" d="M10 0v174h189v-174h-189zM332 0v174h192v-174h-192zM666 0v174h180v-174h-180z" />
<glyph unicode="&#x202f;" horiz-adv-x="466" />
<glyph unicode="&#x205f;" horiz-adv-x="582" />
<glyph unicode="&#x25fc;" horiz-adv-x="1843" d="M0 0v1843h1843v-1843h-1843z" />
</font>
</defs>
</svg>
