<?xml version="1.0" standalone="no"?>
<!DOCTYPE svg PUBLIC "-//W3C//DTD SVG 1.1//EN" "http://www.w3.org/Graphics/SVG/1.1/DTD/svg11.dtd" >
<svg xmlns="http://www.w3.org/2000/svg" xmlns:xlink="http://www.w3.org/1999/xlink" version="1.1">
<metadata></metadata>
<defs>
<font id="saccoSBdultraCnOb" horiz-adv-x="491" >
<font-face units-per-em="2048" ascent="1638" descent="-410" />
<missing-glyph horiz-adv-x="229" />
<glyph horiz-adv-x="0" />
<glyph horiz-adv-x="0" />
<glyph unicode="&#xd;" horiz-adv-x="512" />
<glyph unicode=" "  horiz-adv-x="229" />
<glyph unicode="&#x09;" horiz-adv-x="229" />
<glyph unicode="&#xa0;" horiz-adv-x="229" />
<glyph unicode="!" horiz-adv-x="256" d="M6 0h150l10 186h-150zM25 295l77 1548h152l-86 -1548h-143z" />
<glyph unicode="&#x22;" horiz-adv-x="413" d="M96 1700l6 143h150l-8 -143v-19.5t-3 -31t-7.5 -50t-12.5 -79.5h-90q18 92 20.5 135t-22.5 45h-33zM272 1700l9 143h149l-8 -143q0 -8 -1 -19.5t-4 -31t-7 -50t-15 -79.5h-90q18 92 21.5 134t-21.5 46h-33z" />
<glyph unicode="#" horiz-adv-x="655" d="M45 0l70 733h-56l19 189h53l16 180h-51l19 188h51l51 553h145l-53 -553h76l53 551h142l-52 -551h64l-19 -188h-63l-16 -180h61l-18 -189h-62l-69 -733h-142l70 733h-74l-70 -733h-145zM276 922h76l15 180h-74z" />
<glyph unicode="&#x26;" horiz-adv-x="507" d="M23 150l26 534l12 242q0 10 2.5 17t4.5 15q4 12 26 33q27 20 64 35q-2 2 -27 16q-16 8 -29 19q-8 6 -20 24q-10 18 -8 43l30 568q4 92 46.5 119.5t130.5 27.5q100 0 137 -31.5t33 -109.5l-17 -352h-135l16 309h-77l-27 -522h78l4 80h135l-4 -78h53l-10 -203h-53 q-8 -119 -15.5 -255t-13.5 -254t-10 -199t-6 -91q-2 -59 -30 -97t-73 -38l-80 -2q-94 -4 -131 24.5t-32 125.5zM162 174h76l41 762h-78z" />
<glyph unicode="'" horiz-adv-x="270" d="M96 1720l6 123h150l-6 -123q0 -8 -1 -19t-3 -30.5t-7.5 -50.5t-13.5 -80h-90q8 41 12 65.5t6.5 38t2.5 18.5v9q0 18 -2.5 32.5t-20.5 16.5h-33z" />
<glyph unicode="(" horiz-adv-x="366" d="M16 -33q4 115 10.5 227.5t12.5 229.5l61 1188q4 70 8.5 139.5t8.5 138.5q4 88 38.5 128t104.5 40h90l-10 -194h-68l-12 -252l-16 -314l-35 -641l-12 -233l-21 -424h66l-11 -195h-94q-129 2 -121 162z" />
<glyph unicode=")" horiz-adv-x="346" d="M-4 -195l10 195h70l12 254l16 311l35 641l13 236l20 422h-68l11 194h94q129 -2 121 -162q-4 -115 -10.5 -227.5t-12.5 -226.5l-63 -1188l-15 -281q-4 -88 -37.5 -128t-105.5 -40h-90z" />
<glyph unicode="*" horiz-adv-x="305" d="M61 1778l78 47l-71 55l36 70l68 -58l4 111h66l-6 -111l73 58l27 -70l-78 -55l72 -47l-35 -72l-66 57l-6 -108h-65l6 108l-74 -57z" />
<glyph unicode="," horiz-adv-x="233" d="M4 0l8 143h150l-8 -143q0 -8 -1 -19.5t-3.5 -31t-7.5 -50t-13 -79.5h-90q18 92 21 135t-23 45h-33z" />
<glyph unicode="-" horiz-adv-x="407" d="M57 1004l9 172h288l-8 -172h-289z" />
<glyph unicode="." horiz-adv-x="260" d="M6 0l10 178h146l-10 -178h-146z" />
<glyph unicode="/" horiz-adv-x="462" d="M6 0q74 416 144.5 826.5t144.5 830.5l33 186h149q-74 -416 -146.5 -828.5t-146.5 -830.5l-32 -184h-146z" />
<glyph unicode="0" horiz-adv-x="618" d="M55 922l4 102h70q8 166 16.5 329t18.5 328q4 86 36.5 124t100.5 38h117q121 0 114 -153l-34 -666h86l-6 -102h-86l-39 -762q-8 -160 -138 -160h-114q-125 2 -117 156q8 193 18.5 383t20.5 383h-68zM236 188h65l39 734h-66zM281 1024h65l33 635h-66z" />
<glyph unicode="1" horiz-adv-x="413" d="M102 1659l9 145l254 39l-99 -1843h-147l86 1659h-103z" />
<glyph unicode="2" horiz-adv-x="466" d="M10 0q14 266 21.5 439t13.5 282.5t14.5 170t24.5 100.5t43 73t68 90q39 51 59 80t30.5 50.5t13.5 43t3 57.5l14 273h-71l-17 -307h-145l20 366q2 53 37 89t80 36h137q55 0 85 -40t26 -111l-21 -402q-2 -35 -6 -57.5t-20.5 -53t-52 -77.5t-101.5 -131q-23 -29 -34 -46.5 t-16 -37t-7 -48t-6 -77.5l-31 -574h217l-10 -188h-369z" />
<glyph unicode="3" horiz-adv-x="471" d="M16 137q2 86 6.5 165t8.5 171h135l-16 -299h77l39 760h-123l11 199l125 2l28 524h-74l-16 -311h-139l20 348q2 35 9.5 61.5t26 45t50 28.5t82.5 10q113 2 146.5 -32.5t31.5 -118.5l-30 -564q0 -27 -10.5 -42t-24.5 -26t-30.5 -18.5t-29.5 -15.5q63 -29 76 -53.5t11 -46.5 l-13 -242l-4 -51l-27 -481q-4 -90 -38.5 -122t-139.5 -28l-80 2q-49 2 -69.5 42t-18.5 93z" />
<glyph unicode="4" horiz-adv-x="618" d="M33 483q76 299 152.5 589t154.5 593v2l47 176h143l-65 -1196h94l-6 -162h-96l-27 -485h-133l22 483h-286zM217 645h113l30 588z" />
<glyph unicode="5" horiz-adv-x="462" d="M16 150q2 92 6.5 164.5t10.5 168.5h145l-16 -293h78l39 762h-117q-70 0 -85.5 40t-10.5 110l18 332l18 409h367l-10 -184h-217v-27l-29 -491h115q51 -2 73.5 -47t20.5 -101l-21 -389l-20 -448q-4 -98 -52 -127t-157 -27q-53 2 -85 12.5t-48 28.5t-20.5 45t-2.5 62z" />
<glyph unicode="6" d="M16 156q37 768 80 1536q4 72 38 111.5t91 39.5q70 6 135 0q45 0 76 -41t29 -106l-12 -205h-146l8 168h-69l-21 -393h125q47 0 67.5 -48.5t16.5 -109.5l-49 -950q-10 -152 -131 -158h-127q-55 4 -85 44t-26 112zM168 190h68l51 887h-72z" />
<glyph unicode="7" horiz-adv-x="495" d="M6 0q74 416 145.5 827.5t143.5 833.5h-199l10 182h371q-74 -418 -146.5 -829.5t-148.5 -831.5l-30 -182h-146z" />
<glyph unicode="8" horiz-adv-x="471" d="M16 139l17 314l10 231l12 244q0 20 14.5 45.5t77.5 54.5q-25 16 -53 35.5t-26 69.5l28 567q4 41 9.5 68.5t23.5 44t53 23.5t94 7q57 0 91 -7t51.5 -24.5t22.5 -45t3 -70.5l-28 -563q-2 -27 -12.5 -43.5t-24.5 -26.5t-30.5 -18.5t-31.5 -16.5q66 -29 77.5 -53.5t8.5 -46.5 l-41 -776q-2 -45 -10 -75t-28.5 -46.5t-54 -22.5t-87.5 -8l-80 2q-49 2 -68.5 43t-17.5 94zM158 178h69l39 760h-71zM205 1141h74l26 518h-72z" />
<glyph unicode="9" d="M14 125q4 63 6.5 118.5t6.5 108.5h145l-8 -164h69l21 390h-123q-49 0 -69.5 48t-16.5 109l49 953q12 154 131 157h127q57 -2 86 -42.5t25 -112.5q-37 -768 -80 -1538q-4 -72 -38 -112t-89 -40q-70 -4 -137 0q-43 0 -75 36t-30 89zM197 766h65l47 893h-67z" />
<glyph unicode=":" horiz-adv-x="268" d="M41 668h147l11 176h-148zM59 1004l9 178h147l-10 -178h-146z" />
<glyph unicode=";" horiz-adv-x="233" d="M41 700l6 144h150l-9 -144q0 -8 -1 -19t-3 -30.5t-7 -50.5t-11 -80h-90q18 92 20 135t-22 45h-33zM55 1004l11 178h145l-10 -178h-146z" />
<glyph unicode="?" horiz-adv-x="493" d="M23 0l10 188h153l-10 -188h-153zM39 293l24 495q4 72 8.5 113t17.5 76t41 74t79 104q37 51 58.5 80t30.5 50.5t12 43t5 57.5l13 273h-70l-16 -307h-146l19 366q2 53 37.5 89t80.5 36h136q55 0 84.5 -40t25.5 -111l-20 -402q-2 -35 -5 -57.5t-20.5 -53t-52.5 -77.5 t-100 -131q-23 -29 -35.5 -54.5t-20.5 -89t-15 -186.5t-17 -348h-154z" />
<glyph unicode="A" d="M6 0l4 72l84 1603q8 168 144 168h235l-84 -1601l-12 -242h-148l54 1001h-74l-53 -1001h-150zM221 1184h66l24 475h-65z" />
<glyph unicode="B" horiz-adv-x="487" d="M6 0l96 1843h271q37 -2 61.5 -41t26.5 -84h2l-27 -475q-2 -57 -28.5 -91t-65.5 -50q14 -14 31.5 -28.5t27.5 -35.5q10 -23 14.5 -50t4.5 -54q-2 -53 -7 -140t-10.5 -192.5t-11.5 -220.5t-10 -223q-4 -72 -39 -115t-92 -43h-244zM162 193h69l43 811h-67l-12 -242z M217 1192h66l24 467h-65l-17 -311z" />
<glyph unicode="C" d="M16 156q37 770 80 1540q4 72 38 110.5t91 38.5h135q45 -1 77 -35q28 -31 28 -76v-12l-19 -366h-145l14 303h-69l-78 -1469h70l30 572h148l-31 -604q-4 -74 -39 -116t-92 -42h-127q-55 0 -85 42q-26 37 -26 97v17z" />
<glyph unicode="D" horiz-adv-x="487" d="M6 0l96 1843h273q49 0 69 -48q18 -44 17 -98v-11l-74 -1379q-2 -43 -3 -85t-5 -85q-4 -49 -33 -93t-67 -44h-273zM166 190h65l76 1467h-65z" />
<glyph unicode="E" horiz-adv-x="374" d="M6 0l96 1843h254l-10 -184h-102l-25 -473h105l-11 -182h-106l-8 -179l-33 -647h104l-10 -178h-254z" />
<glyph unicode="F" horiz-adv-x="468" d="M6 0l96 1843h349l-11 -184h-196l-25 -477h162l-8 -178h-166l-53 -1004h-148z" />
<glyph unicode="G" d="M14 158l39 721l41 807q8 157 133 157h2h136q43 -2 73 -39q27 -35 27 -80v-6q-4 -94 -9 -179t-10 -187h-147l16 307h-69l-78 -1475h70l34 656h-32l10 164h176l-53 -1004h-246q-74 0 -95 43q-18 39 -18 102v13z" />
<glyph unicode="H" horiz-adv-x="483" d="M6 0l96 1843h146l-35 -661h72l34 661h146l-96 -1843h-144l54 1004h-74l-53 -1004h-146z" />
<glyph unicode="I" horiz-adv-x="253" d="M6 0l96 1843h150l-96 -1843h-150z" />
<glyph unicode="J" horiz-adv-x="372" d="M6 0l10 174q8 0 17.5 1t21.5 3q61 4 66 82l84 1583h145l-18 -350q-16 -305 -31.5 -606t-28.5 -606q-8 -160 -80 -231q-55 -54 -137 -54q-24 0 -49 4z" />
<glyph unicode="K" horiz-adv-x="503" d="M6 0l100 1843h146l-29 -561q14 76 24.5 125t16.5 85t12.5 64.5t13.5 66.5t16 89t24 131h147q-31 -168 -61.5 -335t-61.5 -332l-6 -60v-61q2 -57 4 -141.5t5 -183.5t5.5 -204.5t5.5 -204t5 -182.5t4 -139h-146q-2 111 -5 231.5t-6 243.5t-7 243t-8 228q-2 -45 -6 -120.5 t-9.5 -165t-10.5 -185.5t-10 -186t-9 -166t-8 -123h-146z" />
<glyph unicode="L" horiz-adv-x="372" d="M6 0l96 1843h144l-88 -1665h108l-8 -178h-252z" />
<glyph unicode="M" horiz-adv-x="712" d="M8 0l96 1843h474q60 -2 86 -41q22 -34 23 -103q0 -11 -1 -22q-20 -401 -42.5 -812.5t-47.5 -864.5h-150l89 1659h-72l-88 -1659h-150l88 1659h-73l-88 -1659h-144z" />
<glyph unicode="N" d="M6 0l96 1843h238q125 0 125 -149v-19l-88 -1675h-150l88 1659h-73l-88 -1659h-148z" />
<glyph unicode="O" horiz-adv-x="489" d="M14 158q10 195 20.5 386t20.5 386q10 188 19.5 374.5t19.5 378.5q4 86 37 124t102 38h115q115 0 115 -141v-14l-45 -863l-35 -665q-8 -162 -135 -162h-117q-117 2 -117 140v18zM168 190h65l76 1469h-65z" />
<glyph unicode="P" horiz-adv-x="487" d="M6 0l96 1843h273q41 -2 65 -40q21 -33 22 -76q0 -7 -1 -15q-16 -377 -39 -749q-2 -55 -37 -94.5t-80 -41.5q-27 -2 -53.5 -1t-56.5 1l-43 -827h-146zM209 1004h65l33 655h-65z" />
<glyph unicode="Q" horiz-adv-x="522" d="M14 154l80 1527q4 86 37 124t100 38h117q115 0 115 -133v-18l-45 -869l-35 -676l55 -63l-92 -125l-45 49q-23 -8 -70 -8h-92q-74 0 -101 36q-25 31 -25 98q0 10 1 20zM168 184h65l76 1475h-65z" />
<glyph unicode="R" horiz-adv-x="489" d="M6 0l31 588l65 1255h146h106q61 1 88 -35q24 -31 24 -82q0 -8 -1 -16l-29 -500q-2 -57 -30.5 -76.5t-57.5 -37.5q77 -50 77 -161q0 -11 -1 -22l-2 -34l-43 -809l-4 -70h-148l47 879l7 125h-74l-53 -1004h-148zM219 1194h66l24 465h-65z" />
<glyph unicode="S" horiz-adv-x="462" d="M18 123l2 33h-2l31 604h150l-31 -572h70l28 574q2 49 3 77.5t-2 48t-13 37t-29 46.5q-57 84 -88 131t-44 77.5t-14 53t1 57.5l20 402q4 72 38 111.5t89 39.5h138q43 1 75 -35q30 -33 29 -84v-6l-20 -366h-146l16 307h-69l-17 -273q-2 -37 -2 -58t8.5 -42.5t26 -50.5 t49.5 -80q43 -66 67 -104.5t34 -73.5t10 -76t-4 -113l-31 -536l-4 -102q-4 -72 -38 -111t-91 -39h-135q-45 0 -77 35q-28 31 -28 76v12z" />
<glyph unicode="T" horiz-adv-x="450" d="M94 1659l8 184h363l-10 -184h-105l-86 -1659h-149l86 1659h-107z" />
<glyph unicode="U" horiz-adv-x="485" d="M16 139l90 1704h144l-88 -1653h71l86 1653h146l-88 -1681q-8 -160 -131 -160q-32 -2 -63.5 -2t-63.5 2q-49 2 -78 39q-25 33 -25 84v14z" />
<glyph unicode="V" horiz-adv-x="579" d="M102 1843h148l29 -1007l100 753l37 254h145l-258 -1843h-143z" />
<glyph unicode="W" horiz-adv-x="712" d="M14 166l88 1677h152l-86 -1653h72l86 1653h147l-86 -1655h76l86 1655h145l-2 -28q-20 -412 -41.5 -818.5t-44.5 -818.5l-10 -178h-471q-63 6 -89 43q-23 32 -23 101q0 11 1 22z" />
<glyph unicode="X" horiz-adv-x="487" d="M6 0q16 84 30.5 165t29.5 163q14 72 29.5 158.5t30.5 179t30.5 180.5t27.5 158l-26 253q-25 291 -56 586h144l33 -422l79 422h144q-4 -23 -16.5 -81t-28 -135t-32.5 -165t-33.5 -174t-31 -160.5t-24.5 -123.5l67 -1004h-139q-12 119 -20 225.5t-17 198.5 q-18 -98 -38.5 -210t-38.5 -214h-144z" />
<glyph unicode="Y" d="M6 0q16 84 30.5 166t29.5 164l124 674l-86 839h144l35 -413l73 413h150q-4 -23 -10.5 -56.5t-13.5 -68.5t-13 -67.5t-12 -55.5l-115 -573l-117 -625l-73 -397h-146z" />
<glyph unicode="Z" horiz-adv-x="495" d="M6 0l289 1659h-199l10 184h371l-293 -1659h197l-8 -184h-367z" />
<glyph unicode="[" horiz-adv-x="356" d="M39 -195l119 2253h225l-10 -194h-68l-12 -252l-17 -314l-34 -641l-13 -233l-20 -424h65l-10 -195h-225z" />
<glyph unicode="\" horiz-adv-x="462" d="M102 1843h150l14 -186q29 -420 56.5 -830.5t58.5 -826.5h-148l-12 184q-31 418 -60.5 830.5t-58.5 828.5z" />
<glyph unicode="]" horiz-adv-x="378" d="M39 -195l10 195h68l22 424l13 233l32 641l17 314l12 252h-66l11 194h225l-119 -2253h-225z" />
<glyph unicode="_" horiz-adv-x="604" d="M0 -143l6 143h486l-9 -143h-483z" />
<glyph unicode="`" horiz-adv-x="313" d="M156 2324h149l23 -364h-146z" />
<glyph unicode="a" d="M6 0l4 72l84 1603q8 168 144 168h235l-84 -1601l-12 -242h-148l54 1001h-74l-53 -1001h-150zM221 1184h66l24 475h-65z" />
<glyph unicode="b" horiz-adv-x="487" d="M6 0l96 1843h271q37 -2 61.5 -41t26.5 -84h2l-27 -475q-2 -57 -28.5 -91t-65.5 -50q14 -16 31.5 -29.5t27.5 -34.5q10 -23 14.5 -50t4.5 -54q-2 -53 -7 -140t-10.5 -192.5t-11.5 -220.5t-10 -223q-4 -72 -39 -115t-92 -43h-244zM162 193h69l43 811h-67l-12 -242z M217 1192h66l24 467h-65l-17 -311z" />
<glyph unicode="c" d="M16 156q37 770 80 1540q4 72 38 110.5t91 38.5h135q45 -1 77 -35q28 -31 28 -76v-12l-19 -366h-145l14 303h-69l-78 -1469h70l30 572h148l-31 -604q-4 -74 -39 -116t-92 -42h-127q-55 0 -85 42q-26 37 -26 97v17z" />
<glyph unicode="d" horiz-adv-x="487" d="M6 0l96 1843h273q49 0 69 -48q18 -44 17 -98v-11l-74 -1379q-2 -43 -3 -85t-5 -85q-4 -49 -33 -93t-67 -44h-273zM166 190h65l76 1467h-65z" />
<glyph unicode="e" horiz-adv-x="342" d="M6 0l96 1843h254l-10 -184h-102l-25 -473h105l-11 -182h-106l-8 -179l-33 -647h104l-10 -178h-254z" />
<glyph unicode="f" horiz-adv-x="436" d="M6 0l96 1843h349l-11 -184h-196l-25 -477h162l-8 -178h-166l-53 -1004h-148z" />
<glyph unicode="g" d="M14 158l39 721l41 807q8 157 133 157h2h136q43 -2 73 -39q27 -35 27 -80v-6q-4 -94 -9 -179t-10 -187h-147l16 307h-69l-78 -1475h70l34 656h-32l10 164h176l-53 -1004h-246q-74 0 -95 43q-18 39 -18 102v13z" />
<glyph unicode="h" horiz-adv-x="466" d="M6 0l96 1843h146l-35 -661h72l34 661h146l-96 -1843h-144l54 1004h-74l-53 -1004h-146z" />
<glyph unicode="i" horiz-adv-x="229" d="M6 0l96 1843h150l-96 -1843h-150z" />
<glyph unicode="j" horiz-adv-x="356" d="M6 0l10 174q8 0 17.5 1t21.5 3q61 4 66 82l84 1583h145l-18 -350q-16 -305 -31.5 -606t-28.5 -606q-8 -160 -80 -231q-55 -54 -137 -54q-24 0 -49 4z" />
<glyph unicode="k" horiz-adv-x="495" d="M6 0q4 61 9 150.5t10.5 192.5t11.5 215t12 215.5t11.5 192.5t7.5 150l38 727h146l-29 -561q14 76 24.5 125t16.5 85t12.5 64.5t13.5 66.5t16 89t24 131h147q-31 -168 -61.5 -335t-61.5 -332l-6 -60v-61q2 -57 4 -141.5t5 -183.5t5.5 -204.5t5.5 -204t5 -182.5t4 -139 h-146q-2 111 -5 231.5t-6 243.5t-7 243t-8 228q-2 -45 -6 -120.5t-9.5 -165t-10.5 -185.5t-10 -186t-9 -166t-8 -123h-146z" />
<glyph unicode="l" horiz-adv-x="323" d="M6 0l96 1843h144l-88 -1665h108l-8 -178h-252z" />
<glyph unicode="m" horiz-adv-x="712" d="M8 0l96 1843h474q60 -2 86 -41q22 -34 23 -103q0 -11 -1 -22q-20 -401 -42.5 -812.5t-47.5 -864.5h-150l89 1659h-72l-88 -1659h-150l88 1659h-73l-88 -1659h-144z" />
<glyph unicode="n" d="M6 0l96 1843h238q125 0 125 -149v-19l-88 -1675h-150l88 1659h-73l-88 -1659h-148z" />
<glyph unicode="o" horiz-adv-x="489" d="M14 158q10 195 20.5 386t20.5 386q10 188 19.5 374.5t19.5 378.5q4 86 37 124t102 38h115q115 0 115 -141v-14l-45 -863l-35 -665q-8 -162 -135 -162h-117q-117 2 -117 140v18zM168 190h65l76 1469h-65z" />
<glyph unicode="p" horiz-adv-x="471" d="M6 0l96 1843h273q41 -2 65 -40q22 -33 22 -76q0 -8 -1 -15q-16 -377 -39 -749q-2 -55 -37 -94.5t-80 -41.5q-27 -2 -53.5 -1t-56.5 1l-43 -827h-146zM209 1004h65l33 655h-65z" />
<glyph unicode="q" horiz-adv-x="501" d="M14 154l80 1527q4 86 37 124t100 38h117q115 0 115 -133v-18l-45 -869l-35 -676l55 -63l-92 -125l-45 49q-23 -8 -70 -8h-92q-74 0 -101 36q-25 31 -25 98q0 10 1 20zM168 184h65l76 1475h-65z" />
<glyph unicode="r" horiz-adv-x="489" d="M6 0l31 588l65 1255h146h106q61 1 88 -35q24 -31 24 -82q0 -8 -1 -16l-29 -500q-2 -57 -30.5 -76.5t-57.5 -37.5q77 -50 77 -161q0 -11 -1 -22l-2 -34l-43 -809l-4 -70h-148l47 879l7 125h-74l-53 -1004h-148zM219 1194h66l24 465h-65z" />
<glyph unicode="s" horiz-adv-x="462" d="M18 123l2 33h-2l31 604h150l-31 -572h70l28 574q2 49 3 77.5t-2 48t-13 37t-29 46.5q-57 84 -88 131t-44 77.5t-14 53t1 57.5l20 402q4 72 38 111.5t89 39.5h138q43 1 75 -35q30 -33 29 -84v-6l-20 -366h-146l16 307h-69l-17 -273q-2 -37 -2 -58t8.5 -42.5t26 -50.5 t49.5 -80q43 -66 67 -104.5t34 -73.5t10 -76t-4 -113l-31 -536l-4 -102q-4 -72 -38 -111t-91 -39h-135q-45 0 -77 35q-28 31 -28 76v12z" />
<glyph unicode="t" horiz-adv-x="450" d="M94 1659l8 184h363l-10 -184h-105l-86 -1659h-149l86 1659h-107z" />
<glyph unicode="u" horiz-adv-x="483" d="M16 139l90 1704h144l-88 -1653h71l86 1653h146l-88 -1681q-8 -160 -131 -160q-32 -2 -63.5 -2t-63.5 2q-49 2 -78 39q-25 33 -25 84v14z" />
<glyph unicode="v" horiz-adv-x="563" d="M102 1843h148q6 -250 13 -501.5t15 -505.5l101 753l37 254h145l-258 -1843h-143q-12 465 -27.5 922.5t-30.5 920.5z" />
<glyph unicode="w" horiz-adv-x="712" d="M14 166l88 1677h152l-86 -1653h72l86 1653h147l-86 -1655h76l86 1655h145l-2 -28q-20 -412 -41.5 -818.5t-44.5 -818.5l-10 -178h-471q-63 0 -89 40q-23 35 -23 104q0 11 1 22z" />
<glyph unicode="x" horiz-adv-x="487" d="M6 0q16 84 30.5 165t29.5 163q14 72 29.5 158.5t30.5 179t30.5 180.5t27.5 158l-26 253q-25 291 -56 586h144l33 -422l79 422h144q-4 -23 -16.5 -81t-28 -135t-32.5 -165t-33.5 -174t-31 -160.5t-24.5 -123.5l67 -1004h-139q-12 119 -20 225.5t-17 198.5 q-18 -98 -38.5 -210t-38.5 -214h-144z" />
<glyph unicode="y" d="M6 0q16 84 30.5 166t29.5 164l124 674l-86 839h144l35 -413l73 413h150q-4 -23 -10.5 -56.5t-13.5 -68.5t-13 -67.5t-12 -55.5l-115 -573l-117 -625l-73 -397h-146z" />
<glyph unicode="z" horiz-adv-x="495" d="M6 0l289 1659h-199l10 184h371l-293 -1659h197l-8 -184h-367z" />
<glyph unicode="{" horiz-adv-x="489" d="M72 930l10 209h129l25 469l14 280q4 88 38 128t105 40h90l-10 -194h-80l-33 -584l-8 -148q-2 -27 -12 -44t-25.5 -28t-32 -18.5t-30.5 -17.5q68 -27 79 -53.5t11 -48.5l-49 -922h82l-10 -195h-95q-129 2 -120 160l22 457l21 387l6 123h-127z" />
<glyph unicode="}" horiz-adv-x="473" d="M-4 -195l10 195h82l41 788l6 136q2 23 16.5 49t84.5 53q-12 10 -29 17.5t-31 18.5t-22.5 28.5t-8.5 44.5l9 147l28 584h-78l11 194h90q70 0 99.5 -40t23.5 -128q-2 -72 -5.5 -140.5t-7.5 -139.5l-20 -357l-6 -110h129l-10 -211h-127l-27 -510q-6 -115 -12 -228.5 t-15 -230.5q-8 -158 -135 -160h-96z" />
<glyph unicode="&#xa1;" horiz-adv-x="272" d="M6 0l86 1548h144l-78 -1548h-152zM94 1657h150l10 186h-150z" />
<glyph unicode="&#xad;" horiz-adv-x="407" d="M57 1004l9 172h288l-8 -172h-289z" />
<glyph unicode="&#xaf;" horiz-adv-x="983" />
<glyph unicode="&#xb4;" horiz-adv-x="313" d="M176 1960l60 364h149l-63 -364h-146z" />
<glyph unicode="&#xbf;" horiz-adv-x="505" d="M31 152l20 401q2 35 6 57.5t20.5 53t52.5 77.5t101 131q23 29 35.5 54.5t20.5 89t15 187.5t17 347h152l-25 -495q-4 -72 -8 -113t-17 -76t-41 -73.5t-77 -104.5q-39 -51 -59.5 -79.5t-30.5 -50t-12 -43t-4 -58.5l-13 -273h70l16 308h146l-19 -367q-4 -53 -38.5 -89 t-79.5 -36h-136q-57 0 -86.5 40t-25.5 112zM324 1655l10 188h153l-8 -188h-155z" />
<glyph unicode="&#xc0;" d="M6 0l4 72l84 1603q8 168 144 168h235l-84 -1601l-12 -242h-148l54 1001h-74l-53 -1001h-150zM221 1184h66l24 475h-65zM303 2300h150l22 -365h-145z" />
<glyph unicode="&#xc1;" horiz-adv-x="548" d="M6 0l4 72l84 1603q8 168 144 168h235l-84 -1601l-12 -242h-148l54 1001h-74l-53 -1001h-150zM221 1184h66l24 475h-65zM332 1960l59 364h150l-64 -364h-145z" />
<glyph unicode="&#xc2;" horiz-adv-x="534" d="M6 0l4 72l84 1603q8 168 144 168h235l-84 -1601l-12 -242h-148l54 1001h-74l-53 -1001h-150zM115 1960h114l74 104l66 -104h110l-168 276zM221 1184h66l24 475h-65z" />
<glyph unicode="&#xc4;" d="M6 0l4 72l84 1603q8 168 144 168h235l-84 -1601l-12 -242h-148l54 1001h-74l-53 -1001h-150zM193 2048q-2 -29 14 -49.5t41 -20.5t43 20.5t20 49.5q0 29 -15 50.5t-40 21.5t-43 -21.5t-20 -50.5zM221 1184h66l24 475h-65zM360 2048q-2 -29 14.5 -49.5t41.5 -20.5t42 20.5 t19 49.5t-14.5 50.5t-40.5 21.5q-25 0 -43.5 -21.5t-18.5 -50.5z" />
<glyph unicode="&#xc6;" horiz-adv-x="659" d="M6 0l4 72l84 1603q8 168 144 168h419l-10 -184h-102l-25 -473h105l-11 -182h-106l-8 -179l-33 -647h104l-10 -178h-332l54 1001h-74l-53 -1001h-150zM221 1184h66l24 475h-65z" />
<glyph unicode="&#xc8;" horiz-adv-x="374" d="M6 0l96 1843h254l-10 -184h-102l-25 -473h105l-11 -182h-106l-8 -179l-33 -647h104l-10 -178h-254zM188 2300h148l22 -365h-145z" />
<glyph unicode="&#xc9;" horiz-adv-x="401" d="M6 0l96 1843h254l-10 -184h-102l-25 -473h105l-11 -182h-106l-8 -179l-33 -647h104l-10 -178h-254zM217 1966l59 365h150l-64 -365h-145z" />
<glyph unicode="&#xca;" horiz-adv-x="466" d="M78 0l98 1843h252l-10 -184h-103l-24 -473h104l-10 -182h-106l-9 -179l-32 -647h104l-10 -178h-254zM123 1960h115l73 104l66 -104h110l-168 276z" />
<glyph unicode="&#xcb;" horiz-adv-x="393" d="M6 0l96 1843h254l-10 -184h-102l-25 -473h105l-11 -182h-106l-8 -179l-33 -647h104l-10 -178h-254zM100 2048q-2 -29 14.5 -49.5t41.5 -20.5t43 20.5t20 49.5t-14.5 50.5t-40.5 21.5q-25 0 -43.5 -21.5t-20.5 -50.5zM268 2048q-2 -29 14.5 -49.5t41.5 -20.5t43 20.5 t18 49.5q2 29 -13.5 50.5t-41.5 21.5q-25 0 -42.5 -21.5t-19.5 -50.5z" />
<glyph unicode="&#xcc;" horiz-adv-x="342" d="M94 0l99 1843h147l-96 -1843h-150zM170 2324h149l23 -364h-145z" />
<glyph unicode="&#xcd;" horiz-adv-x="299" d="M6 0l96 1843h150l-96 -1843h-150zM115 1960l59 364h150l-64 -364h-145z" />
<glyph unicode="&#xce;" horiz-adv-x="450" d="M123 1960h115l73 104l66 -104h110l-168 276zM131 0l96 1843h150l-96 -1843h-150z" />
<glyph unicode="&#xcf;" horiz-adv-x="415" d="M61 0l99 1843h147l-96 -1843h-150zM98 2048q0 -29 15.5 -49.5t40.5 -20.5t43 20.5t20 49.5t-14.5 50.5t-40.5 21.5q-25 0 -43.5 -21.5t-20.5 -50.5zM266 2048q-2 -29 14.5 -49.5t41.5 -20.5t43 20.5t20 49.5q0 29 -15.5 50.5t-39.5 21.5q-25 0 -43.5 -21.5t-20.5 -50.5z " />
<glyph unicode="&#xd0;" horiz-adv-x="487" d="M6 0l96 1843h273q49 0 68.5 -48t17.5 -109l-74 -1379q-2 -43 -3 -85t-5 -85q-4 -49 -33 -93t-67 -44h-273zM57 1004h289l8 172h-288zM166 190h65l76 1467h-65z" />
<glyph unicode="&#xd2;" horiz-adv-x="489" d="M14 158q10 195 20.5 386t20.5 386q10 188 19.5 374.5t19.5 378.5q4 86 37 124t102 38h115q121 0 115 -155l-45 -863l-35 -665q-8 -162 -135 -162h-117q-125 2 -117 158zM168 190h65l76 1469h-65zM193 2324h149l20 -364h-145z" />
<glyph unicode="&#xd3;" horiz-adv-x="489" d="M14 158q10 195 20.5 386t20.5 386q10 188 19.5 374.5t19.5 378.5q4 86 37 124t102 38h115q121 0 115 -155l-45 -863l-35 -665q-8 -162 -135 -162h-117q-125 2 -117 158zM168 190h65l76 1469h-65zM223 1960l62 364h147l-61 -364h-148z" />
<glyph unicode="&#xd4;" horiz-adv-x="489" d="M14 158q10 195 20.5 386t20.5 386q10 188 19.5 374.5t19.5 378.5q4 86 37 124t102 38h115q121 0 115 -155l-45 -863l-35 -665q-8 -162 -135 -162h-117q-125 2 -117 158zM111 1960h114l74 104l66 -104h112l-168 276zM168 190h65l76 1469h-65z" />
<glyph unicode="&#xd6;" horiz-adv-x="489" d="M14 158q10 195 20.5 386t20.5 386q10 188 19.5 374.5t19.5 378.5q4 86 37 124t102 38h115q121 0 115 -155l-45 -863l-35 -665q-8 -162 -135 -162h-117q-125 2 -117 158zM150 2048q-2 -29 14 -49.5t41 -20.5t43 20.5t20 49.5t-14 50.5t-41 21.5t-43 -21.5t-20 -50.5z M168 190h65l76 1469h-65zM317 2048q-2 -29 14.5 -49.5t41.5 -20.5t43 20.5t18 49.5q2 29 -13 50.5t-42 21.5q-25 0 -42.5 -21.5t-19.5 -50.5z" />
<glyph unicode="&#xd8;" horiz-adv-x="489" d="M6 0l14 82q-8 31 -6 76q10 195 20.5 386t20.5 386q10 188 19.5 374.5t19.5 378.5q4 86 37 124t102 38h115q18 0 27 -2h102l-16 -94q2 -14 3 -28.5t-1 -30.5l-45 -863l-35 -665q-8 -162 -135 -162h-242zM184 190h49l19 377q-16 -94 -32.5 -188t-35.5 -189zM221 1237 q18 104 36.5 208.5t37.5 211.5v2h-51z" />
<glyph unicode="&#xd9;" horiz-adv-x="483" d="M16 139l90 1704h144l-88 -1653h71l86 1653h146l-88 -1681q-8 -160 -131 -160q-63 -4 -127 0q-49 2 -78 39t-25 98zM190 2324h150l22 -364h-147z" />
<glyph unicode="&#xda;" horiz-adv-x="483" d="M16 139l90 1704h144l-88 -1653h71l86 1653h146l-88 -1681q-8 -160 -131 -160q-63 -4 -127 0q-49 2 -78 39t-25 98zM221 1960l60 364h149l-63 -364h-146z" />
<glyph unicode="&#xdb;" horiz-adv-x="483" d="M16 139l90 1704h144l-88 -1653h71l86 1653h146l-88 -1681q-8 -160 -131 -160q-63 -4 -127 0q-49 2 -78 39t-25 98zM104 1960h115l74 104l65 -104h111l-166 276z" />
<glyph unicode="&#xdc;" horiz-adv-x="485" d="M16 139l90 1704h144l-88 -1653h71l86 1653h146l-88 -1681q-8 -160 -131 -160q-63 -4 -127 0q-49 2 -78 39t-25 98zM147 2048q-2 -29 14.5 -49.5t41.5 -20.5t42 20.5t19 49.5t-14.5 50.5t-40.5 21.5q-25 0 -43.5 -21.5t-18.5 -50.5zM313 2048q-2 -29 14.5 -49.5 t41.5 -20.5t43 20.5t20 49.5t-14.5 50.5t-40.5 21.5q-25 0 -43.5 -21.5t-20.5 -50.5z" />
<glyph unicode="&#xdd;" d="M6 0q16 84 30.5 166t29.5 164l124 674l-86 839h144l35 -413l73 413h150q-4 -23 -10.5 -56.5t-13.5 -68.5t-13 -67.5t-12 -55.5l-115 -573l-117 -625l-73 -397h-146zM238 1960l59 364h149l-63 -364h-145z" />
<glyph unicode="&#xe0;" d="M6 0l4 72l84 1603q8 168 144 168h235l-84 -1601l-12 -242h-148l54 1001h-74l-53 -1001h-150zM221 1184h66l24 475h-65zM303 2300h150l22 -365h-145z" />
<glyph unicode="&#xe1;" horiz-adv-x="534" d="M6 0l4 72l84 1603q8 168 144 168h235l-84 -1601l-12 -242h-148l54 1001h-74l-53 -1001h-150zM221 1184h66l24 475h-65zM332 1960l59 364h150l-64 -364h-145z" />
<glyph unicode="&#xe2;" d="M6 0l4 72l84 1603q8 168 144 168h235l-84 -1601l-12 -242h-148l54 1001h-74l-53 -1001h-150zM115 1960h114l74 104l66 -104h110l-168 276zM221 1184h66l24 475h-65z" />
<glyph unicode="&#xe4;" horiz-adv-x="405" d="M20 0l97 1843h252l-11 -184h-100l-25 -473h103l-10 -182h-107l-6 -179l-35 -647h105l-9 -178h-254zM115 2048q-2 -29 14 -49.5t41 -20.5t42 20.5t19 49.5t-14 50.5t-41 21.5t-43 -21.5t-18 -50.5zM281 2048q-2 -29 14 -49.5t41 -20.5t43 20.5t20 49.5t-14 50.5t-41 21.5 t-43 -21.5t-20 -50.5z" />
<glyph unicode="&#xe6;" horiz-adv-x="659" d="M6 0l4 72l84 1603q8 168 144 168h419l-10 -184h-102l-25 -473h105l-11 -182h-106l-8 -179l-33 -647h104l-10 -178h-332l54 1001h-74l-53 -1001h-150zM221 1184h66l24 475h-65z" />
<glyph unicode="&#xe8;" horiz-adv-x="374" d="M6 0l96 1843h254l-10 -184h-102l-25 -473h105l-11 -182h-106l-8 -179l-33 -647h104l-10 -178h-254zM188 2300h148l22 -365h-145z" />
<glyph unicode="&#xe9;" horiz-adv-x="385" d="M6 0l96 1843h254l-10 -184h-102l-25 -473h105l-11 -182h-106l-8 -179l-33 -647h104l-10 -178h-254zM217 1966l59 365h150l-64 -365h-145z" />
<glyph unicode="&#xea;" horiz-adv-x="499" d="M111 0l98 1843h252l-10 -184h-103l-24 -473h104l-10 -182h-107l-8 -179l-33 -647h105l-10 -178h-254zM156 1960h114l74 104l66 -104h110l-168 276z" />
<glyph unicode="&#xeb;" horiz-adv-x="376" d="M6 0l96 1843h254l-10 -184h-102l-25 -473h105l-11 -182h-106l-8 -179l-33 -647h104l-10 -178h-254zM100 2048q-2 -29 14.5 -49.5t41.5 -20.5t43 20.5t20 49.5t-14.5 50.5t-40.5 21.5q-25 0 -43.5 -21.5t-20.5 -50.5zM268 2048q-2 -29 14.5 -49.5t41.5 -20.5t43 20.5 t18 49.5q2 29 -13.5 50.5t-41.5 21.5q-25 0 -42.5 -21.5t-19.5 -50.5z" />
<glyph unicode="&#xec;" horiz-adv-x="342" d="M94 0l99 1843h147l-96 -1843h-150zM170 2324h149l23 -364h-145z" />
<glyph unicode="&#xed;" horiz-adv-x="278" d="M8 0l96 1843h150l-96 -1843h-150zM109 1960l61 364h147l-61 -364h-147z" />
<glyph unicode="&#xee;" horiz-adv-x="450" d="M123 1960h115l73 104l66 -104h110l-168 276zM131 0l96 1843h150l-96 -1843h-150z" />
<glyph unicode="&#xef;" horiz-adv-x="374" d="M61 0l99 1843h147l-96 -1843h-150zM98 2048q0 -29 15.5 -49.5t40.5 -20.5t43 20.5t20 49.5t-14.5 50.5t-40.5 21.5q-25 0 -43.5 -21.5t-20.5 -50.5zM266 2048q-2 -29 14.5 -49.5t41.5 -20.5t43 20.5t20 49.5q0 29 -15.5 50.5t-39.5 21.5q-25 0 -43.5 -21.5t-20.5 -50.5z " />
<glyph unicode="&#xf2;" horiz-adv-x="489" d="M14 158q10 195 20.5 386t20.5 386q10 188 19.5 374.5t19.5 378.5q4 86 37 124t102 38h115q121 0 115 -155l-45 -863l-35 -665q-8 -162 -135 -162h-117q-125 2 -117 158zM168 190h65l76 1469h-65zM193 2324h149l20 -364h-145z" />
<glyph unicode="&#xf3;" horiz-adv-x="534" d="M14 158q10 195 20.5 386t20.5 386q10 188 19.5 374.5t19.5 378.5q4 86 37 124t102 38h115q121 0 115 -155l-45 -863l-35 -665q-8 -162 -135 -162h-117q-125 2 -117 158zM168 190h65l76 1469h-65zM223 1960l62 364h147l-61 -364h-148z" />
<glyph unicode="&#xf4;" horiz-adv-x="489" d="M14 158q10 195 20.5 386t20.5 386q10 188 19.5 374.5t19.5 378.5q4 86 37 124t102 38h115q121 0 115 -155l-45 -863l-35 -665q-8 -162 -135 -162h-117q-125 2 -117 158zM111 1960h114l74 104l66 -104h112l-168 276zM168 190h65l76 1469h-65z" />
<glyph unicode="&#xf6;" horiz-adv-x="489" d="M14 158q10 195 20.5 386t20.5 386q10 188 19.5 374.5t19.5 378.5q4 86 37 124t102 38h115q121 0 115 -155l-45 -863l-35 -665q-8 -162 -135 -162h-117q-125 2 -117 158zM150 2048q-2 -29 14 -49.5t41 -20.5t43 20.5t20 49.5t-14 50.5t-41 21.5t-43 -21.5t-20 -50.5z M168 190h65l76 1469h-65zM317 2048q-2 -29 14.5 -49.5t41.5 -20.5t43 20.5t18 49.5q2 29 -13 50.5t-42 21.5q-25 0 -42.5 -21.5t-19.5 -50.5z" />
<glyph unicode="&#xf8;" horiz-adv-x="489" d="M6 0l14 82q-8 31 -6 76q10 195 20.5 386t20.5 386q10 188 19.5 374.5t19.5 378.5q4 86 37 124t102 38h115q18 0 27 -2h102l-16 -94q2 -14 3 -28.5t-1 -30.5l-45 -863l-35 -665q-8 -162 -135 -162h-242zM184 190h49l19 377q-16 -94 -32.5 -188t-35.5 -189zM221 1237 q18 104 36.5 208.5t37.5 211.5v2h-51z" />
<glyph unicode="&#xf9;" horiz-adv-x="483" d="M16 139l90 1704h144l-88 -1653h71l86 1653h146l-88 -1681q-8 -160 -131 -160q-63 -4 -127 0q-49 2 -78 39t-25 98zM190 2324h150l22 -364h-147z" />
<glyph unicode="&#xfa;" horiz-adv-x="483" d="M16 139l90 1704h144l-88 -1653h71l86 1653h146l-88 -1681q-8 -160 -131 -160q-63 -4 -127 0q-49 2 -78 39t-25 98zM221 1960l60 364h149l-63 -364h-146z" />
<glyph unicode="&#xfb;" horiz-adv-x="489" d="M14 158q10 195 20.5 386t20.5 386q10 188 19.5 374.5t19.5 378.5q4 86 37 124t102 38h115q121 0 115 -155l-45 -863l-35 -665q-8 -162 -135 -162h-117q-125 2 -117 158zM111 1960h114l74 104l66 -104h112l-168 276zM168 190h65l76 1469h-65z" />
<glyph unicode="&#xfc;" horiz-adv-x="485" d="M16 139l90 1704h144l-88 -1653h71l86 1653h146l-88 -1681q-8 -160 -131 -160q-63 -4 -127 0q-49 2 -78 39t-25 98zM147 2048q-2 -29 14.5 -49.5t41.5 -20.5t42 20.5t19 49.5t-14.5 50.5t-40.5 21.5q-25 0 -43.5 -21.5t-18.5 -50.5zM313 2048q-2 -29 14.5 -49.5 t41.5 -20.5t43 20.5t20 49.5t-14.5 50.5t-40.5 21.5q-25 0 -43.5 -21.5t-20.5 -50.5z" />
<glyph unicode="&#xfd;" d="M6 0q16 84 30.5 166t29.5 164l124 674l-86 839h144l35 -413l73 413h150q-4 -23 -10.5 -56.5t-13.5 -68.5t-13 -67.5t-12 -55.5l-115 -573l-117 -625l-73 -397h-146zM238 1960l59 364h149l-63 -364h-145z" />
<glyph unicode="&#xff;" d="M6 0q16 84 30.5 166t29.5 164l124 674l-86 839h144l35 -413l73 413h150q-4 -23 -10.5 -56.5t-13.5 -68.5t-13 -67.5t-12 -55.5l-115 -573l-117 -625l-73 -397h-146zM174 2048q-2 -29 14 -49.5t41 -20.5t43.5 20.5t20.5 49.5t-14.5 50.5t-40.5 21.5q-25 0 -43.5 -21.5 t-20.5 -50.5zM342 2048q-2 -29 14 -49.5t41 -20.5t43.5 20.5t18.5 49.5q2 29 -13.5 50.5t-42.5 21.5q-25 0 -42 -21.5t-19 -50.5z" />
<glyph unicode="&#x152;" horiz-adv-x="864" d="M14 158q10 195 20.5 386t20.5 386q10 188 19.5 374.5t19.5 378.5q4 86 37 124t102 38h115q121 0 115 -155l-45 -863l-35 -665q-8 -162 -135 -162h-117q-125 2 -117 158zM168 190h65l76 1469h-65zM496 0l98 1843h252l-10 -184h-103l-24 -473h104l-10 -182h-107l-8 -179 l-33 -647h105l-10 -178h-254z" />
<glyph unicode="&#x153;" horiz-adv-x="831" d="M14 158q10 195 20.5 386t20.5 386q10 188 19.5 374.5t19.5 378.5q4 86 37 124t102 38h115q121 0 115 -155l-45 -863l-35 -665q-8 -162 -135 -162h-117q-125 2 -117 158zM168 190h65l76 1469h-65zM496 0l98 1843h252l-10 -184h-103l-24 -473h104l-10 -182h-107l-8 -179 l-33 -647h105l-10 -178h-254z" />
<glyph unicode="&#x178;" d="M6 0q16 84 30.5 166t29.5 164l124 674l-86 839h144l35 -413l73 413h150q-4 -23 -10.5 -56.5t-13.5 -68.5t-13 -67.5t-12 -55.5l-115 -573l-117 -625l-73 -397h-146zM174 2048q-2 -29 14 -49.5t41 -20.5t43.5 20.5t20.5 49.5t-14.5 50.5t-40.5 21.5q-25 0 -43.5 -21.5 t-20.5 -50.5zM342 2048q-2 -29 14 -49.5t41 -20.5t43.5 20.5t18.5 49.5q2 29 -13.5 50.5t-42.5 21.5q-25 0 -42 -21.5t-19 -50.5z" />
<glyph unicode="&#x2c6;" d="M115 1960l196 276l168 -276h-110l-66 104l-74 -104h-114z" />
<glyph unicode="&#x2000;" horiz-adv-x="1165" />
<glyph unicode="&#x2001;" horiz-adv-x="2331" />
<glyph unicode="&#x2002;" horiz-adv-x="1165" />
<glyph unicode="&#x2003;" horiz-adv-x="2331" />
<glyph unicode="&#x2004;" horiz-adv-x="777" />
<glyph unicode="&#x2005;" horiz-adv-x="582" />
<glyph unicode="&#x2006;" horiz-adv-x="388" />
<glyph unicode="&#x2007;" horiz-adv-x="388" />
<glyph unicode="&#x2008;" horiz-adv-x="291" />
<glyph unicode="&#x2009;" horiz-adv-x="466" />
<glyph unicode="&#x200a;" horiz-adv-x="129" />
<glyph unicode="&#x2010;" horiz-adv-x="407" d="M57 1004l9 172h288l-8 -172h-289z" />
<glyph unicode="&#x2011;" horiz-adv-x="407" d="M57 1004l9 172h288l-8 -172h-289z" />
<glyph unicode="&#x2012;" horiz-adv-x="407" d="M57 1004l9 172h288l-8 -172h-289z" />
<glyph unicode="&#x2013;" horiz-adv-x="460" d="M57 1004l9 172h342l-11 -172h-340z" />
<glyph unicode="&#x2014;" horiz-adv-x="522" d="M57 1004l9 172h403l-8 -172h-404z" />
<glyph unicode="&#x2018;" horiz-adv-x="270" d="M88 1518l6 145q0 8 1 19.5t3 31t7.5 50t13.5 79.5h90q-18 -92 -20.5 -134t22.5 -46l33 -2l-8 -143h-148z" />
<glyph unicode="&#x2019;" horiz-adv-x="270" d="M96 1702l6 141h150l-6 -141q-2 -8 -2 -19.5t-3 -31t-7.5 -50t-12.5 -79.5h-90q18 92 20.5 135t-22.5 45h-33z" />
<glyph unicode="&#x201a;" horiz-adv-x="983" d="M4 0l8 143h150l-8 -143q0 -8 -1 -19.5t-3.5 -31t-7.5 -50t-13 -79.5h-90q18 92 21 135t-23 45h-33z" />
<glyph unicode="&#x201c;" horiz-adv-x="446" d="M86 1520l8 143q0 8 1 19.5t3 31t7.5 50t13.5 79.5h90q-18 -92 -20.5 -134t22.5 -46h33l-8 -143h-150zM262 1520l8 143q0 8 1 19.5t3 31t7.5 50t13.5 79.5h90q-18 -92 -21.5 -135t23.5 -45h33l-8 -143h-150z" />
<glyph unicode="&#x201d;" horiz-adv-x="430" d="M96 1700l6 143h150l-8 -143v-19.5t-3 -31t-7.5 -50t-12.5 -79.5h-90v2q16 88 21 129q0 47 -23 49h-33zM272 1700l9 143h149l-8 -143q0 -8 -1 -19.5t-4 -31t-7 -50t-15 -79.5h-90q18 92 21.5 134t-21.5 46h-33z" />
<glyph unicode="&#x201e;" horiz-adv-x="268" d="M4 0l8 143h150l-8 -143q0 -8 -1 -19.5t-3.5 -31t-7.5 -50t-13 -79.5h-90q18 92 21 135t-23 45h-33z" />
<glyph unicode="&#x2026;" horiz-adv-x="724" d="M8 0l8 174h140l-9 -174h-139zM246 0l8 174h143l-8 -174h-143zM494 0l8 174h133l-8 -174h-133z" />
<glyph unicode="&#x202f;" horiz-adv-x="466" />
<glyph unicode="&#x205f;" horiz-adv-x="582" />
<glyph unicode="&#x25fc;" horiz-adv-x="1843" d="M0 0v1843h1843v-1843h-1843z" />
</font>
</defs>
</svg>
